<svg width="100" height="100" viewBox="0 0 100 100" fill="none" xmlns="http://www.w3.org/2000/svg">
<g clip-path="url(#clip0_2728_47360)">
<path d="M60.4385 99.9996C63.7821 99.9996 66.6979 97.0837 66.6979 93.7402V79.1219H70.8773C73.3853 79.1219 75.0568 77.4498 75.0568 74.9424V33.1906H24.943V74.9428C24.943 77.4504 26.6148 79.1223 29.1224 79.1223H33.3023V93.7406C33.3023 97.0841 36.2173 99.9999 39.5616 99.9999C42.9048 99.9999 45.8204 97.0841 45.8204 93.7406V79.1223H54.1796V93.7406C54.1792 97.0837 57.095 99.9996 60.4385 99.9996ZM85.4958 74.9428C88.8394 74.9428 91.7546 72.0274 91.7546 68.6835V39.4473C91.7546 36.1213 88.8396 33.1906 85.4958 33.1906C82.1519 33.1906 79.2365 36.1215 79.2365 39.4473V68.6835C79.2365 72.027 82.1517 74.9428 85.4958 74.9428ZM14.5041 74.9428C17.8481 74.9428 20.7635 72.0274 20.7635 68.6835V39.4473C20.7635 36.1213 17.8484 33.1906 14.5041 33.1906C11.1606 33.1906 8.24536 36.1215 8.24536 39.4473V68.6835C8.24556 72.027 11.1606 74.9428 14.5041 74.9428ZM70.041 0.630613C69.2055 -0.210204 67.9615 -0.210204 67.126 0.630613L61.5203 6.2175L61.2618 6.47571C57.9379 4.81126 54.2112 3.98001 50.0612 3.97201C50.0409 3.97201 50.0208 3.97142 50.0005 3.97142H49.9999C49.9788 3.97142 49.9595 3.97201 49.9386 3.97201C45.7888 3.98001 42.0622 4.81126 38.7386 6.47571L38.4794 6.2175L32.8738 0.630613C32.0376 -0.210204 30.7943 -0.210204 29.9588 0.630613C29.1226 1.46674 29.1226 2.70775 29.9588 3.5433L35.3812 8.96671C33.6339 10.1333 32.0496 11.5608 30.6718 13.1936C27.3734 17.1034 25.2693 22.1919 24.9801 27.7051C24.9773 27.7625 24.9717 27.8192 24.9691 27.8766C24.9515 28.2536 24.9429 28.6309 24.9431 29.0082H75.0568C75.0568 28.6295 75.0478 28.2522 75.0308 27.8766C75.0281 27.8192 75.0224 27.7625 75.0191 27.7051C74.7305 22.1919 72.626 17.1032 69.3274 13.194C67.9502 11.5612 66.3653 10.1337 64.618 8.9671L70.041 3.54369C70.8773 2.70775 70.8773 1.46694 70.041 0.630613ZM39.5536 21.7108C37.8245 21.7108 36.4226 20.309 36.4226 18.5798C36.4226 16.8505 37.8243 15.4487 39.5536 15.4487C41.2827 15.4487 42.6847 16.8505 42.6847 18.5798C42.6847 20.309 41.2827 21.7108 39.5536 21.7108ZM60.4461 21.7108C58.717 21.7108 57.3151 20.309 57.3151 18.5798C57.3151 16.8505 58.7168 15.4487 60.4461 15.4487C62.1752 15.4487 63.5772 16.8505 63.5772 18.5798C63.5772 20.309 62.1754 21.7108 60.4461 21.7108Z" fill="#A6D864"/>
</g>
<defs>
<clipPath id="clip0_2728_47360">
<rect width="100" height="100" fill="white"/>
</clipPath>
</defs>
</svg>
