<svg width="101" height="100" viewBox="0 0 101 100" fill="none" xmlns="http://www.w3.org/2000/svg">
<path fill-rule="evenodd" clip-rule="evenodd" d="M53.6776 0.25C46.4125 2.82521 39.3992 10.3416 32.6378 22.7991C22.4956 41.4853 9.39658 68.0388 27.4341 89.0627C35.7788 98.789 49.5569 104.529 67.6386 95.4379C82.1645 88.1342 86.2043 67.1746 80.9893 57.3253C70.2318 37.0082 59.3179 31.997 56.3953 19.3972C54.447 10.9974 53.5411 4.61497 53.6776 0.25Z" fill="url(#paint0_linear_2090_49604)"/>
<path fill-rule="evenodd" clip-rule="evenodd" d="M53.6756 0C46.3735 2.60176 39.3603 10.1181 32.6357 22.5491C22.5488 41.1955 9.3945 67.7888 27.432 88.8127C35.7767 98.539 49.3775 101.682 56.9243 95.9135C61.8442 92.1529 65.1903 88.5683 67.1181 81.0155C69.2648 72.6057 67.6177 61.2834 66.4892 56.0822C65.0611 49.5005 64.5937 42.2767 65.087 34.4107C64.9132 34.199 64.7833 34.0405 64.6974 33.9353C60.7684 29.127 57.7366 24.9388 56.3932 19.1472C54.4449 10.7474 53.539 4.36497 53.6756 0Z" fill="url(#paint1_linear_2090_49604)"/>
<path fill-rule="evenodd" clip-rule="evenodd" d="M47.632 3.26953C40.8307 8.64478 35.7738 17.6609 32.4613 30.318C27.4925 49.3035 26.9541 66.8113 28.7065 76.9946C32.1036 96.7357 49.7156 104.229 67.7806 95.0404C78.898 89.3856 83.5285 77.2475 83.2831 64.0721C83.0291 50.4298 56.6665 34.9687 51.9977 23.5834C48.8852 15.9932 47.4299 9.22191 47.632 3.26953Z" fill="url(#paint2_linear_2090_49604)"/>
<path fill-rule="evenodd" clip-rule="evenodd" d="M64.8732 38.8641C73.03 49.325 74.808 56.607 70.2073 60.7102C63.3062 66.865 46.43 70.8807 35.9313 63.4355C28.9322 58.472 26.284 47.8243 27.9867 31.4922C25.0974 37.5261 22.6545 43.6385 20.658 49.8295C18.6615 56.0204 18.0784 62.499 18.9089 69.2655C21.411 74.3275 27.4946 77.7083 37.1595 79.4079C51.657 81.9573 65.3785 80.6976 74.5857 76.0562C80.7238 72.962 83.6271 69.8818 83.2955 66.8156C83.517 62.2877 82.1208 57.9774 79.1067 53.8847C76.0927 49.792 71.3482 44.7852 64.8732 38.8641Z" fill="url(#paint3_linear_2090_49604)"/>
<path fill-rule="evenodd" clip-rule="evenodd" d="M32.9976 28.4219C32.9294 35.9768 34.872 43.1586 38.8253 49.9673C44.7552 60.1805 51.6772 70.2723 62.0352 78.6376C68.9406 84.2144 74.4583 86.0162 78.5882 84.0429C75.1961 90.1138 71.5892 93.0886 67.7676 92.9672C62.0352 92.7853 55.0455 90.2801 43.8463 76.8219C36.3801 67.8498 31.2725 59.3627 28.5234 51.3608C28.9594 48.1863 29.4217 45.0244 29.9102 41.8751C30.3988 38.7258 31.428 34.2414 32.9976 28.4219Z" fill="url(#paint4_linear_2090_49604)"/>
<path fill-rule="evenodd" clip-rule="evenodd" d="M50.5155 38.7891C51.1492 44.9435 53.544 54.7884 50.5155 61.3431C47.4871 67.8978 33.4989 79.7392 37.3602 90.1703C41.2215 100.602 50.6315 98.2597 56.5342 93.4524C62.4368 88.6452 65.5964 80.8285 66.2967 75.3313C66.997 69.8342 64.6211 59.2568 63.8484 50.0564C63.3332 43.9228 63.6827 38.6639 64.897 34.2797L63.0882 32.0037L52.4422 28.8516C50.7354 31.3736 50.0931 34.6861 50.5155 38.7891Z" fill="url(#paint5_linear_2090_49604)"/>
<path fill-rule="evenodd" clip-rule="evenodd" d="M54.3174 8.30469C50.8717 9.76066 47.6071 12.6456 44.5236 16.9596C39.8982 23.4305 37.5425 27.3094 39.2862 40.1364C40.4487 48.6878 41.2808 56.5548 41.7824 63.7376L56.6934 20.4142C56.1452 18.2067 55.6893 16.213 55.3256 14.4332C54.9619 12.6534 54.6259 10.6105 54.3174 8.30469Z" fill="url(#paint6_linear_2090_49604)"/>
<path fill-rule="evenodd" clip-rule="evenodd" d="M56.6627 20.3281C52.8775 22.5375 49.9444 27.0639 47.8635 33.9074C45.7826 40.751 43.8789 50.318 42.1523 62.6086C44.4552 54.7913 45.9827 49.1293 46.7351 45.6225C47.8635 40.3624 48.249 32.9239 51.2453 27.8738C53.2429 24.5071 55.0487 21.9919 56.6627 20.3281Z" fill="#330A4C" fill-opacity="0.316321"/>
<path fill-rule="evenodd" clip-rule="evenodd" d="M39.1406 93.6523C45.3698 94.5423 48.627 95.3335 48.9124 96.0259C49.3404 97.0645 48.1239 98.0146 44.6661 97.3762C42.361 96.9505 40.5191 95.7093 39.1406 93.6523Z" fill="white"/>
<path fill-rule="evenodd" clip-rule="evenodd" d="M42.268 8.30469C38.8417 12.3978 35.8728 16.7371 33.3613 21.3227C30.8498 25.9083 29.0552 29.3293 27.9776 31.5857C27.6436 33.2686 27.4806 35.7519 27.4886 39.0354C27.4965 42.3189 27.7805 45.9698 28.3406 49.9882C28.8309 42.1195 30.332 34.4816 32.8438 27.0746C35.3556 19.6676 38.497 13.4109 42.268 8.30469Z" fill="#EDEDED" fill-opacity="0.603261"/>
<defs>
<linearGradient id="paint0_linear_2090_49604" x1="52.2782" y1="7.62041" x2="48.8091" y2="99.9229" gradientUnits="userSpaceOnUse">
<stop stop-color="#D9D8DC"/>
<stop offset="1" stop-color="white" stop-opacity="0.385275"/>
</linearGradient>
<linearGradient id="paint1_linear_2090_49604" x1="53.8441" y1="7.5988" x2="17.5898" y2="87.0579" gradientUnits="userSpaceOnUse">
<stop stop-color="#8D67AF" stop-opacity="0.671932"/>
<stop offset="1" stop-color="#9F8DAF"/>
</linearGradient>
<linearGradient id="paint2_linear_2090_49604" x1="57.8938" y1="33.3415" x2="57.8938" y2="97.2393" gradientUnits="userSpaceOnUse">
<stop stop-color="#26053D" stop-opacity="0.761634"/>
<stop offset="1" stop-color="#B7B4B4" stop-opacity="0.277683"/>
</linearGradient>
<linearGradient id="paint3_linear_2090_49604" x1="25.1068" y1="37.6628" x2="41.3738" y2="80.7533" gradientUnits="userSpaceOnUse">
<stop stop-color="#91739F" stop-opacity="0.45955"/>
<stop offset="1" stop-color="#32054F" stop-opacity="0.539912"/>
</linearGradient>
<linearGradient id="paint4_linear_2090_49604" x1="68.5867" y1="90.6536" x2="23.8539" y2="53.5881" gradientUnits="userSpaceOnUse">
<stop stop-color="#463D49" stop-opacity="0.331182"/>
<stop offset="1" stop-color="#340A50" stop-opacity="0.821388"/>
</linearGradient>
<linearGradient id="paint5_linear_2090_49604" x1="59.3915" y1="33.9466" x2="27.8421" y2="81.9418" gradientUnits="userSpaceOnUse">
<stop stop-color="#715383" stop-opacity="0.145239"/>
<stop offset="1" stop-color="#F4F4F4" stop-opacity="0.233639"/>
</linearGradient>
<linearGradient id="paint6_linear_2090_49604" x1="62.4104" y1="48.5851" x2="40.0677" y2="47.2212" gradientUnits="userSpaceOnUse">
<stop stop-color="#A5A1A8" stop-opacity="0.356091"/>
<stop offset="1" stop-color="#370C50" stop-opacity="0.581975"/>
</linearGradient>
</defs>
</svg>
