<svg width="250" height="40" viewBox="0 0 250 40" fill="none" xmlns="http://www.w3.org/2000/svg">
<path fill-rule="evenodd" clip-rule="evenodd" d="M23.202 34.2934H0.495981C0.495981 37.4548 3.02771 40 6.17562 40H23.202C26.3365 40 28.8682 37.4413 28.8682 34.2934V10.8237C28.8682 10.7165 28.7747 10.6097 28.6674 10.6097H23.4027C23.2955 10.6097 23.202 10.7033 23.202 10.8237V34.2934ZM23.202 0C26.3365 0 28.8682 2.55866 28.8682 5.72013H6.16234V29.1895C6.16234 29.2968 6.06857 29.404 5.94805 29.404H0.683489C0.576248 29.404 0.469055 29.3101 0.469055 29.1895V5.72013C0.469055 2.55866 3.00097 0 6.14902 0H23.202Z" fill="#0DAB40"/>
<path fill-rule="evenodd" clip-rule="evenodd" d="M249.499 9.25021C249.499 9.02931 249.342 8.77657 249.152 8.68171C248.71 8.42909 248.047 8.27165 246.69 8.27165C243.627 8.27165 240.943 9.78686 239.775 12.3442V9.25021C239.775 8.99747 239.555 8.77657 239.271 8.77657H234.724C234.471 8.77657 234.251 8.96618 234.251 9.25021V30.2131C234.251 30.4654 234.471 30.6863 234.755 30.6863L239.555 30.6867C239.807 30.6867 240.028 30.4654 240.028 30.2131V20.7737C240.028 16.5746 242.964 14.4909 246.721 14.4909C247.605 14.4909 248.489 14.6483 248.931 14.8067C249.247 14.9015 249.531 14.6801 249.531 14.333V9.21847L249.499 9.25021ZM218.939 8.23992C225.663 8.23992 230.684 12.8808 230.684 19.7313C230.684 26.5507 225.663 31.223 218.971 31.223C212.277 31.223 207.289 26.5825 207.289 19.7313C207.258 12.8808 212.246 8.23992 218.939 8.23992ZM218.939 25.5408C222.222 25.5408 224.748 23.2357 224.748 19.7313C224.748 16.2271 222.222 13.8912 218.939 13.8912C215.687 13.8912 213.161 16.2271 213.161 19.7313C213.193 23.2357 215.719 25.5408 218.939 25.5408ZM192.357 8.23992C199.081 8.23992 204.069 12.8808 204.069 19.7313C204.069 26.5507 199.05 31.223 192.388 31.223C185.664 31.223 180.644 26.5825 180.644 19.7313C180.644 12.8808 185.632 8.23992 192.357 8.23992ZM192.357 25.5408C195.64 25.5408 198.165 23.2357 198.165 19.7313C198.165 16.2271 195.64 13.8912 192.388 13.8912C189.137 13.8912 186.61 16.2271 186.61 19.7313C186.579 23.2675 189.104 25.5722 192.357 25.5408ZM176.603 0.0312881C176.856 0.0312881 177.076 0.220898 177.076 0.504921V30.2131C177.076 30.4654 176.887 30.6863 176.603 30.6863L171.803 30.6867C171.551 30.6867 171.33 30.4654 171.33 30.2131V27.6245C169.72 29.8974 167.258 31.2547 164.101 31.2547C158.702 31.2547 154.188 27.1508 154.188 19.7317C154.188 12.3129 158.702 8.20853 164.006 8.20853C167.416 8.20853 169.847 9.81859 171.33 11.9337V0.505363C171.33 0.252628 171.551 0 171.836 0L176.603 0.0312881ZM165.806 25.6352C169.026 25.6352 171.521 23.3623 171.521 19.763C171.521 16.1327 169.026 13.8912 165.806 13.8912C162.553 13.8912 160.092 16.2271 160.092 19.763C160.092 23.3306 162.553 25.6352 165.806 25.6352ZM151.031 24.0881C151.031 29.0767 147.432 31.223 141.623 31.223C137.645 31.223 134.172 30.1183 132.215 27.9085C132.057 27.7189 132.057 27.4661 132.215 27.277L134.961 23.6464C135.151 23.3936 135.498 23.3936 135.687 23.6146C137.139 25.1303 139.412 26.0458 142.191 26.0458C143.801 26.0458 145.127 25.6035 145.127 24.3722C145.127 23.1727 143.927 22.92 140.265 22.131C137.045 21.4678 133.035 19.9839 133.035 15.2168C133.035 10.7654 136.54 8.23992 142.222 8.23992C145.979 8.23992 148.663 9.37635 150.557 11.176C150.747 11.3652 150.747 11.6492 150.589 11.8393L147.968 15.2803C147.811 15.5012 147.495 15.5326 147.274 15.3747C146.011 14.2069 143.864 13.5119 141.749 13.5119C139.981 13.5119 138.97 14.0804 138.97 15.0277C138.97 16.1327 140.17 16.385 144.022 17.2061C147.842 18.0268 151.031 19.479 151.031 24.0881ZM128.931 24.0881C128.931 29.0767 125.332 31.223 119.523 31.223C115.514 31.223 112.073 30.1183 110.084 27.9085C109.957 27.7189 109.957 27.4661 110.084 27.277L112.862 23.6776C113.02 23.4253 113.399 23.4253 113.588 23.6464C115.041 25.1616 117.313 26.0771 120.092 26.0771C121.702 26.0771 123.028 25.6352 123.028 24.4039C123.028 23.2045 121.828 22.9517 118.166 22.1624C114.946 21.4995 110.936 20.0156 110.936 15.2481C110.936 10.7968 114.409 8.27165 120.123 8.27165C123.88 8.27165 126.564 9.40808 128.458 11.2078C128.647 11.3652 128.647 11.6809 128.489 11.8701L125.869 15.2803C125.712 15.5012 125.364 15.5326 125.174 15.3747C123.912 14.2069 121.765 13.5119 119.65 13.5119C117.881 13.5119 116.872 14.0804 116.872 15.0277C116.872 16.1327 118.071 16.385 121.923 17.2061C125.712 18.0268 128.9 19.479 128.931 24.0881ZM96.5084 8.30294C102.854 8.30294 106.043 11.1129 106.043 17.2061V30.2762C106.043 30.5289 105.822 30.7498 105.538 30.7498H100.739C100.487 30.7498 100.266 30.5606 100.266 30.2762V27.7819C99.1605 29.5503 96.9825 31.1917 93.5723 31.1917C89.247 31.1917 86.2165 28.4134 86.2165 24.3722C86.2165 20.3945 89.1844 17.8689 93.1939 17.4901L99.1605 16.953C99.9494 16.8586 100.266 16.6059 100.266 16.0697V15.7222C100.266 14.4592 99.0656 13.5436 96.477 13.5436C94.3934 13.5436 92.2149 14.1434 91.2681 15.9118C91.1416 16.1641 90.8258 16.1958 90.6048 16.0379L87.1321 13.5119C86.9425 13.3858 86.8793 13.1018 87.0059 12.9122C88.5211 9.84999 91.9622 8.33467 96.5084 8.33467V8.30294ZM100.266 21.8467V20.9629L94.8984 21.6261C93.1304 21.8784 92.2149 22.7938 92.2149 24.0256C92.2149 25.446 93.3196 26.3614 95.3084 26.3614C98.3394 26.3614 100.297 24.246 100.266 21.8467ZM82.3014 0.504921V30.2131C82.3014 30.4971 82.0805 30.718 81.8282 30.718H76.9976C76.7454 30.718 76.4927 30.4971 76.4927 30.2131V0.504921C76.4927 0.252628 76.7137 0.0317307 76.9663 0.0317307L81.7965 0.0312881C82.0805 0.0312881 82.3014 0.252628 82.3014 0.504921ZM71.252 8.74529C71.5043 8.74529 71.7574 8.96618 71.7574 9.25021V29.2341C71.7574 34.8854 69.0736 40 59.9181 40C55.7194 40 52.8146 38.8001 50.6048 36.8743C50.447 36.7481 50.4152 36.4637 50.6997 35.9905L52.8464 32.3281C52.973 32.0758 53.32 32.0124 53.541 32.2333C55.2771 33.7803 57.2347 34.601 59.6972 34.601C64.5591 34.601 66.0743 32.1072 66.0743 28.9501V27.561C64.6534 29.6129 62.2227 30.9072 59.0974 30.9072C53.2883 30.9072 48.8682 26.9295 48.8682 19.6368C48.8682 12.312 53.5092 8.23948 58.9391 8.23948C62.2858 8.23948 64.8118 9.84999 66.043 11.8388V9.28149C66.043 9.02887 66.2639 8.77657 66.548 8.77657L71.252 8.74529ZM60.4866 25.6035C63.738 25.6035 66.1373 23.3306 66.1373 19.7313C66.1373 16.101 63.738 13.8594 60.4866 13.8594C57.2029 13.8594 54.7722 16.1958 54.7722 19.7313C54.7722 23.2675 57.2342 25.6035 60.4866 25.6035Z" fill="#0DAB40"/>
</svg>
