<svg width="101" height="100" viewBox="0 0 101 100" fill="none" xmlns="http://www.w3.org/2000/svg">
<g clip-path="url(#clip0_2090_49598)">
<path d="M50.5817 70.0676C61.8009 70.0676 70.8958 60.9726 70.8958 49.7534C70.8958 38.5342 61.8009 29.4392 50.5817 29.4392C39.3624 29.4392 30.2675 38.5342 30.2675 49.7534C30.2675 60.9726 39.3624 70.0676 50.5817 70.0676Z" fill="#4E8EF7"/>
<path d="M92.0347 15.2841C92.0356 13.9448 91.6512 12.6336 90.9274 11.5069C90.2036 10.3801 89.1709 9.48538 87.9525 8.9294C86.7342 8.37343 85.3816 8.17969 84.0561 8.3713C82.7307 8.56291 81.4884 9.13178 80.4774 10.01C70.4067 2.43085 57.8367 -1.04788 45.3023 0.275329C32.7679 1.59854 21.2014 7.62526 12.9353 17.1402C4.66917 26.6551 0.318328 38.9505 0.760123 51.5468C1.20192 64.1431 6.40348 76.1034 15.3159 85.0158C24.2283 93.9283 36.1886 99.1298 48.785 99.5716C61.3813 100.013 73.6766 95.6626 83.1915 87.3965C92.7065 79.1303 98.7332 67.5639 100.056 55.0294C101.38 42.495 97.9009 29.9251 90.3217 19.8544C91.4266 18.5882 92.0352 16.9645 92.0347 15.2841ZM50.5783 97.8345C42.9615 97.8369 35.4532 96.0297 28.6718 92.5619C21.8903 89.094 16.0297 84.0646 11.5728 77.8881C7.11592 71.7115 4.19017 64.5644 3.0366 57.0355C1.88302 49.5067 2.53461 41.8115 4.93771 34.5838C7.34081 27.3561 11.4266 20.8028 16.8587 15.4635C22.2907 10.1243 28.9135 6.15197 36.1815 3.87374C43.4495 1.59552 51.1548 1.07659 58.6626 2.3597C66.1705 3.64282 73.2661 6.69125 79.365 11.2539C78.4122 12.5983 77.9659 14.2364 78.1048 15.8783C78.2438 17.5202 78.9592 19.06 80.1243 20.2252C81.2895 21.3903 82.8293 22.1057 84.4712 22.2447C86.1131 22.3837 87.7512 21.9373 89.0956 20.9845C94.4412 28.1296 97.692 36.6219 98.4839 45.5101C99.2757 54.3984 97.5773 63.3316 93.579 71.3091C89.5806 79.2866 83.4402 85.9934 75.8455 90.6783C68.2508 95.3632 59.5017 97.8411 50.5783 97.8345Z" fill="#4E8EF7"/>
</g>
<defs>
<clipPath id="clip0_2090_49598">
<rect width="100" height="100" fill="white" transform="translate(0.5)"/>
</clipPath>
</defs>
</svg>
