<svg width="101" height="100" viewBox="0 0 101 100" fill="none" xmlns="http://www.w3.org/2000/svg">
<g clip-path="url(#clip0_2090_49545)">
<path d="M13.858 36.7603C5.40387 51.4308 10.7783 73.6941 20.1271 87.1931C24.7937 93.9419 29.5183 100 35.9894 100C36.1113 100 36.2338 99.9976 36.3589 99.9927C39.3992 99.8714 41.5963 98.9353 43.7207 98.0308C46.1058 97.0144 48.5722 95.9636 52.441 95.9636C56.1213 95.9636 58.4701 96.9804 60.742 97.9632C62.9806 98.9318 65.2865 99.9337 68.6935 99.8699C75.983 99.7341 80.4584 93.197 84.407 87.4302C88.5269 81.4089 90.5941 75.5626 91.2916 73.3287L91.3197 73.2398C91.3837 73.048 91.3746 72.8394 91.2943 72.6539C91.214 72.4684 91.068 72.3191 90.8843 72.2345C90.8736 72.2296 90.8351 72.2136 90.824 72.2089C89.5408 71.6839 78.281 66.689 78.1627 53.0746C78.0525 42.0136 86.6091 36.1562 88.3254 35.0945L88.4054 35.0447C88.4976 34.9855 88.5769 34.9083 88.6386 34.8179C88.7003 34.7274 88.7432 34.6255 88.7648 34.5181C88.7866 34.4109 88.7866 34.3003 88.765 34.193C88.7433 34.0858 88.7003 33.9839 88.6386 33.8935C82.7324 25.2502 73.6797 23.9476 70.0353 23.791C69.4959 23.7378 68.9541 23.7113 68.4121 23.7117C64.1318 23.7117 60.0308 25.3285 56.7363 26.6275C54.4623 27.5242 52.4982 28.2986 51.1431 28.2986C49.6209 28.2986 47.6455 27.5146 45.358 26.6072C42.299 25.3931 38.8318 24.0173 35.1613 24.0173C35.0738 24.0173 34.9875 24.0183 34.9027 24.0199C26.3681 24.1453 18.3039 29.0279 13.858 36.7603Z" fill="#9F9F9F"/>
<path d="M70.0421 0.000621302C64.8735 0.211168 58.6743 3.39242 54.9682 7.73285C51.819 11.3811 48.7427 17.4637 49.5534 23.5948C49.578 23.7809 49.6658 23.953 49.8021 24.0822C49.9384 24.2114 50.115 24.2898 50.3022 24.3043C50.6507 24.3315 51.0075 24.3453 51.3616 24.3457C56.4153 24.3457 61.8669 21.55 65.5895 17.0483C69.5079 12.2948 71.4891 6.19457 70.8899 0.730309C70.8434 0.301988 70.4661 -0.0159803 70.0421 0.000621302Z" fill="#9F9F9F"/>
</g>
<defs>
<clipPath id="clip0_2090_49545">
<rect width="100" height="100" fill="white" transform="translate(0.5)"/>
</clipPath>
</defs>
</svg>
