<svg width="147" height="100" viewBox="0 0 147 100" fill="none" xmlns="http://www.w3.org/2000/svg">
<path d="M91.3032 100C90.9115 100.001 90.5264 99.8998 90.1855 99.707C89.8446 99.5142 89.5597 99.2362 89.3585 98.9002L72.2419 70.3496L40.229 79.0514C39.7416 79.1687 39.229 79.1207 38.7719 78.915C38.3147 78.7093 37.9389 78.3575 37.7034 77.9149L0.294904 7.60266C0.122082 7.2806 0.0298948 6.92145 0.0262364 6.55597C0.0225779 6.19048 0.107557 5.82956 0.273897 5.5041C0.440237 5.17864 0.682981 4.89835 0.981341 4.68723C1.2797 4.4761 1.62479 4.34044 1.98705 4.29185L33.7474 0.0213214C34.1861 -0.0393495 34.633 0.0301348 35.0326 0.221153C35.4322 0.412171 35.7669 0.716313 35.9952 1.09584L74.3381 65.085L118.894 52.969L104.039 31.9837C103.824 31.6857 103.684 31.3396 103.633 30.9755C103.581 30.6114 103.62 30.2403 103.744 29.8943C103.868 29.5482 104.075 29.2378 104.347 28.9897C104.618 28.7417 104.946 28.5636 105.302 28.4709L126.149 23.5437C126.566 23.4445 127.001 23.4654 127.406 23.604C127.811 23.7426 128.168 23.9932 128.436 24.3266L146.476 46.8273C146.711 47.1204 146.87 47.4676 146.937 47.8374C147.005 48.2073 146.979 48.5881 146.862 48.9455C146.746 49.3029 146.542 49.6255 146.269 49.8843C145.996 50.143 145.663 50.3297 145.3 50.4274L126.351 55.5933L142.938 78.9665C143.141 79.2526 143.276 79.5822 143.33 79.9292C143.384 80.2763 143.357 80.6312 143.25 80.9659C143.144 81.3005 142.96 81.6057 142.715 81.8573C142.47 82.1088 142.17 82.2998 141.838 82.4151L92.0264 99.837C91.7953 99.9226 91.5518 99.9699 91.3055 99.977L91.3032 100ZM76.7742 69.1121L92.2881 94.9833L137.501 79.1548L121.709 56.8952L76.7742 69.1121ZM5.81216 8.30983L40.819 74.2046L69.8747 66.3225L32.8726 4.71202L5.81216 8.30983ZM109.705 32.11L123.601 51.7039L140.883 47.0041L125.849 28.2826L109.705 32.11Z" fill="#EF533F"/>
</svg>
