<svg width="129" height="80" viewBox="0 0 129 80" fill="none" xmlns="http://www.w3.org/2000/svg">
<path d="M63.7486 79.0634C63.3302 79.0634 62.9094 78.9589 62.5259 78.7497L58.6837 76.4787C58.1234 76.1649 58.4048 76.0604 58.5791 75.9906C59.3486 75.7117 59.488 75.6769 60.3272 75.1863C60.3969 75.1515 60.5363 75.1515 60.6061 75.2212L63.5768 76.9692C63.6814 77.039 63.8208 77.039 63.9254 76.9692L75.4546 70.3306C75.5592 70.2609 75.6289 70.1563 75.6289 70.0168V56.7395C75.6289 56.6001 75.5592 56.4955 75.4546 56.4258L63.9603 49.7871C63.8557 49.7174 63.7162 49.7174 63.6116 49.7871L52.1172 56.4258C52.0127 56.4955 51.9429 56.6001 51.9429 56.7395V70.0168C51.9429 70.1563 52.0127 70.2609 52.1172 70.3306L55.2623 72.1484C56.9755 73.0224 58.0213 72.0089 58.0213 70.9955V57.8227C58.0213 57.6484 58.1608 57.509 58.3699 57.509H59.8366C60.0109 57.509 60.1504 57.6484 60.1504 57.8227V70.9606C60.1504 73.2316 58.8929 74.5588 56.7265 74.5588C56.0616 74.5588 55.5387 74.5588 54.072 73.8242L51.0664 72.0762C50.3318 71.6578 49.8438 70.8535 49.8438 69.9795V56.7022C49.8438 55.8281 50.297 55.0263 51.0664 54.6055L62.5957 47.9668C63.3302 47.5485 64.3089 47.5485 65.0061 47.9668L76.5354 54.6055C77.2699 55.0238 77.758 55.8281 77.758 56.7022V69.9795C77.758 70.8535 77.3048 71.6553 76.5354 72.0762L65.0061 78.7148C64.5878 78.924 64.1694 79.0634 63.7486 79.0634Z" fill="#689F63"/>
<path d="M67.3138 69.9073C62.2838 69.9073 61.2355 67.6015 61.2355 65.6442C61.2355 65.4699 61.3749 65.3305 61.5841 65.3305H63.0856C63.2599 65.3305 63.3994 65.4351 63.3994 65.6094C63.6085 67.1109 64.3083 67.8803 67.3487 67.8803C69.7591 67.8803 70.8075 67.3201 70.8075 66.0277C70.8075 65.2931 70.5286 64.7353 66.7536 64.3518C63.6085 64.0381 61.6513 63.3384 61.6513 60.8234C61.6513 58.4826 63.6085 57.1205 66.893 57.1205C70.5958 57.1205 72.4136 58.4129 72.6228 61.1396C72.6228 61.2442 72.5879 61.3139 72.5182 61.3836C72.4485 61.4534 72.3787 61.4882 72.2742 61.4882H70.7726C70.6332 61.4882 70.4937 61.3836 70.4589 61.2442C70.1102 59.6381 69.2362 59.1475 66.8606 59.1475C64.2062 59.1475 63.8899 60.0564 63.8899 60.7536C63.8899 61.5928 64.2385 61.8368 67.8393 62.3249C71.3678 62.7781 73.0461 63.443 73.0461 65.958C73.0436 68.473 70.9469 69.9073 67.3138 69.9073ZM81.3232 55.8257H81.7067C82.0205 55.8257 82.0902 55.6165 82.0902 55.4771C82.0902 55.1284 81.8462 55.1284 81.7416 55.1284H81.3581L81.3232 55.8257ZM80.8352 54.7076H81.7092C81.9881 54.7076 82.5833 54.7076 82.5833 55.3725C82.5833 55.8257 82.3044 55.9328 82.1301 55.9676C82.4787 56.0025 82.4787 56.2116 82.5484 56.5254C82.5833 56.7346 82.6181 57.0832 82.6878 57.1903H82.1649C82.1649 57.0857 82.0603 56.4557 82.0603 56.4208C82.0255 56.2814 81.9906 56.2116 81.8163 56.2116H81.398V57.2251H80.9099V54.7101H80.8352V54.7076ZM79.8217 55.9651C79.8217 57.0135 80.6609 57.8178 81.6744 57.8178C82.7227 57.8178 83.527 56.9786 83.527 55.9651C83.527 54.9168 82.6878 54.1125 81.6744 54.1125C80.6584 54.115 79.8217 54.9168 79.8217 55.9651ZM83.908 55.9651C83.908 57.1878 82.8945 58.2013 81.6719 58.2013C80.4492 58.2013 79.4357 57.2226 79.4357 55.9651C79.4357 54.7076 80.4841 53.729 81.6719 53.729C82.8597 53.7639 83.908 54.7076 83.908 55.9651Z" fill="#689F63"/>
<path d="M28.0745 27.0357C28.0745 26.5128 27.7956 26.0222 27.3399 25.7433L15.1458 18.7212C14.9367 18.6166 14.6926 18.5469 14.481 18.512H14.3415C14.0975 18.512 13.8883 18.5818 13.6767 18.7212L1.48753 25.7433C1.03433 26.0222 0.752945 26.5128 0.752945 27.0357L0.787807 45.9731C0.787807 46.2519 0.927253 46.496 1.13642 46.6031C1.34559 46.7425 1.65935 46.7425 1.87101 46.6031L9.10232 42.4446C9.55552 42.1657 9.8369 41.6751 9.8369 41.1522V32.3123C9.8369 31.7893 10.1158 31.2988 10.5715 31.0199L13.6468 29.237C13.8908 29.0975 14.1348 29.0278 14.3814 29.0278C14.6279 29.0278 14.9043 29.0975 15.116 29.237L18.1912 31.0199C18.6445 31.2988 18.9258 31.7545 18.9258 32.3123V41.1522C18.9258 41.6751 19.2047 42.1657 19.6604 42.4446L26.9266 46.6031C27.1706 46.7425 27.4495 46.7425 27.6612 46.6031C27.8703 46.4636 28.0098 46.2196 28.0098 45.9731L28.0745 27.0357ZM85.6909 36.8891C85.6909 37.0285 85.6212 37.1331 85.5166 37.2029L81.3232 39.6133C81.2187 39.683 81.0792 39.683 80.9398 39.6133L76.7464 37.2029C76.6418 37.1331 76.5721 37.0285 76.5721 36.8891V32.0334C76.5721 31.8939 76.6418 31.7893 76.7464 31.7196L80.9398 29.3092C81.0444 29.2395 81.1838 29.2395 81.3232 29.3092L85.5166 31.7196C85.6212 31.7893 85.6909 31.8939 85.6909 32.0334V36.8891ZM86.8438 1.04135C86.5998 0.901906 86.3209 0.901906 86.1093 1.04135C85.8976 1.1808 85.7606 1.42483 85.7606 1.67135V20.4344C85.7606 20.6087 85.6561 20.783 85.5166 20.8876C85.3423 20.9922 85.168 20.9922 84.9937 20.8876L81.9184 19.1395C81.4652 18.8606 80.9049 18.8606 80.4517 19.1395L68.2227 26.1965C67.7695 26.4754 67.4881 26.9311 67.4881 27.454V41.5705C67.4881 42.0935 67.767 42.584 68.2227 42.8629L80.4517 49.9199C80.9049 50.1988 81.4652 50.1988 81.9184 49.9199L94.1474 42.8629C94.6006 42.584 94.882 42.1283 94.882 41.5705V6.38764C94.882 5.86471 94.6031 5.37416 94.1125 5.09527L86.8438 1.04135ZM127.512 31.9288C127.966 31.6499 128.247 31.1942 128.247 30.6713V27.2474C128.247 26.7244 127.968 26.2339 127.512 25.955L115.388 18.898C114.935 18.6191 114.375 18.6191 113.921 18.898L101.692 25.955C101.239 26.2339 100.958 26.6896 100.958 27.2474V41.329C100.958 41.8519 101.237 42.3425 101.692 42.6214L113.817 49.5389C114.27 49.7829 114.795 49.7829 115.249 49.5389L122.587 45.4501C122.831 45.3107 122.97 45.0667 122.97 44.8201C122.97 44.5412 122.831 44.2972 122.587 44.1901L110.288 37.1331C110.044 36.9937 109.905 36.7497 109.905 36.5031V32.0657C109.905 31.7869 110.044 31.5428 110.288 31.4357L114.096 29.2345C114.34 29.095 114.619 29.095 114.83 29.2345L118.638 31.4357C118.882 31.5752 119.021 31.8192 119.021 32.0657V35.5594C119.021 35.8383 119.161 36.0823 119.405 36.1894C119.649 36.3288 119.928 36.3288 120.139 36.1894L127.512 31.9288Z" fill="#404137"/>
<path d="M114.445 31.2639C114.515 31.2291 114.654 31.2291 114.724 31.2639L117.065 32.626C117.169 32.6609 117.204 32.7655 117.204 32.8701V35.5594C117.204 35.664 117.134 35.7686 117.065 35.8034L114.724 37.1655C114.619 37.2004 114.515 37.2004 114.445 37.1655L112.104 35.8034C112 35.7686 111.965 35.664 111.965 35.5594V32.8701C111.965 32.7655 112 32.6609 112.104 32.626L114.445 31.2639Z" fill="#689F63"/>
<mask id="mask0_2090_49552" style="mask-type:luminance" maskUnits="userSpaceOnUse" x="34" y="18" width="28" height="32">
<path d="M47.0444 18.9987L34.8851 26.0209C34.4319 26.2997 34.1505 26.7554 34.1505 27.2784V41.3251C34.1505 41.8481 34.4294 42.3386 34.8851 42.5826L47.0444 49.6048C47.4976 49.8488 48.0579 49.8488 48.5111 49.6048L60.6703 42.5826C61.1235 42.3037 61.4049 41.8481 61.4049 41.3251V27.2784C61.4049 26.7554 61.126 26.2649 60.6703 26.0209L48.5111 18.9987C48.267 18.8593 48.023 18.7896 47.7765 18.7896C47.53 18.7896 47.2909 18.8593 47.0444 18.9987Z" fill="white"/>
</mask>
<g mask="url(#mask0_2090_49552)">
<path d="M73.6681 24.8L39.429 8.02905L21.8886 43.8419L56.1302 60.6129L73.6681 24.8Z" fill="url(#paint0_linear_2090_49552)"/>
</g>
<mask id="mask1_2090_49552" style="mask-type:luminance" maskUnits="userSpaceOnUse" x="34" y="18" width="27" height="32">
<path d="M34.4718 42.2027C34.5764 42.3421 34.7159 42.4816 34.8902 42.5862L45.3014 48.5948L47.0494 49.6083C47.2935 49.7477 47.6097 49.8175 47.8886 49.7826C47.9932 49.7826 48.0978 49.7477 48.1675 49.7129L60.9891 26.2684C60.8845 26.1638 60.7799 26.0592 60.6405 25.9895L52.6746 21.4127L48.4812 19.0022C48.3767 18.9325 48.2372 18.8977 48.0978 18.8628L34.4718 42.2027Z" fill="white"/>
</mask>
<g mask="url(#mask1_2090_49552)">
<path d="M19.6942 29.7648L43.8384 62.4675L75.8066 38.8836L51.6275 6.146L19.6942 29.7648Z" fill="url(#paint1_linear_2090_49552)"/>
</g>
<mask id="mask2_2090_49552" style="mask-type:luminance" maskUnits="userSpaceOnUse" x="34" y="18" width="28" height="32">
<path d="M47.6445 18.7896C47.4353 18.8244 47.2261 18.8593 47.0493 18.9639L34.9249 25.9511L47.9931 49.7442C48.1674 49.7094 48.3417 49.6745 48.516 49.5699L60.6752 42.5478C61.0587 42.3386 61.3053 41.9526 61.375 41.5343L48.0628 18.8244C47.9582 18.7896 47.8536 18.7896 47.7839 18.7896C47.7142 18.7896 47.6793 18.7896 47.6445 18.7896Z" fill="white"/>
</mask>
<g mask="url(#mask2_2090_49552)">
<path d="M61.376 18.7896H34.9608V49.7467H61.376V18.7896Z" fill="url(#paint2_linear_2090_49552)"/>
</g>
<defs>
<linearGradient id="paint0_linear_2090_49552" x1="56.5562" y1="16.4142" x2="38.9995" y2="52.2297" gradientUnits="userSpaceOnUse">
<stop stop-color="#3E863D"/>
<stop offset="0.3" stop-color="#3E863D"/>
<stop offset="0.5" stop-color="#55934F"/>
<stop offset="0.8" stop-color="#5AAD45"/>
<stop offset="1" stop-color="#5AAD45"/>
</linearGradient>
<linearGradient id="paint1_linear_2090_49552" x1="31.7622" y1="46.1267" x2="63.721" y2="22.5129" gradientUnits="userSpaceOnUse">
<stop stop-color="#3E863D"/>
<stop offset="0.57" stop-color="#3E863D"/>
<stop offset="0.72" stop-color="#619857"/>
<stop offset="1" stop-color="#76AC64"/>
</linearGradient>
<linearGradient id="paint2_linear_2090_49552" x1="34.9602" y1="34.2656" x2="61.3731" y2="34.2656" gradientUnits="userSpaceOnUse">
<stop stop-color="#6BBF47"/>
<stop offset="0.16" stop-color="#6BBF47"/>
<stop offset="0.38" stop-color="#79B461"/>
<stop offset="0.47" stop-color="#75AC64"/>
<stop offset="0.7" stop-color="#659E5A"/>
<stop offset="0.9" stop-color="#3E863D"/>
<stop offset="1" stop-color="#3E863D"/>
</linearGradient>
</defs>
</svg>
