<svg width="149" height="80" viewBox="0 0 149 80" fill="none" xmlns="http://www.w3.org/2000/svg">
<path d="M74.5 79.0625C115.509 79.0625 148.753 61.5736 148.753 40C148.753 18.4264 115.509 0.9375 74.5 0.9375C33.4911 0.9375 0.246765 18.4264 0.246765 40C0.246765 61.5736 33.4911 79.0625 74.5 79.0625Z" fill="url(#paint0_radial_2090_49592)"/>
<path d="M74.5011 76.1625C113.908 76.1625 145.853 59.9725 145.853 40.0012C145.853 20.0298 113.908 3.83984 74.5011 3.83984C35.0944 3.83984 3.14905 20.0298 3.14905 40.0012C3.14905 59.9725 35.0944 76.1625 74.5011 76.1625Z" fill="#6280B6"/>
<path d="M88.9535 51.6681L92.4911 33.4549C92.9951 31.8962 93.0781 30.2319 92.7316 28.6308C92.3851 27.0296 91.6215 25.5486 90.5181 24.3377C87.4384 22.1508 83.6673 21.1609 79.9105 21.5532H73.7952L75.5508 12.5367C75.5828 12.3688 75.5774 12.1959 75.5349 12.0304C75.4924 11.8649 75.4139 11.7108 75.3049 11.579C75.196 11.4473 75.0594 11.3413 74.9048 11.2685C74.7502 11.1956 74.5814 11.1578 74.4105 11.1577H65.9244C65.6549 11.1576 65.3938 11.2512 65.1858 11.4225C64.9778 11.5938 64.8358 11.832 64.7841 12.0965L61.0237 31.4341C60.7343 29.3666 59.856 27.426 58.4938 25.8439C56.9771 24.325 55.1473 23.1551 53.1321 22.4159C51.1168 21.6766 48.9646 21.3859 46.8254 21.5638H30.4791C30.2096 21.5637 29.9485 21.6573 29.7405 21.8286C29.5325 21.9998 29.3905 22.2381 29.3388 22.5025L21.7331 61.6446C21.7011 61.8125 21.7066 61.9854 21.7491 62.1509C21.7916 62.3164 21.8701 62.4705 21.979 62.6023C22.0879 62.734 22.2245 62.84 22.3791 62.9128C22.5338 62.9857 22.7025 63.0235 22.8734 63.0236H31.3754C31.6449 63.0237 31.906 62.9301 32.114 62.7588C32.3221 62.5875 32.4641 62.3493 32.5158 62.0848L34.3562 52.6175H40.7207C43.5309 52.6926 46.3358 52.3348 49.0371 51.5568C51.3148 50.8032 53.3976 49.5553 55.1365 47.9024C56.5614 46.6044 57.7779 45.0946 58.7431 43.426L57.2209 51.2491C57.1889 51.417 57.1943 51.5899 57.2368 51.7554C57.2793 51.921 57.3578 52.0751 57.4667 52.2068C57.5756 52.3385 57.7123 52.4446 57.8669 52.5174C58.0215 52.5902 58.1903 52.628 58.3612 52.6281H66.8473C67.1167 52.6282 67.3778 52.5346 67.5859 52.3633C67.7939 52.1921 67.9359 51.9538 67.9876 51.6894L72.1617 30.2037H77.964C80.4356 30.2037 81.1463 30.6969 81.3585 30.9091C81.5706 31.1212 81.8889 31.7842 81.4911 33.9269L78.1232 51.2438C78.0912 51.4117 78.0966 51.5846 78.1391 51.7501C78.1816 51.9157 78.2601 52.0698 78.369 52.2015C78.4779 52.3332 78.6146 52.4393 78.7692 52.5121C78.9238 52.5849 79.0926 52.6227 79.2635 52.6228H87.8556C88.12 52.6125 88.3729 52.5123 88.5726 52.3387C88.7722 52.1651 88.9066 51.9285 88.9535 51.6681ZM49.7319 36.6372C49.4725 38.8639 48.4155 40.9213 46.7565 42.4289C44.6725 43.7252 42.2288 44.3217 39.782 44.1314H36.0057L38.7371 30.0711H43.6219C47.2126 30.0711 48.6552 30.8401 49.2386 31.4819C49.6837 32.2563 49.9579 33.117 50.043 34.0062C50.1281 34.8953 50.022 35.7924 49.7319 36.6372ZM125.131 25.8492C123.614 24.3303 121.784 23.1604 119.769 22.4212C117.754 21.682 115.602 21.3912 113.462 21.5691H97.0683C96.7989 21.569 96.5378 21.6626 96.3297 21.8339C96.1217 22.0051 95.9797 22.2434 95.928 22.5078L88.3224 61.6499C88.2904 61.8178 88.2958 61.9907 88.3383 62.1562C88.3808 62.3217 88.4593 62.4759 88.5682 62.6076C88.6771 62.7393 88.8138 62.8453 88.9684 62.9182C89.123 62.991 89.2918 63.0288 89.4627 63.0289H97.9912C98.2607 63.029 98.5218 62.9354 98.7298 62.7641C98.9378 62.5928 99.0798 62.3546 99.1315 62.0901L100.972 52.6228H107.336C110.147 52.6979 112.952 52.3401 115.653 51.5621C117.931 50.8085 120.013 49.5606 121.752 47.9077C124.73 45.224 126.737 41.6305 127.459 37.6873C128.03 35.6701 128.116 33.5466 127.712 31.4896C127.307 29.4326 126.423 27.5001 125.131 25.8492ZM116.289 36.6372C116.03 38.8639 114.973 40.9213 113.314 42.4289C111.225 43.7267 108.775 44.3214 106.323 44.1261H102.558L105.289 30.0658H110.174C113.765 30.0658 115.207 30.8348 115.791 31.4766C116.237 32.2513 116.513 33.1127 116.599 34.0029C116.685 34.893 116.579 35.7913 116.289 36.6372Z" fill="white"/>
<path d="M43.6204 28.9034C44.7647 28.7593 45.9263 28.8436 47.0379 29.1513C48.1494 29.459 49.189 29.9841 50.0963 30.6961C50.6818 31.5975 51.0552 32.62 51.1884 33.6866C51.3216 34.7532 51.2112 35.8361 50.8654 36.8538C50.5622 39.3598 49.3507 41.6676 47.4603 43.3404C45.1804 44.8088 42.4854 45.4975 39.7804 45.3028H34.5933L37.7756 28.9193L43.6204 28.9034ZM22.8454 61.8718H31.3739L33.3947 51.4658H40.698C43.3862 51.5392 46.0696 51.1975 48.6537 50.4528C50.7744 49.7525 52.7129 48.5894 54.3288 47.0477C57.1257 44.5317 59.0096 41.1593 59.6856 37.4584C60.2208 35.6181 60.3148 33.6775 59.9601 31.794C59.6053 29.9104 58.8117 28.137 57.6436 26.6175C56.2352 25.2243 54.5398 24.1552 52.6756 23.4847C50.8115 22.8142 48.8236 22.5583 46.8504 22.7351H30.4776L22.8454 61.8718ZM65.9441 12.3237H74.4302L72.3776 22.7298H79.9143C83.3758 22.3675 86.8535 23.2473 89.7263 25.212C90.6772 26.2928 91.3272 27.6045 91.6111 29.0158C91.895 30.427 91.8029 31.8881 91.344 33.2525L87.8064 51.4658H79.2195L82.5874 34.1489C82.822 33.4879 82.9056 32.7828 82.8322 32.0853C82.7588 31.3878 82.5302 30.7156 82.1631 30.118C80.9349 29.2381 79.4178 28.8589 77.9201 29.0572H71.1577L66.798 51.4817H58.3119L65.9441 12.3237ZM110.178 28.9034C111.322 28.7593 112.484 28.8436 113.595 29.1513C114.707 29.459 115.746 29.9841 116.654 30.6961C117.239 31.5975 117.613 32.62 117.746 33.6866C117.879 34.7532 117.769 35.8361 117.423 36.8538C117.12 39.3598 115.908 41.6676 114.018 43.3404C111.733 44.8122 109.032 45.501 106.322 45.3028H101.135L104.317 28.9193L110.178 28.9034ZM89.4028 61.8718H97.9313L99.9521 51.4658H107.255C109.944 51.5392 112.627 51.1975 115.211 50.4528C117.332 49.7525 119.27 48.5894 120.886 47.0477C123.683 44.5317 125.567 41.1593 126.243 37.4584C126.778 35.6181 126.872 33.6775 126.517 31.794C126.163 29.9104 125.369 28.137 124.201 26.6175C122.793 25.2243 121.097 24.1552 119.233 23.4847C117.369 22.8142 115.381 22.5583 113.408 22.7351H97.0084L89.4028 61.8718Z" fill="#000004"/>
<defs>
<radialGradient id="paint0_radial_2090_49592" cx="0" cy="0" r="1" gradientUnits="userSpaceOnUse" gradientTransform="translate(44.8305 14.6743) scale(97.5051 97.5051)">
<stop stop-color="white"/>
<stop offset="0.5" stop-color="#4C6B96"/>
<stop offset="1" stop-color="#231F20"/>
</radialGradient>
</defs>
</svg>
