<svg width="101" height="100" viewBox="0 0 101 100" fill="none" xmlns="http://www.w3.org/2000/svg">
<g clip-path="url(#clip0_2090_49619)">
<path d="M26.377 13.7992C26.377 7.06906 28.2229 3.40782 38.4145 1.66439C45.3338 0.478727 54.2055 0.330519 62.481 1.66439C69.0173 2.71914 74.5186 7.4791 74.5186 13.7992V36.0033C74.5186 42.5156 69.1774 47.8501 62.481 47.8501H38.4145C30.2467 47.8501 23.3628 54.6588 23.3628 62.3563V73.0095H15.0878C8.08821 73.0095 4.01286 68.0751 2.30087 61.1706C-0.00841314 51.8947 0.0896176 46.368 2.30087 37.4844C4.21802 29.7346 10.3439 25.6455 17.344 25.6455H50.4521V22.6813H26.3765V13.7987L26.377 13.7992Z" fill="url(#paint0_linear_2090_49619)"/>
<path d="M74.5166 84.8587C74.5166 91.5888 68.5423 94.9976 62.4791 96.6976C53.3572 99.2606 46.0362 98.8683 38.4126 96.6976C32.0456 94.8845 26.375 91.1793 26.375 84.8587V62.6546C26.375 56.2643 31.8233 50.8078 38.4126 50.8078H62.4791C70.4954 50.8078 77.5308 44.0347 77.5308 36.0052V25.6484H86.5547C93.5634 25.6484 96.8631 30.7394 98.5922 37.4873C101 46.859 101.107 53.8678 98.5922 61.1735C96.1582 68.2697 93.5543 73.0124 86.5547 73.0124H50.4501V75.9766H74.5166V84.8587Z" fill="url(#paint1_linear_2090_49619)"/>
<path d="M32.3984 12.3252C32.3984 9.86688 34.4136 7.87891 36.9109 7.87891C39.3985 7.87891 41.4233 9.86638 41.4233 12.3252C41.4233 14.7755 39.399 16.7625 36.9109 16.7625C34.4146 16.7625 32.3984 14.775 32.3984 12.3252ZM59.4781 86.3296C59.4781 83.8792 61.5024 81.8922 63.9906 81.8922C66.4868 81.8922 68.503 83.8797 68.503 86.3296C68.503 88.7879 66.4878 90.7758 63.9906 90.7758C61.5029 90.7758 59.4781 88.7883 59.4781 86.3296Z" fill="white"/>
</g>
<defs>
<linearGradient id="paint0_linear_2090_49619" x1="74.5191" y1="28.8216" x2="0.60626" y2="28.2205" gradientUnits="userSpaceOnUse">
<stop stop-color="#366A96"/>
<stop offset="1" stop-color="#3679B0"/>
</linearGradient>
<linearGradient id="paint1_linear_2090_49619" x1="100.438" y1="62.0623" x2="-45.8746" y2="62.0623" gradientUnits="userSpaceOnUse">
<stop stop-color="#FFC836"/>
<stop offset="1" stop-color="#FFE873"/>
</linearGradient>
<clipPath id="clip0_2090_49619">
<rect width="100" height="100" fill="white" transform="translate(0.5)"/>
</clipPath>
</defs>
</svg>
