<svg width="101" height="100" viewBox="0 0 101 100" fill="none" xmlns="http://www.w3.org/2000/svg">
<g clip-path="url(#clip0_2090_49577)">
<path d="M86.9854 23.07C83.2596 17.2352 75.2484 14.8115 64.4535 16.2029C64.072 16.2473 63.6681 16.3151 63.2866 16.3595C63.1297 16.0011 62.9728 15.6416 62.7931 15.2832C58.1479 5.43065 51.7967 0 44.8846 0C37.9726 0 31.5992 5.43088 26.976 15.2832C26.8189 15.6416 26.6394 16.0011 26.4823 16.3595C26.0783 16.2931 25.6968 16.2473 25.3155 16.2026C14.4989 14.7888 6.50942 17.2354 2.78365 23.0702C-0.941211 28.9051 0.202865 37.1856 5.99281 46.3867C6.77214 47.6257 7.60337 48.8313 8.48428 50.0002C7.58662 51.2116 6.7565 52.4013 5.99304 53.6127C0.202864 62.8137 -0.941211 71.1171 2.78365 76.9302C5.81328 81.6876 11.6937 84.1789 19.6149 84.1789C21.5135 84.1685 23.4098 84.0413 25.2926 83.7967C25.6741 83.752 26.0781 83.6845 26.4596 83.6398C26.6174 83.9993 26.7742 84.3579 26.954 84.7172C31.5994 94.5687 37.9504 100 44.8618 100C51.7738 100 58.1479 94.5687 62.7702 84.7172C62.9273 84.3577 63.1068 83.9991 63.2639 83.64C63.6679 83.7074 64.0494 83.7522 64.4315 83.7967C66.3132 84.0516 68.2098 84.1793 70.1086 84.1791C78.0305 84.1791 83.9102 81.6876 86.9398 76.9302C90.6654 71.0954 89.5206 62.8137 83.7314 53.6127C82.9518 52.3742 82.1206 51.169 81.2399 50.0002C82.1376 48.7877 82.9679 47.599 83.7314 46.3867C89.5882 37.1638 90.7332 28.882 86.9854 23.07ZM31.0384 17.1908C34.8306 9.11176 39.8799 4.48833 44.8844 4.48833C49.8889 4.48833 54.9385 9.11176 58.7309 17.1908C58.7336 17.2077 58.7415 17.2233 58.7536 17.2354C53.9869 18.382 49.3365 19.9669 44.8618 21.9699C40.3912 19.9568 35.74 18.3716 30.9706 17.2354C31.0155 17.2354 31.0155 17.2125 31.0381 17.1905L31.0384 17.1908ZM65.1048 50.0002C65.1057 53.5909 64.9111 57.1798 64.5209 60.7493C61.7237 63.0065 58.8017 65.1044 55.7686 67.033C52.2684 69.2809 48.625 71.2977 44.8618 73.0705C41.1058 71.2839 37.4635 69.2676 33.9556 67.033C30.926 65.0992 28.0043 63.0015 25.2033 60.7493C24.4249 53.6041 24.4249 46.3955 25.2033 39.2502C31.2522 34.3893 37.8501 30.2544 44.862 26.93C48.6183 28.7158 52.2608 30.7318 55.7688 32.9663C58.7984 34.9001 61.7201 36.9978 64.5211 39.25C64.9111 42.8201 65.106 46.4089 65.105 50.0002H65.1048ZM69.3907 43.4693C71.5884 45.5161 73.6571 47.6973 75.5848 50.0002C73.6568 52.3026 71.5882 54.4833 69.3907 56.5301C69.5256 54.3763 69.5931 52.1997 69.5931 50.0002C69.5931 47.8007 69.5258 45.6241 69.3907 43.4693ZM63.6005 67.1234C62.892 71.009 61.8637 74.8295 60.526 78.5458C57.0406 77.7586 53.6199 76.7083 50.2933 75.4039C52.9937 73.9843 55.6362 72.4572 58.2145 70.8263C60.0554 69.6367 61.8508 68.4024 63.6005 67.1234ZM39.4758 75.4039C36.155 76.7252 32.7329 77.7759 29.2428 78.5458C27.9052 74.8295 26.877 71.009 26.1685 67.1234C27.8965 68.4024 29.6919 69.6367 31.5545 70.8034C34.1802 72.4865 36.8283 74.0126 39.4758 75.4039ZM20.3781 56.5301C18.1809 54.4831 16.1122 52.3024 14.184 50.0002C16.112 47.6975 18.1807 45.5164 20.3781 43.4693C20.2433 45.6241 20.1757 47.8007 20.1757 50.0002C20.1757 52.1997 20.243 54.3763 20.3781 56.5301ZM26.1685 32.877C26.8768 28.9913 27.9052 25.1709 29.243 21.4547C32.7287 22.2409 36.1495 23.2912 39.4758 24.5965C36.7754 26.0161 34.1328 27.5432 31.5545 29.1741C29.7241 30.3565 27.928 31.5913 26.1685 32.877ZM58.1928 29.1741C55.5891 27.5139 52.9407 25.965 50.2704 24.5965C53.5914 23.2751 57.0139 22.2244 60.5043 21.4547C61.8413 25.1711 62.8696 28.9915 63.5788 32.877C61.8508 31.5978 60.0554 30.3636 58.1928 29.1741ZM9.78612 43.9856C5.02782 36.4448 3.86108 29.6903 6.55408 25.4713C8.7087 22.105 13.3768 20.2868 19.6824 20.2868C21.3707 20.294 23.0574 20.4071 24.7318 20.6234H24.7765C22.9611 25.902 21.6978 31.3545 21.0069 36.8936C17.5487 39.7789 14.3289 42.9386 11.379 46.342C10.818 45.5794 10.2796 44.794 9.78612 43.9856ZM24.7098 79.3541C23.0354 79.5714 21.3489 79.6838 19.6604 79.6908C13.3539 79.6908 8.68603 77.8954 6.53208 74.5063C3.83909 70.2873 5.00605 63.5328 9.76323 55.9919C10.2569 55.2065 10.796 54.3981 11.357 53.6127C14.3061 57.0164 17.5256 60.1762 20.9841 63.061C21.6755 68.6001 22.939 74.0526 24.7545 79.3312C24.7545 79.3541 24.7318 79.3541 24.7098 79.3541ZM58.7309 82.8097C54.9385 90.8887 49.8891 95.5121 44.8844 95.5121C39.8797 95.5121 34.8306 90.8887 31.0381 82.8097C31.0355 82.7927 31.0276 82.777 31.0155 82.7648C35.7823 81.6184 40.4327 80.0332 44.9073 78.0296C49.3776 80.0433 54.0287 81.6288 58.7982 82.7648C58.7536 82.7648 58.7536 82.7868 58.7309 82.8097ZM79.9829 56.0148C84.7412 63.5545 85.908 70.3099 83.215 74.5292C80.522 78.7473 73.9017 80.5209 65.0592 79.3541H65.0144C66.83 74.0756 68.0936 68.623 68.7848 63.0839C72.2432 60.1989 75.4628 57.0391 78.4122 53.6355C78.9513 54.421 79.4894 55.2065 79.9832 56.0148H79.9829ZM68.7621 36.9165C68.0714 31.3774 66.8082 25.9248 64.9926 20.6463H65.0375C73.879 19.5013 80.4993 21.2522 83.1923 25.4713C85.8853 29.6903 84.7184 36.4448 79.9609 43.9856C79.4675 44.7711 78.9284 45.5794 78.3674 46.3649C75.4317 42.9559 72.219 39.7956 68.7621 36.9165Z" fill="#00EFD1"/>
<path d="M44.8852 41.113C39.9772 41.113 35.998 45.0919 35.998 49.9999C35.998 54.9083 39.977 58.8864 44.8852 58.8864C49.7936 58.8864 53.7725 54.9083 53.7725 50.0001C53.7689 45.0928 49.7918 41.1166 44.8852 41.113ZM44.8852 54.398C42.4561 54.398 40.4864 52.4292 40.4864 50.0001C40.4864 47.571 42.4561 45.6011 44.8852 45.6011C47.3143 45.6011 49.2842 47.571 49.2842 50.0001C49.2797 52.4274 47.3127 54.3947 44.8852 54.398Z" fill="#00EFD1"/>
</g>
<defs>
<clipPath id="clip0_2090_49577">
<rect width="100" height="100" fill="white" transform="translate(0.5)"/>
</clipPath>
</defs>
</svg>
