<svg width="101" height="86" viewBox="0 0 101 86" fill="none" xmlns="http://www.w3.org/2000/svg">
<path d="M62.7194 0.169343C62.7194 0.169343 84.9222 12.8618 90.7327 33.0254C95.9683 51.2391 91.7756 59.9316 91.7756 59.9316C94.4531 62.849 96.5629 66.2402 97.9968 69.9313C99.437 72.3029 100.283 74.9872 100.464 77.7559C100.644 80.5247 100.153 83.296 99.0325 85.8344C99.0325 85.8344 98.6753 78.406 87.6043 76.8668C77.4582 75.4383 73.769 85.3165 54.3911 84.838C43.6543 84.6334 33.1305 81.8055 23.7372 76.6009C14.3439 71.3964 6.36636 63.9731 0.5 54.9782C9.96754 60.1424 22.3707 68.16 37.8166 66.9278C53.2625 65.6957 56.4874 60.9495 56.4874 60.9495C39.1255 47.2106 23.7575 31.125 10.8247 13.1546C22.9671 23.315 53.0447 43.5358 52.3447 43.0215C41.3429 32.2713 31.2771 20.6033 22.2564 8.14408C22.2564 8.14408 67.3835 45.2464 71.0155 45.0107C72.5083 41.9358 80.2259 26.0185 62.7158 0.165771L62.7194 0.169343Z" fill="url(#paint0_linear_2090_49550)"/>
<defs>
<linearGradient id="paint0_linear_2090_49550" x1="52.0697" y1="34.4539" x2="50.1818" y2="85.8773" gradientUnits="userSpaceOnUse">
<stop stop-color="#F88535"/>
<stop offset="1" stop-color="#FD2221"/>
</linearGradient>
</defs>
</svg>
