<svg width="101" height="100" viewBox="0 0 101 100" fill="none" xmlns="http://www.w3.org/2000/svg">
<path d="M7.5625 50C7.5625 67.0312 17.3438 81.7031 31.625 88.5875L11.3687 32.6094C9.01562 38.0438 7.5625 43.8438 7.5625 50ZM79.4844 47.825C79.4844 42.575 77.4906 38.7625 75.8594 36.05C73.6844 32.425 71.6937 29.5281 71.6937 25.9062C71.6937 21.9219 74.775 18.2969 78.9437 18.2969H79.4875C71.875 11.2313 61.7313 7.0625 50.5 7.0625C43.3942 7.12541 36.4114 8.92446 30.1598 12.303C23.9082 15.6815 18.5773 20.5371 14.6312 26.4469H17.35C21.8813 26.4469 28.7625 25.9031 28.7625 25.9031C31.1187 25.7219 31.3 29.1625 29.125 29.5281C29.125 29.5281 26.7687 29.8906 24.2344 29.8906L39.8156 76.2656L49.2344 48.1844L42.5312 29.8875L38 29.5312C35.6437 29.35 36.0062 25.9062 38.1812 25.9062C38.1812 25.9062 45.2438 26.45 49.4125 26.45C53.9438 26.45 60.825 25.9062 60.825 25.9062C63.1813 25.725 63.3625 29.1656 61.1875 29.5312C61.1875 29.5312 58.8312 29.8937 56.2969 29.8937L71.875 76.0938L76.25 61.7812C78.0625 55.8031 79.5094 51.6375 79.5094 47.8312L79.4844 47.825ZM51.225 53.8031L38.3625 91.125C42.1656 92.2125 46.3312 92.9375 50.5 92.9375C55.5719 92.9375 60.2812 92 64.8125 90.5813C64.6312 90.4 64.6312 90.2188 64.45 90.0375L51.225 53.8031ZM88.1813 29.5312L88.5437 33.9062C88.5437 38.2812 87.8187 43.1469 85.2844 49.3063L72.2406 87.1687C84.9219 79.7406 93.6156 65.9719 93.6156 50.0312C93.4344 42.6031 91.4406 35.7188 88.1781 29.5625L88.1813 29.5312ZM50.5 0C22.9625 0 0.5 22.4625 0.5 50C0.5 77.5375 22.9625 100 50.5 100C78.0375 100 100.5 77.5375 100.5 50C100.5 22.4625 78.0375 0 50.5 0ZM50.5 97.825C24.2312 97.825 2.85625 76.45 2.85625 50C2.87608 37.3702 7.90205 25.2633 16.8327 16.3327C25.7633 7.40205 37.8702 2.37608 50.5 2.35625C63.1298 2.37608 75.2367 7.40205 84.1673 16.3327C93.0979 25.2633 98.1239 37.3702 98.1438 50C98.1438 76.45 76.7688 97.825 50.5 97.825Z" fill="#00749A"/>
</svg>
