<svg xmlns="http://www.w3.org/2000/svg" fill="none" viewBox="379.33 210 640.07 746.33">
<g filter="url(#filter0_i_13_137)">
<path d="M380.914 760.141C379.71 756.961 380.842 755.371 384.311 755.371H395.801C399.029 755.371 401.245 757.033 402.449 760.357L424.562 820.699C425.671 823.783 426.321 825.854 426.514 826.914C426.706 827.926 426.923 829.636 427.164 832.045H427.453C427.694 829.636 427.911 827.926 428.104 826.914C428.296 825.854 428.947 823.783 430.055 820.699L452.168 760.357C453.372 757.033 455.589 755.371 458.816 755.371H470.307C473.775 755.371 474.908 756.961 473.703 760.141L439.16 853.146C437.715 857.049 435.451 859 432.367 859H422.25C419.167 859 416.902 857.049 415.457 853.146L380.914 760.141ZM493.105 859C489.733 859 488.046 857.193 488.046 853.58V760.791C488.046 757.178 489.733 755.371 493.105 755.371H504.089C507.462 755.371 509.148 757.178 509.148 760.791V853.58C509.148 857.193 507.462 859 504.089 859H493.105ZM538.812 859C535.439 859 533.753 857.193 533.753 853.58V760.791C533.753 757.178 535.439 755.371 538.812 755.371H549.796C553.168 755.371 554.855 757.178 554.855 760.791V789.553C554.855 792.443 554.734 795.334 554.493 798.225H554.999L590.12 759.635C592.722 756.792 594.938 755.371 596.769 755.371H611.294C616.931 755.371 617.846 757.443 614.04 761.586L581.159 797.574L616.353 852.785C619.002 856.928 618.087 859 613.606 859H600.093C597.588 859 595.42 857.579 593.589 854.736L566.995 813.039L554.855 826.697V853.58C554.855 857.193 553.168 859 549.796 859H538.812ZM630.407 859C626.938 859 625.806 857.41 627.01 854.23L662.42 761.225C663.914 757.322 666.178 755.371 669.213 755.371H679.331C682.366 755.371 684.63 757.322 686.124 761.225L721.534 854.23C722.738 857.41 721.606 859 718.137 859H706.647C703.467 859 701.251 857.338 699.999 854.014L692.628 834.574H655.917L648.545 854.014C647.293 857.338 645.077 859 641.897 859H630.407ZM662.637 816.652H685.907L677.018 793.672C675.958 790.974 675.308 789.023 675.067 787.818C674.874 786.566 674.657 784.735 674.417 782.326H674.128C673.887 784.735 673.646 786.566 673.405 787.818C673.212 789.023 672.586 790.974 671.526 793.672L662.637 816.652ZM740.936 859C737.563 859 735.877 857.193 735.877 853.58V760.791C735.877 757.178 737.563 755.371 740.936 755.371H774.395C789.281 755.371 800.145 757.684 806.986 762.309C813.828 766.885 817.248 774.353 817.248 784.711C817.248 792.419 814.478 798.562 808.938 803.139C803.397 807.715 796.363 810.751 787.836 812.244V812.389C792.461 814.123 795.954 816.532 798.315 819.615C800.675 822.699 802.602 825.396 804.096 827.709L819.994 852.785C822.644 856.928 821.729 859 817.248 859H804.674C802.024 859 799.856 857.579 798.17 854.736L783.572 830.383C781.983 827.781 779.068 824.939 774.828 821.855C770.637 818.724 766.469 817.158 762.326 817.158H756.979V853.58C756.979 857.193 755.292 859 751.92 859H740.936ZM756.979 799.236H769.914C779.55 799.236 786.391 798.152 790.438 795.984C794.533 793.768 796.58 790.275 796.58 785.506C796.58 780.303 794.605 776.93 790.654 775.389C786.752 773.799 780.995 773.004 773.383 773.004H756.979V799.236ZM836.867 773.871C833.254 773.871 831.447 772.305 831.447 769.174V760.068C831.447 756.937 833.254 755.371 836.867 755.371H911.156C914.769 755.371 916.576 756.937 916.576 760.068V769.174C916.576 772.305 914.769 773.871 911.156 773.871H884.562V855.025C884.562 857.675 883.358 859 880.949 859H867.074C864.665 859 863.461 857.675 863.461 855.025V773.871H836.867ZM937.134 859C933.762 859 932.075 857.193 932.075 853.58V760.791C932.075 757.178 933.762 755.371 937.134 755.371H970.593C985.48 755.371 996.344 757.684 1003.18 762.309C1010.03 766.885 1013.45 774.353 1013.45 784.711C1013.45 792.419 1010.68 798.562 1005.14 803.139C999.595 807.715 992.562 810.751 984.034 812.244V812.389C988.659 814.123 992.152 816.532 994.513 819.615C996.873 822.699 998.801 825.396 1000.29 827.709L1016.19 852.785C1018.84 856.928 1017.93 859 1013.45 859H1000.87C998.222 859 996.054 857.579 994.368 854.736L979.771 830.383C978.181 827.781 975.266 824.939 971.026 821.855C966.835 818.724 962.668 817.158 958.525 817.158H953.177V853.58C953.177 857.193 951.491 859 948.118 859H937.134ZM953.177 799.236H966.112C975.748 799.236 982.589 798.152 986.636 795.984C990.731 793.768 992.778 790.275 992.778 785.506C992.778 780.303 990.803 776.93 986.853 775.389C982.95 773.799 977.193 773.004 969.581 773.004H953.177V799.236Z" fill="url(#paint0_linear_13_137)"/>
</g>
<g filter="url(#filter1_i_13_137)">
<path d="M382.258 908.984C380.305 908.984 379.328 908.138 379.328 906.445V901.523C379.328 899.831 380.305 898.984 382.258 898.984H422.414C424.367 898.984 425.344 899.831 425.344 901.523V906.445C425.344 908.138 424.367 908.984 422.414 908.984H408.039V952.852C408.039 954.284 407.388 955 406.086 955H398.586C397.284 955 396.633 954.284 396.633 952.852V908.984H382.258ZM438.056 955C436.233 955 435.322 954.023 435.322 952.07V901.914C435.322 899.961 436.233 898.984 438.056 898.984H471.572C473.525 898.984 474.502 899.831 474.502 901.523V906.133C474.502 907.826 473.525 908.672 471.572 908.672H446.728V921.094H469.502C471.455 921.094 472.431 921.94 472.431 923.633V928.242C472.431 929.935 471.455 930.781 469.502 930.781H446.728V945.312H472.822C474.775 945.312 475.752 946.159 475.752 947.852V952.461C475.752 954.154 474.775 955 472.822 955H438.056ZM484.831 926.992C484.831 918.008 487.11 910.872 491.667 905.586C496.224 900.299 502.8 897.656 511.394 897.656C516.342 897.656 520.534 898.424 523.972 899.961C527.409 901.497 529.831 903.724 531.238 906.641C532.175 908.568 532.019 909.87 530.769 910.547L526.081 913.047C524.441 913.932 523.086 913.438 522.019 911.562C521.342 910.365 520.079 909.284 518.23 908.32C516.407 907.357 514.258 906.875 511.784 906.875C506.316 906.875 502.488 908.607 500.3 912.07C498.113 915.508 497.019 920.482 497.019 926.992C497.019 933.503 498.113 938.49 500.3 941.953C502.488 945.391 506.316 947.109 511.784 947.109C514.727 947.109 517.201 946.445 519.206 945.117C521.238 943.789 522.644 942.526 523.425 941.328C524.701 939.375 526.055 938.88 527.488 939.844L532.175 942.969C533.451 943.828 533.581 945.13 532.566 946.875C531.055 949.479 528.464 951.706 524.792 953.555C521.12 955.404 516.654 956.328 511.394 956.328C502.93 956.328 496.381 953.685 491.745 948.398C487.136 943.112 484.831 935.977 484.831 926.992ZM548.247 955C546.424 955 545.512 954.023 545.512 952.07V901.914C545.512 899.961 546.424 898.984 548.247 898.984H554.184C556.007 898.984 556.919 899.961 556.919 901.914V921.016H577.934V901.914C577.934 899.961 578.846 898.984 580.669 898.984H586.606C588.429 898.984 589.341 899.961 589.341 901.914V952.07C589.341 954.023 588.429 955 586.606 955H580.669C578.846 955 577.934 954.023 577.934 952.07V930.703H556.919V952.07C556.919 954.023 556.007 955 554.184 955H548.247ZM606.975 955C605.152 955 604.241 954.023 604.241 952.07V901.914C604.241 899.961 605.152 898.984 606.975 898.984H612.756C614.996 898.984 616.689 899.896 617.834 901.719L637.756 933.711H638.03C637.899 932.148 637.834 930.586 637.834 929.023V901.914C637.834 899.961 638.746 898.984 640.569 898.984H646.506C648.329 898.984 649.241 899.961 649.241 901.914V952.07C649.241 954.023 648.329 955 646.506 955H641.116C638.876 955 637.183 954.089 636.038 952.266L615.725 919.688H615.452C615.582 921.25 615.647 922.812 615.647 924.375V952.07C615.647 954.023 614.735 955 612.913 955H606.975ZM661.25 926.992C661.25 918.008 663.568 910.872 668.203 905.586C672.839 900.299 679.453 897.656 688.047 897.656C696.641 897.656 703.255 900.299 707.891 905.586C712.526 910.872 714.844 918.008 714.844 926.992C714.844 935.977 712.526 943.112 707.891 948.398C703.255 953.685 696.641 956.328 688.047 956.328C679.453 956.328 672.839 953.685 668.203 948.398C663.568 943.112 661.25 935.977 661.25 926.992ZM673.438 926.992C673.438 933.503 674.596 938.49 676.914 941.953C679.258 945.391 682.969 947.109 688.047 947.109C693.125 947.109 696.823 945.391 699.141 941.953C701.484 938.49 702.656 933.503 702.656 926.992C702.656 920.482 701.484 915.508 699.141 912.07C696.823 908.607 693.125 906.875 688.047 906.875C682.969 906.875 679.258 908.607 676.914 912.07C674.596 915.508 673.438 920.482 673.438 926.992ZM729.587 955C727.765 955 726.853 954.023 726.853 952.07V901.914C726.853 899.961 727.765 898.984 729.587 898.984H735.916C737.478 898.984 738.259 899.961 738.259 901.914V945.312H761.033C762.986 945.312 763.962 946.159 763.962 947.852V952.461C763.962 954.154 762.986 955 761.033 955H729.587ZM771.753 926.992C771.753 918.008 774.071 910.872 778.706 905.586C783.342 900.299 789.956 897.656 798.55 897.656C807.144 897.656 813.758 900.299 818.394 905.586C823.029 910.872 825.347 918.008 825.347 926.992C825.347 935.977 823.029 943.112 818.394 948.398C813.758 953.685 807.144 956.328 798.55 956.328C789.956 956.328 783.342 953.685 778.706 948.398C774.071 943.112 771.753 935.977 771.753 926.992ZM783.941 926.992C783.941 933.503 785.099 938.49 787.417 941.953C789.761 945.391 793.472 947.109 798.55 947.109C803.628 947.109 807.326 945.391 809.644 941.953C811.987 938.49 813.159 933.503 813.159 926.992C813.159 920.482 811.987 915.508 809.644 912.07C807.326 908.607 803.628 906.875 798.55 906.875C793.472 906.875 789.761 908.607 787.417 912.07C785.099 915.508 783.941 920.482 783.941 926.992ZM834.466 926.992C834.466 918.008 836.809 910.872 841.497 905.586C846.184 900.299 852.825 897.656 861.419 897.656C866.601 897.656 870.664 898.32 873.606 899.648C876.575 900.977 879.179 903.034 881.419 905.82C882.773 907.513 882.734 908.828 881.302 909.766L876.848 912.656C875.546 913.516 874.153 913.138 872.669 911.523C871.445 910.195 869.895 909.089 868.02 908.203C866.145 907.318 864.075 906.875 861.809 906.875C856.341 906.875 852.447 908.607 850.13 912.07C847.812 915.508 846.653 920.482 846.653 926.992C846.653 933.503 847.812 938.49 850.13 941.953C852.447 945.391 856.341 947.109 861.809 947.109C864.466 947.109 866.757 946.849 868.684 946.328C870.611 945.781 872.434 944.805 874.153 943.398V936.406H865.677C863.723 936.406 862.747 935.56 862.747 933.867V929.258C862.747 927.565 863.723 926.719 865.677 926.719H882.63C884.583 926.719 885.559 927.565 885.559 929.258V949.102C881.914 951.784 878.229 953.659 874.505 954.727C870.807 955.794 866.445 956.328 861.419 956.328C852.955 956.328 846.341 953.685 841.575 948.398C836.835 943.112 834.466 935.977 834.466 926.992ZM901.319 955C899.496 955 898.584 954.023 898.584 952.07V901.914C898.584 899.961 899.496 898.984 901.319 898.984H907.256C909.079 898.984 909.991 899.961 909.991 901.914V952.07C909.991 954.023 909.079 955 907.256 955H901.319ZM927.625 955C925.802 955 924.891 954.023 924.891 952.07V901.914C924.891 899.961 925.802 898.984 927.625 898.984H961.141C963.094 898.984 964.07 899.831 964.07 901.523V906.133C964.07 907.826 963.094 908.672 961.141 908.672H936.297V921.094H959.07C961.023 921.094 962 921.94 962 923.633V928.242C962 929.935 961.023 930.781 959.07 930.781H936.297V945.312H962.391C964.344 945.312 965.32 946.159 965.32 947.852V952.461C965.32 954.154 964.344 955 962.391 955H927.625ZM977.955 950.82C976.34 949.596 975.95 948.359 976.783 947.109L979.791 942.578C980.78 941.094 982.226 941.016 984.127 942.344C985.585 943.359 987.486 944.414 989.83 945.508C992.2 946.576 994.686 947.109 997.291 947.109C999.114 947.109 1000.87 946.901 1002.56 946.484C1004.26 946.068 1005.55 945.26 1006.43 944.062C1007.32 942.865 1007.76 941.445 1007.76 939.805C1007.76 938.633 1007.56 937.604 1007.17 936.719C1006.78 935.833 1006.14 935.104 1005.26 934.531C1004.37 933.958 1003.46 933.477 1002.53 933.086C1000.88 932.409 998.814 931.745 996.314 931.094C993.84 930.417 991.392 929.609 988.97 928.672C986.809 927.839 984.83 926.693 983.033 925.234C981.236 923.776 979.843 922.135 978.853 920.312C977.864 918.49 977.369 916.055 977.369 913.008C977.369 909.388 978.541 906.289 980.884 903.711C983.228 901.133 985.923 899.479 988.97 898.75C992.017 898.021 995.09 897.656 998.189 897.656C1001.26 897.656 1004.43 898.125 1007.68 899.062C1010.96 900 1013.44 901.172 1015.1 902.578C1016.74 903.958 1017.15 905.208 1016.31 906.328L1013.15 910.586C1012.08 912.044 1010.65 912.161 1008.85 910.938C1007.71 910.156 1006.13 909.284 1004.13 908.32C1002.15 907.357 1000.08 906.875 997.916 906.875C996.379 906.875 994.96 907.005 993.658 907.266C992.382 907.526 991.249 908.151 990.259 909.141C989.27 910.13 988.775 911.354 988.775 912.812C988.775 914.219 989.14 915.365 989.869 916.25C990.598 917.109 991.405 917.76 992.291 918.203C993.176 918.62 994.075 918.971 994.986 919.258C997.798 920.169 1000.31 920.977 1002.53 921.68C1004.74 922.357 1006.78 923.112 1008.66 923.945C1011.26 925.117 1013.25 926.289 1014.63 927.461C1016.01 928.633 1017.15 930.234 1018.03 932.266C1018.94 934.297 1019.4 936.719 1019.4 939.531C1019.4 943.698 1018.07 947.148 1015.42 949.883C1012.76 952.591 1009.8 954.336 1006.55 955.117C1003.32 955.924 1000.17 956.328 997.095 956.328C992.564 956.328 988.879 955.885 986.041 955C983.202 954.141 980.507 952.747 977.955 950.82Z" fill="url(#paint1_linear_13_137)"/>
</g>
<g filter="url(#filter2_ii_13_137)">
<path d="M623.47 210L406.879 210C403.811 210 401.838 213.23 403.357 215.895C493.595 374.28 652.267 646.498 673.6 690.066C695.2 734.18 712.343 697.851 700 651.142C687.657 604.433 678.905 573.293 673.6 557.724C655.032 503.23 671.2 485.065 683.2 461.71L752.8 348.83L799.641 269.063C800.359 267.84 801.671 267.089 803.09 267.089H961.793C963.167 267.089 964.444 266.384 965.177 265.223L996.132 216.134C997.812 213.47 995.898 210 992.749 210H745.538C744.093 210 742.761 210.778 742.053 212.036L619.383 429.756C617.876 432.432 614.04 432.481 612.465 429.845L518.817 273.141C517.223 270.475 519.144 267.089 522.25 267.089H582.501C583.924 267.089 585.241 267.846 585.957 269.076L622.038 331.036C623.604 333.725 627.506 333.674 629.002 330.945L662.83 269.224C663.549 267.912 663.476 266.31 662.641 265.069L626.789 211.768C626.046 210.663 624.801 210 623.47 210Z" fill="url(#paint2_linear_13_137)"/>
</g>
<g filter="url(#filter3_ii_13_137)">
<path d="M759.211 396.151L722.009 478.963C721.74 479.562 721.623 480.218 721.667 480.872L727.922 573.297C728.188 577.228 733.376 578.447 735.365 575.047L802.02 461.131C802.749 459.886 802.751 458.344 802.025 457.098L766.316 395.777C764.678 392.964 760.545 393.181 759.211 396.151Z" fill="url(#paint3_linear_13_137)"/>
</g>
<defs>
<filter id="filter0_i_13_137" x="379.107" y="755.371" width="643.06" height="105.629" filterUnits="userSpaceOnUse" color-interpolation-filters="sRGB">
<feFlood flood-opacity="0" result="BackgroundImageFix"/>
<feBlend mode="normal" in="SourceGraphic" in2="BackgroundImageFix" result="shape"/>
<feColorMatrix in="SourceAlpha" type="matrix" values="0 0 0 0 0 0 0 0 0 0 0 0 0 0 0 0 0 0 127 0" result="hardAlpha"/>
<feOffset dx="2" dy="2"/>
<feGaussianBlur stdDeviation="2"/>
<feComposite in2="hardAlpha" operator="arithmetic" k2="-1" k3="1"/>
<feColorMatrix type="matrix" values="0 0 0 0 0 0 0 0 0 0 0 0 0 0 0 0 0 0 0.15 0"/>
<feBlend mode="normal" in2="shape" result="effect1_innerShadow_13_137"/>
</filter>
<filter id="filter1_i_13_137" x="379.328" y="897.656" width="641.072" height="59.6719" filterUnits="userSpaceOnUse" color-interpolation-filters="sRGB">
<feFlood flood-opacity="0" result="BackgroundImageFix"/>
<feBlend mode="normal" in="SourceGraphic" in2="BackgroundImageFix" result="shape"/>
<feColorMatrix in="SourceAlpha" type="matrix" values="0 0 0 0 0 0 0 0 0 0 0 0 0 0 0 0 0 0 127 0" result="hardAlpha"/>
<feOffset dx="1" dy="1"/>
<feGaussianBlur stdDeviation="1"/>
<feComposite in2="hardAlpha" operator="arithmetic" k2="-1" k3="1"/>
<feColorMatrix type="matrix" values="0 0 0 0 0 0 0 0 0 0 0 0 0 0 0 0 0 0 0.15 0"/>
<feBlend mode="normal" in2="shape" result="effect1_innerShadow_13_137"/>
</filter>
<filter id="filter2_ii_13_137" x="400.834" y="208" width="597.921" height="504" filterUnits="userSpaceOnUse" color-interpolation-filters="sRGB">
<feFlood flood-opacity="0" result="BackgroundImageFix"/>
<feBlend mode="normal" in="SourceGraphic" in2="BackgroundImageFix" result="shape"/>
<feColorMatrix in="SourceAlpha" type="matrix" values="0 0 0 0 0 0 0 0 0 0 0 0 0 0 0 0 0 0 127 0" result="hardAlpha"/>
<feOffset dx="2" dy="2"/>
<feGaussianBlur stdDeviation="2"/>
<feComposite in2="hardAlpha" operator="arithmetic" k2="-1" k3="1"/>
<feColorMatrix type="matrix" values="0 0 0 0 0 0 0 0 0 0 0 0 0 0 0 0 0 0 0.25 0"/>
<feBlend mode="normal" in2="shape" result="effect1_innerShadow_13_137"/>
<feColorMatrix in="SourceAlpha" type="matrix" values="0 0 0 0 0 0 0 0 0 0 0 0 0 0 0 0 0 0 127 0" result="hardAlpha"/>
<feOffset dx="-2" dy="-2"/>
<feGaussianBlur stdDeviation="2"/>
<feComposite in2="hardAlpha" operator="arithmetic" k2="-1" k3="1"/>
<feColorMatrix type="matrix" values="0 0 0 0 0 0 0 0 0 0 0 0 0 0 0 0 0 0 0.25 0"/>
<feBlend mode="normal" in2="effect1_innerShadow_13_137" result="effect2_innerShadow_13_137"/>
</filter>
<filter id="filter3_ii_13_137" x="719.658" y="391.79" width="84.9102" height="187.243" filterUnits="userSpaceOnUse" color-interpolation-filters="sRGB">
<feFlood flood-opacity="0" result="BackgroundImageFix"/>
<feBlend mode="normal" in="SourceGraphic" in2="BackgroundImageFix" result="shape"/>
<feColorMatrix in="SourceAlpha" type="matrix" values="0 0 0 0 0 0 0 0 0 0 0 0 0 0 0 0 0 0 127 0" result="hardAlpha"/>
<feOffset dx="2" dy="2"/>
<feGaussianBlur stdDeviation="2"/>
<feComposite in2="hardAlpha" operator="arithmetic" k2="-1" k3="1"/>
<feColorMatrix type="matrix" values="0 0 0 0 0 0 0 0 0 0 0 0 0 0 0 0 0 0 0.25 0"/>
<feBlend mode="normal" in2="shape" result="effect1_innerShadow_13_137"/>
<feColorMatrix in="SourceAlpha" type="matrix" values="0 0 0 0 0 0 0 0 0 0 0 0 0 0 0 0 0 0 127 0" result="hardAlpha"/>
<feOffset dx="-2" dy="-2"/>
<feGaussianBlur stdDeviation="2"/>
<feComposite in2="hardAlpha" operator="arithmetic" k2="-1" k3="1"/>
<feColorMatrix type="matrix" values="0 0 0 0 0 0 0 0 0 0 0 0 0 0 0 0 0 0 0.25 0"/>
<feBlend mode="normal" in2="effect1_innerShadow_13_137" result="effect2_innerShadow_13_137"/>
</filter>
<linearGradient id="paint0_linear_13_137" x1="376" y1="816" x2="1024" y2="816" gradientUnits="userSpaceOnUse">
<stop stop-color="#009FFF"/>
<stop offset="1" stop-color="#CB3066"/>
</linearGradient>
<linearGradient id="paint1_linear_13_137" x1="378" y1="932" x2="1023" y2="932" gradientUnits="userSpaceOnUse">
<stop stop-color="#009FFF"/>
<stop offset="1" stop-color="#CB3066"/>
</linearGradient>
<linearGradient id="paint2_linear_13_137" x1="700" y1="210" x2="700" y2="710" gradientUnits="userSpaceOnUse">
<stop stop-color="#009FFF"/>
<stop offset="1" stop-color="#CB3066"/>
</linearGradient>
<linearGradient id="paint3_linear_13_137" x1="762.4" y1="389.052" x2="762.4" y2="586.268" gradientUnits="userSpaceOnUse">
<stop stop-color="#009FFF"/>
<stop offset="1" stop-color="#CB3066"/>
</linearGradient>
</defs>
</svg>