<svg width="209" height="40" viewBox="0 0 209 40" fill="none" xmlns="http://www.w3.org/2000/svg">
<path d="M14.9364 6.45153L14.9362 6.45164C14.6335 6.60347 14.36 6.77584 14.1661 6.93409C14.069 7.01326 13.9924 7.08851 13.9419 7.15552C13.8909 7.22325 13.8688 7.27963 13.8751 7.32195L13.8753 7.32192V7.32408C13.8753 7.38608 13.8789 7.43139 13.8857 7.4604C13.8892 7.47504 13.8931 7.48414 13.8968 7.48909C13.9 7.49334 13.9016 7.49313 13.9024 7.49304C13.9024 7.49303 13.9024 7.49303 13.9024 7.49303C13.9048 7.49275 13.91 7.49062 13.9183 7.48225C13.9262 7.4742 13.9355 7.46193 13.946 7.44487C13.9671 7.41088 13.992 7.35996 14.0207 7.29124C14.0509 7.20464 14.1187 7.13265 14.1979 7.09651C14.2773 7.06031 14.3695 7.05973 14.4466 7.11835C14.5163 7.15819 14.5755 7.16273 14.6161 7.14178C14.6564 7.12099 14.6841 7.07208 14.6841 6.99207C14.6841 6.94746 14.6978 6.90955 14.7227 6.87954C14.7474 6.84967 14.7826 6.82845 14.8244 6.81571C14.9077 6.79032 15.0193 6.79797 15.1368 6.84014L15.1368 6.84007L15.1381 6.84071C15.2511 6.89482 15.3555 6.9008 15.4305 6.87468C15.5049 6.84874 15.5508 6.79141 15.5508 6.7154C15.5508 6.5392 15.7045 6.42328 15.8853 6.45213L15.8853 6.45197L15.8874 6.45264C15.969 6.47869 16.0658 6.45946 16.15 6.40904C16.2341 6.35869 16.3037 6.2784 16.3313 6.1856L16.3313 6.18559L16.3316 6.18473C16.3531 6.12644 16.3667 6.077 16.3719 6.03631C16.3772 5.99544 16.3738 5.96492 16.363 5.94329C16.3525 5.92238 16.3342 5.90797 16.3051 5.90076C16.2754 5.8934 16.2348 5.89372 16.1816 5.90307C16.0751 5.92177 15.923 5.97561 15.7173 6.06676C15.5119 6.15778 15.254 6.28558 14.9364 6.45153Z" fill="#EC6B15" stroke="#4A4A4A" stroke-width="0.0288876"/>
<mask id="path-2-inside-1_1702_11949" fill="white">
<path d="M23.6572 6.68985C23.9461 6.88352 23.975 6.96653 23.7439 6.99419C23.5417 7.02186 23.2528 7.07719 23.0795 7.10486C22.935 7.13253 22.675 7.18786 22.5017 7.21553C22.3573 7.21553 22.2417 7.38153 22.2995 7.54753C22.415 8.12854 21.6928 8.10088 21.4906 7.51987C21.404 7.21553 21.2018 7.02186 21.0573 7.10486C20.9129 7.18786 20.7395 7.07719 20.6818 6.91119C20.5951 6.71752 20.5084 6.88352 20.5084 7.29853C20.4796 7.79654 20.6529 8.10088 21.0573 8.21155C21.6062 8.37755 21.6062 8.43288 20.8551 9.20756C20.2773 9.78857 19.8151 10.0099 19.2952 9.95457C18.8618 9.92691 18.2841 10.0652 17.9952 10.2866C17.533 10.6463 17.5041 10.6463 17.7063 10.2866C17.8219 10.0652 17.7063 10.1206 17.4463 10.4249C17.1864 10.7293 16.753 10.9229 16.4931 10.8953C16.1753 10.8123 16.2619 10.9783 16.7819 11.3656C17.6197 12.0019 18.1685 12.1126 18.1685 11.6146C18.1685 11.3933 18.313 11.4486 18.5441 11.6976C18.7174 11.9189 19.0929 12.2233 19.324 12.3616C19.6418 12.5553 19.6418 12.4999 19.2952 12.1956C18.9485 11.8913 18.8907 11.6423 19.0641 11.3656C19.2374 11.0889 19.324 11.0889 19.324 11.3103C19.324 11.5039 19.4974 11.6699 19.7285 11.6699C19.9596 11.6699 20.1907 11.8083 20.2485 12.0019C20.3929 12.3616 21.3462 12.583 21.3462 12.2509C21.3462 12.1126 21.6062 11.7529 21.8951 11.4209C22.415 10.8676 22.4728 10.8399 22.5884 11.3103C22.7039 11.7806 22.7328 11.7806 22.7617 11.3103C22.8195 10.6186 23.3394 10.7293 23.6572 11.5593C23.8305 11.9466 23.9461 12.3893 23.9461 12.5276C23.9461 12.915 23.1372 12.832 22.9928 12.4169C22.8772 12.1403 22.8195 12.1403 22.8195 12.4169C22.7906 12.6106 22.5595 12.7766 22.2995 12.8043C22.0106 12.8043 22.2128 12.9426 22.7328 13.081C23.5705 13.33 24.0616 14.16 23.3394 14.16C23.195 14.16 23.1083 14.2706 23.2239 14.409C23.3106 14.5473 23.0795 14.7687 22.7328 14.8793C22.3573 14.99 22.0395 14.9347 21.9817 14.7687C21.9239 14.575 21.5773 14.575 20.9707 14.741C19.9885 15.0177 19.0352 14.8517 19.0352 14.409C19.0352 14.243 18.9196 14.1876 18.7752 14.2983C18.6307 14.3813 18.4285 14.326 18.313 14.16C18.2263 14.0216 18.2841 13.8833 18.4574 13.8833C18.6307 13.8833 18.6885 13.745 18.6019 13.6066C18.313 13.1916 17.0997 13.2746 16.8975 13.745C16.6953 14.243 15.9731 14.2983 15.7709 13.8003C15.6553 13.6066 15.5398 13.7173 15.4242 14.077C15.3087 14.4366 15.1064 14.7133 14.962 14.7133C14.8176 14.7133 14.7309 14.8793 14.7598 15.0453C14.8176 15.239 14.6731 15.3773 14.4709 15.322C14.2398 15.2943 14.1531 15.3773 14.2398 15.5157C14.3554 15.654 14.2109 15.986 13.922 16.235C13.5754 16.5947 13.5465 16.7607 13.8065 16.9267C14.0087 17.0374 14.1243 17.4247 14.0954 17.7844C13.9798 18.642 14.9042 19.5551 15.9442 19.5551C16.3775 19.5827 16.7242 19.4721 16.7242 19.3614C16.7242 19.2507 16.9264 19.1401 17.1575 19.1401C17.3886 19.1401 17.5908 19.2507 17.5908 19.3891C17.5908 19.5274 17.8797 19.5827 18.2263 19.4721C18.6596 19.3614 18.7752 19.4167 18.6307 19.6657C18.4863 19.8594 18.6885 20.5511 19.0641 21.2428C19.7285 22.4324 19.7285 22.5154 19.2374 22.7644C18.7463 23.0411 18.7463 23.0965 19.1796 23.5668C19.4685 23.8711 19.584 24.2861 19.4974 24.6181C19.0929 25.7802 20.7107 25.0332 21.5195 23.6775C21.6928 23.4008 21.8951 23.2071 21.9528 23.2901C22.2417 23.5945 22.9928 22.5708 22.8484 22.1004C22.7617 21.7684 22.9061 21.4641 23.195 21.2981C23.455 21.1598 23.5994 20.9108 23.4839 20.7724C23.3972 20.6341 23.4261 20.5511 23.5705 20.5787C23.6861 20.6341 24.1483 20.3297 24.5527 19.9147C25.3327 19.1954 25.2171 18.5867 24.3216 18.5867C24.1194 18.5867 23.9461 18.4207 23.9461 18.1994C23.9461 17.978 23.8305 17.7567 23.6572 17.7014C23.5128 17.646 23.3394 17.314 23.3106 16.9267C23.2528 16.5393 23.0506 16.069 22.8484 15.8753C22.3284 15.3497 22.7039 14.9347 23.3683 15.322C23.6572 15.5157 23.8305 15.7647 23.7728 15.8753C23.6861 15.986 23.7439 16.0967 23.8883 16.0967C24.2639 16.0967 24.8994 17.646 24.6683 18.0057C24.5816 18.1717 24.6394 18.31 24.7838 18.31C24.9572 18.31 25.1016 18.1717 25.1016 18.0057C25.1016 17.8674 25.246 17.812 25.3905 17.895C25.5638 17.978 25.6794 17.9504 25.6794 17.812C25.6794 17.6737 25.9393 17.48 26.286 17.397C26.6326 17.314 26.806 17.1204 26.6904 16.9544C26.6038 16.7884 26.6904 16.65 26.8926 16.65C27.1526 16.65 27.1526 16.567 26.8349 16.3733C26.4593 16.1243 26.4593 16.069 26.8349 15.82C27.4704 15.4327 28.1348 15.6263 28.0481 16.1797C27.9904 16.4287 28.1059 16.65 28.2793 16.65C28.4237 16.65 28.5681 16.899 28.5681 17.231C28.5681 17.812 28.5681 17.812 29.1459 17.1757C29.637 16.5947 29.6947 16.5947 29.5214 17.065C29.4348 17.3694 29.4636 17.5354 29.5792 17.397C29.9259 17.1204 29.9836 14.4643 29.6659 14.2706C29.5214 14.1876 29.4925 13.8833 29.5792 13.579C29.6947 13.2746 29.637 13.0533 29.4348 13.0533C29.2325 13.0533 29.1459 12.8596 29.2614 12.6383C29.3481 12.4169 29.2903 12.2233 29.117 12.2233C28.9437 12.2233 28.857 12.0296 28.9726 11.8083C29.0592 11.5869 28.9726 11.3933 28.7992 11.3933C28.6259 11.3933 28.5392 11.3103 28.6259 11.2273C28.7126 11.1443 28.4815 10.7569 28.1059 10.3696C27.7304 9.98224 27.4415 9.5949 27.4993 9.48423C27.5282 9.40123 27.0371 8.82022 26.4304 8.21155C25.7949 7.60287 25.3905 7.29853 25.506 7.51987C25.6216 7.74121 25.4771 7.6582 25.1594 7.3262C24.8416 6.99419 24.5238 6.80052 24.4083 6.88352C24.3216 6.99419 24.235 6.91119 24.235 6.74519C24.235 6.55152 24.0039 6.41318 23.7439 6.41318C23.3106 6.41318 23.2817 6.46852 23.6572 6.68985ZM25.506 11.1719C25.6794 11.3656 25.8816 12.0849 25.9105 12.7766C25.9682 13.6896 25.9105 13.911 25.7082 13.6066C25.5349 13.3853 25.3905 13.3023 25.3905 13.4683C25.3905 13.6066 25.246 13.5236 25.0727 13.247C24.9283 12.998 24.8705 12.6383 24.9572 12.4999C25.0438 12.3339 24.986 12.2233 24.8416 12.2233C24.495 12.2233 24.4083 11.3103 24.7261 11.0336C24.986 10.7569 25.1016 10.7846 25.506 11.1719ZM25.8816 14.6303C25.766 14.7133 25.9105 14.9347 26.1704 15.1283C26.5171 15.3773 26.546 15.571 26.3149 15.986C26.1127 16.2903 25.9682 16.3457 25.9682 16.152C25.9682 15.9583 25.8238 15.8753 25.6216 15.986C25.4194 16.0967 25.3905 16.069 25.506 15.8753C25.6216 15.6817 25.5927 15.5433 25.4483 15.5433C25.2749 15.5433 25.2171 15.2943 25.3038 14.99C25.3905 14.6857 25.5927 14.4366 25.766 14.4366C25.9393 14.4366 25.9682 14.5196 25.8816 14.6303Z"/>
</mask>
<path d="M23.6572 6.68985C23.9461 6.88352 23.975 6.96653 23.7439 6.99419C23.5417 7.02186 23.2528 7.07719 23.0795 7.10486C22.935 7.13253 22.675 7.18786 22.5017 7.21553C22.3573 7.21553 22.2417 7.38153 22.2995 7.54753C22.415 8.12854 21.6928 8.10088 21.4906 7.51987C21.404 7.21553 21.2018 7.02186 21.0573 7.10486C20.9129 7.18786 20.7395 7.07719 20.6818 6.91119C20.5951 6.71752 20.5084 6.88352 20.5084 7.29853C20.4796 7.79654 20.6529 8.10088 21.0573 8.21155C21.6062 8.37755 21.6062 8.43288 20.8551 9.20756C20.2773 9.78857 19.8151 10.0099 19.2952 9.95457C18.8618 9.92691 18.2841 10.0652 17.9952 10.2866C17.533 10.6463 17.5041 10.6463 17.7063 10.2866C17.8219 10.0652 17.7063 10.1206 17.4463 10.4249C17.1864 10.7293 16.753 10.9229 16.4931 10.8953C16.1753 10.8123 16.2619 10.9783 16.7819 11.3656C17.6197 12.0019 18.1685 12.1126 18.1685 11.6146C18.1685 11.3933 18.313 11.4486 18.5441 11.6976C18.7174 11.9189 19.0929 12.2233 19.324 12.3616C19.6418 12.5553 19.6418 12.4999 19.2952 12.1956C18.9485 11.8913 18.8907 11.6423 19.0641 11.3656C19.2374 11.0889 19.324 11.0889 19.324 11.3103C19.324 11.5039 19.4974 11.6699 19.7285 11.6699C19.9596 11.6699 20.1907 11.8083 20.2485 12.0019C20.3929 12.3616 21.3462 12.583 21.3462 12.2509C21.3462 12.1126 21.6062 11.7529 21.8951 11.4209C22.415 10.8676 22.4728 10.8399 22.5884 11.3103C22.7039 11.7806 22.7328 11.7806 22.7617 11.3103C22.8195 10.6186 23.3394 10.7293 23.6572 11.5593C23.8305 11.9466 23.9461 12.3893 23.9461 12.5276C23.9461 12.915 23.1372 12.832 22.9928 12.4169C22.8772 12.1403 22.8195 12.1403 22.8195 12.4169C22.7906 12.6106 22.5595 12.7766 22.2995 12.8043C22.0106 12.8043 22.2128 12.9426 22.7328 13.081C23.5705 13.33 24.0616 14.16 23.3394 14.16C23.195 14.16 23.1083 14.2706 23.2239 14.409C23.3106 14.5473 23.0795 14.7687 22.7328 14.8793C22.3573 14.99 22.0395 14.9347 21.9817 14.7687C21.9239 14.575 21.5773 14.575 20.9707 14.741C19.9885 15.0177 19.0352 14.8517 19.0352 14.409C19.0352 14.243 18.9196 14.1876 18.7752 14.2983C18.6307 14.3813 18.4285 14.326 18.313 14.16C18.2263 14.0216 18.2841 13.8833 18.4574 13.8833C18.6307 13.8833 18.6885 13.745 18.6019 13.6066C18.313 13.1916 17.0997 13.2746 16.8975 13.745C16.6953 14.243 15.9731 14.2983 15.7709 13.8003C15.6553 13.6066 15.5398 13.7173 15.4242 14.077C15.3087 14.4366 15.1064 14.7133 14.962 14.7133C14.8176 14.7133 14.7309 14.8793 14.7598 15.0453C14.8176 15.239 14.6731 15.3773 14.4709 15.322C14.2398 15.2943 14.1531 15.3773 14.2398 15.5157C14.3554 15.654 14.2109 15.986 13.922 16.235C13.5754 16.5947 13.5465 16.7607 13.8065 16.9267C14.0087 17.0374 14.1243 17.4247 14.0954 17.7844C13.9798 18.642 14.9042 19.5551 15.9442 19.5551C16.3775 19.5827 16.7242 19.4721 16.7242 19.3614C16.7242 19.2507 16.9264 19.1401 17.1575 19.1401C17.3886 19.1401 17.5908 19.2507 17.5908 19.3891C17.5908 19.5274 17.8797 19.5827 18.2263 19.4721C18.6596 19.3614 18.7752 19.4167 18.6307 19.6657C18.4863 19.8594 18.6885 20.5511 19.0641 21.2428C19.7285 22.4324 19.7285 22.5154 19.2374 22.7644C18.7463 23.0411 18.7463 23.0965 19.1796 23.5668C19.4685 23.8711 19.584 24.2861 19.4974 24.6181C19.0929 25.7802 20.7107 25.0332 21.5195 23.6775C21.6928 23.4008 21.8951 23.2071 21.9528 23.2901C22.2417 23.5945 22.9928 22.5708 22.8484 22.1004C22.7617 21.7684 22.9061 21.4641 23.195 21.2981C23.455 21.1598 23.5994 20.9108 23.4839 20.7724C23.3972 20.6341 23.4261 20.5511 23.5705 20.5787C23.6861 20.6341 24.1483 20.3297 24.5527 19.9147C25.3327 19.1954 25.2171 18.5867 24.3216 18.5867C24.1194 18.5867 23.9461 18.4207 23.9461 18.1994C23.9461 17.978 23.8305 17.7567 23.6572 17.7014C23.5128 17.646 23.3394 17.314 23.3106 16.9267C23.2528 16.5393 23.0506 16.069 22.8484 15.8753C22.3284 15.3497 22.7039 14.9347 23.3683 15.322C23.6572 15.5157 23.8305 15.7647 23.7728 15.8753C23.6861 15.986 23.7439 16.0967 23.8883 16.0967C24.2639 16.0967 24.8994 17.646 24.6683 18.0057C24.5816 18.1717 24.6394 18.31 24.7838 18.31C24.9572 18.31 25.1016 18.1717 25.1016 18.0057C25.1016 17.8674 25.246 17.812 25.3905 17.895C25.5638 17.978 25.6794 17.9504 25.6794 17.812C25.6794 17.6737 25.9393 17.48 26.286 17.397C26.6326 17.314 26.806 17.1204 26.6904 16.9544C26.6038 16.7884 26.6904 16.65 26.8926 16.65C27.1526 16.65 27.1526 16.567 26.8349 16.3733C26.4593 16.1243 26.4593 16.069 26.8349 15.82C27.4704 15.4327 28.1348 15.6263 28.0481 16.1797C27.9904 16.4287 28.1059 16.65 28.2793 16.65C28.4237 16.65 28.5681 16.899 28.5681 17.231C28.5681 17.812 28.5681 17.812 29.1459 17.1757C29.637 16.5947 29.6947 16.5947 29.5214 17.065C29.4348 17.3694 29.4636 17.5354 29.5792 17.397C29.9259 17.1204 29.9836 14.4643 29.6659 14.2706C29.5214 14.1876 29.4925 13.8833 29.5792 13.579C29.6947 13.2746 29.637 13.0533 29.4348 13.0533C29.2325 13.0533 29.1459 12.8596 29.2614 12.6383C29.3481 12.4169 29.2903 12.2233 29.117 12.2233C28.9437 12.2233 28.857 12.0296 28.9726 11.8083C29.0592 11.5869 28.9726 11.3933 28.7992 11.3933C28.6259 11.3933 28.5392 11.3103 28.6259 11.2273C28.7126 11.1443 28.4815 10.7569 28.1059 10.3696C27.7304 9.98224 27.4415 9.5949 27.4993 9.48423C27.5282 9.40123 27.0371 8.82022 26.4304 8.21155C25.7949 7.60287 25.3905 7.29853 25.506 7.51987C25.6216 7.74121 25.4771 7.6582 25.1594 7.3262C24.8416 6.99419 24.5238 6.80052 24.4083 6.88352C24.3216 6.99419 24.235 6.91119 24.235 6.74519C24.235 6.55152 24.0039 6.41318 23.7439 6.41318C23.3106 6.41318 23.2817 6.46852 23.6572 6.68985ZM25.506 11.1719C25.6794 11.3656 25.8816 12.0849 25.9105 12.7766C25.9682 13.6896 25.9105 13.911 25.7082 13.6066C25.5349 13.3853 25.3905 13.3023 25.3905 13.4683C25.3905 13.6066 25.246 13.5236 25.0727 13.247C24.9283 12.998 24.8705 12.6383 24.9572 12.4999C25.0438 12.3339 24.986 12.2233 24.8416 12.2233C24.495 12.2233 24.4083 11.3103 24.7261 11.0336C24.986 10.7569 25.1016 10.7846 25.506 11.1719ZM25.8816 14.6303C25.766 14.7133 25.9105 14.9347 26.1704 15.1283C26.5171 15.3773 26.546 15.571 26.3149 15.986C26.1127 16.2903 25.9682 16.3457 25.9682 16.152C25.9682 15.9583 25.8238 15.8753 25.6216 15.986C25.4194 16.0967 25.3905 16.069 25.506 15.8753C25.6216 15.6817 25.5927 15.5433 25.4483 15.5433C25.2749 15.5433 25.2171 15.2943 25.3038 14.99C25.3905 14.6857 25.5927 14.4366 25.766 14.4366C25.9393 14.4366 25.9682 14.5196 25.8816 14.6303Z" fill="#EC6B15" stroke="#4A4A4A" stroke-width="0.0577752" mask="url(#path-2-inside-1_1702_11949)"/>
<path d="M19.3079 7.10545H19.3087L19.3071 7.1102C19.2931 7.15031 19.2788 7.22508 19.2643 7.31187C19.2582 7.34864 19.252 7.38753 19.2458 7.4265C19.2376 7.47854 19.2293 7.53071 19.221 7.57809C19.191 7.77872 19.0106 7.92404 18.7992 7.86656C18.6844 7.84602 18.603 7.84668 18.5526 7.86476C18.5278 7.87367 18.5115 7.88649 18.5019 7.90228C18.4923 7.91808 18.4884 7.93858 18.4917 7.96477C18.4984 8.01795 18.5344 8.09065 18.6027 8.18232C18.6706 8.27352 18.7693 8.38184 18.899 8.50604L18.899 8.50602L18.8996 8.50664C19.0145 8.63047 19.1207 8.70435 19.1965 8.72745C19.2346 8.73904 19.262 8.73701 19.2794 8.72603C19.2961 8.71545 19.3079 8.69367 19.3079 8.65481C19.3079 8.35043 19.3222 8.16801 19.392 7.99911C19.4617 7.83056 19.5861 7.67665 19.8025 7.42797L19.8025 7.42793L19.8034 7.42702C19.9118 7.32326 19.9925 7.24244 20.0462 7.17951C20.073 7.14805 20.0927 7.12146 20.1056 7.09905C20.1186 7.07641 20.124 7.05937 20.124 7.04665C20.124 7.035 20.1195 7.02591 20.1092 7.0179C20.0982 7.00933 20.0804 7.00202 20.0541 6.99636C20.0017 6.98506 19.9219 6.98156 19.8134 6.98156C19.6697 6.98156 19.541 6.99533 19.4487 7.01914C19.4024 7.03107 19.3662 7.0453 19.3419 7.06096C19.3171 7.07688 19.3079 7.09211 19.3079 7.10545Z" fill="#EC6B15" stroke="#4A4A4A" stroke-width="0.0288876"/>
<path d="M16.2351 11.9064L16.2351 11.9064L16.2348 11.9064C16.0491 11.9338 15.8854 12.0021 15.7684 12.0904C15.651 12.179 15.5827 12.2859 15.5827 12.3901C15.5827 12.6178 15.4334 12.7919 15.2216 12.7919C15.1537 12.7919 15.1042 12.7979 15.0706 12.808C15.0364 12.8182 15.022 12.8316 15.0176 12.8434C15.0134 12.8548 15.0164 12.871 15.0331 12.8927C15.0494 12.9141 15.0768 12.9379 15.1141 12.9625C15.2633 13.0612 15.5568 13.1643 15.8578 13.178L15.8578 13.178L15.8584 13.1781C16.017 13.1919 16.1455 13.1917 16.223 13.1782C16.2423 13.1749 16.258 13.1708 16.27 13.1661C16.2822 13.1613 16.2894 13.1563 16.293 13.152C16.2961 13.1484 16.2967 13.1453 16.2958 13.1415C16.2946 13.1366 16.2905 13.1294 16.2805 13.1199C16.2692 13.1091 16.2656 13.0939 16.2664 13.0781C16.2672 13.0623 16.2724 13.0441 16.2808 13.0243C16.2978 12.9846 16.3293 12.935 16.373 12.8792C16.4605 12.7675 16.5986 12.6284 16.7726 12.4895L16.7726 12.4895C16.9383 12.3584 17.0468 12.2456 17.1018 12.1532C17.1293 12.107 17.1429 12.0669 17.1444 12.0328C17.1459 11.9992 17.1357 11.9707 17.1139 11.9468C17.0919 11.9225 17.0572 11.9022 17.0088 11.8869C16.9605 11.8717 16.8994 11.8618 16.8255 11.8577C16.6776 11.8496 16.4801 11.865 16.2351 11.9064Z" fill="#EC6B15" stroke="#4A4A4A" stroke-width="0.0288876"/>
<path d="M13.1549 24.5108L13.155 24.5108C13.1767 24.6217 13.1871 24.7011 13.1832 24.7498C13.1813 24.7745 13.1758 24.7881 13.1695 24.7946C13.1645 24.7998 13.1564 24.8028 13.1405 24.7984C13.1241 24.7939 13.1021 24.7822 13.0735 24.7616C13.0452 24.7413 13.0115 24.7129 12.9718 24.6764C12.8923 24.6033 12.7898 24.4982 12.6599 24.36C12.6598 24.3599 12.6598 24.3599 12.6597 24.3598L12.6492 24.3697C12.3314 24.01 12.1581 23.8994 12.2737 24.1207C12.3892 24.342 11.9848 24.0377 11.3493 23.429L13.1549 24.5108ZM13.1549 24.5108L13.1548 24.5094C13.1262 24.208 12.983 23.8236 12.8686 23.6312M13.1549 24.5108L12.8803 23.6227M11.3594 23.4187C11.0562 23.1145 10.7821 22.8243 10.5873 22.6033C10.4899 22.4927 10.4126 22.3997 10.3615 22.331C10.3359 22.2966 10.3172 22.2687 10.3058 22.248C10.3001 22.2375 10.2966 22.2295 10.2948 22.2236C10.2937 22.2198 10.2936 22.218 10.2936 22.2175C10.297 22.2104 10.2972 22.2021 10.2965 22.1946C10.2958 22.1863 10.2937 22.1766 10.2906 22.1657C10.2844 22.144 10.2736 22.1159 10.2589 22.0826C10.2292 22.0159 10.183 21.9263 10.1233 21.8207C10.0039 21.6093 9.83036 21.3323 9.62799 21.0416C9.44049 20.7515 9.26744 20.4545 9.14132 20.2129C9.07823 20.0921 9.02698 19.9853 8.99154 19.9002C8.97381 19.8577 8.96013 19.8208 8.95089 19.7904C8.94157 19.7597 8.93713 19.7367 8.93713 19.7216C8.93713 19.6472 8.89106 19.5609 8.82512 19.4872C8.75893 19.4132 8.67035 19.3493 8.58082 19.3207M11.3594 23.4187L8.57603 19.3343M11.3594 23.4187C11.677 23.7229 11.9364 23.9506 12.1018 24.0746C12.1431 24.1055 12.1783 24.1299 12.207 24.1473C12.2361 24.1649 12.2571 24.1746 12.2704 24.1775C12.2736 24.1782 12.276 24.1784 12.2776 24.1784C12.2781 24.1784 12.2785 24.1783 12.2788 24.1783L11.3594 23.4187ZM8.58082 19.3207C8.58069 19.3206 8.58056 19.3206 8.58043 19.3205L8.57603 19.3343M8.58082 19.3207C8.58095 19.3207 8.58107 19.3207 8.5812 19.3208L8.57603 19.3343M8.58082 19.3207C8.50901 19.2931 8.4558 19.2693 8.42074 19.2491C8.40312 19.239 8.39072 19.2302 8.38291 19.2227C8.37462 19.2148 8.37382 19.2106 8.37382 19.2098L8.37382 19.2098C8.37381 19.2097 8.3738 19.2094 8.37434 19.2087C8.37506 19.2077 8.3767 19.2061 8.38011 19.2041C8.38707 19.2002 8.39876 19.1962 8.41626 19.1928C8.45098 19.1862 8.50403 19.1827 8.57603 19.1827H8.57801L8.57799 19.1826C8.67385 19.1695 8.77835 19.2087 8.87408 19.2834C8.96953 19.3579 9.05475 19.4666 9.11164 19.589M8.57603 19.3343C8.28716 19.2236 8.28716 19.1683 8.57603 19.1683C8.77825 19.1406 9.00935 19.3343 9.1249 19.5833M9.11164 19.589C9.11159 19.5889 9.11154 19.5888 9.1115 19.5887L9.1249 19.5833M9.11164 19.589C9.11169 19.5891 9.11175 19.5893 9.1118 19.5894L9.1249 19.5833M9.11164 19.589C9.14771 19.6788 9.17877 19.7472 9.20837 19.7942C9.23756 19.8405 9.2678 19.87 9.30373 19.8743C9.33987 19.8786 9.37493 19.8567 9.4115 19.819C9.44859 19.7808 9.4907 19.7229 9.54118 19.6469M9.1249 19.5833C9.26934 19.943 9.32711 19.943 9.52933 19.6386M9.52933 19.6386L9.54099 19.6471C9.54105 19.6471 9.54112 19.647 9.54118 19.6469M9.52933 19.6386C9.73154 19.362 9.78932 19.3896 9.78932 19.7493C9.78932 20.026 9.93376 20.2473 10.1071 20.2473C10.2515 20.2473 10.3093 20.358 10.2226 20.524M9.52933 19.6386L9.54136 19.6466C9.5413 19.6467 9.54124 19.6468 9.54118 19.6469M9.54118 19.6469C9.59155 19.578 9.6323 19.5289 9.66496 19.4993C9.68134 19.4845 9.69494 19.4752 9.70605 19.4705C9.71694 19.466 9.72417 19.4663 9.72939 19.4686C9.73493 19.471 9.74123 19.4769 9.74738 19.4896C9.75349 19.5022 9.75873 19.5201 9.76291 19.5439C9.77125 19.5914 9.77487 19.6595 9.77487 19.7493C9.77487 19.89 9.81157 20.0173 9.87105 20.1099C9.93041 20.2022 10.0138 20.2617 10.1071 20.2617C10.1757 20.2617 10.2198 20.2877 10.2383 20.3293C10.2574 20.3718 10.2523 20.4358 10.2101 20.5168M10.2226 20.524L10.2104 20.5163C10.2103 20.5165 10.2102 20.5166 10.2101 20.5168M10.2226 20.524C10.136 20.6623 10.1937 20.8006 10.3382 20.8006C11.147 20.8006 12.1003 21.5753 12.1003 22.2393C12.1003 22.4883 12.3314 22.848 12.6203 22.9863M10.2226 20.524L10.2098 20.5173C10.2099 20.5171 10.21 20.517 10.2101 20.5168M10.2101 20.5168C10.1652 20.5887 10.1566 20.6626 10.1804 20.7197C10.2046 20.7777 10.2609 20.8151 10.3382 20.8151C10.7384 20.8151 11.1758 21.007 11.5135 21.2822C11.8515 21.5577 12.0859 21.9137 12.0859 22.2393C12.0859 22.3677 12.1452 22.5227 12.24 22.6625C12.3348 22.8021 12.4663 22.9284 12.6133 22.999M12.6203 22.9863L12.6125 22.9985C12.6128 22.9987 12.613 22.9988 12.6133 22.999M12.6203 22.9863C12.8803 23.1523 12.9959 23.2907 12.8803 23.2907C12.7359 23.2907 12.7359 23.4567 12.8803 23.6227M12.6203 22.9863L12.6141 22.9994C12.6138 22.9992 12.6135 22.9991 12.6133 22.999M12.6133 22.999C12.7425 23.0816 12.8347 23.1565 12.8801 23.2101C12.8915 23.2235 12.8995 23.2351 12.9045 23.2448C12.9097 23.2548 12.9109 23.2614 12.9106 23.2652C12.9104 23.268 12.9094 23.2699 12.906 23.2718C12.9017 23.2742 12.8937 23.2762 12.8803 23.2762C12.8414 23.2762 12.8103 23.2875 12.7888 23.309C12.7674 23.3306 12.7575 23.3606 12.7575 23.3944C12.7575 23.4613 12.7957 23.5472 12.8686 23.6312M12.8803 23.6227L12.8679 23.6301C12.8681 23.6305 12.8683 23.6308 12.8686 23.6312M12.8803 23.6227L12.8694 23.6322C12.8691 23.6318 12.8688 23.6315 12.8686 23.6312" fill="#EC6B15" stroke="#4A4A4A" stroke-width="0.0288876"/>
<path d="M14.3058 7.17666L14.3059 7.17659L14.307 7.17769C14.3213 7.19136 14.3331 7.20181 14.3426 7.2093C14.3476 7.21319 14.3517 7.21608 14.355 7.21816C14.3516 7.2026 14.3415 7.1765 14.3245 7.13971C14.3076 7.1029 14.2843 7.05654 14.2555 7.00137C14.2121 6.92521 14.1825 6.86352 14.1689 6.81599C14.1557 6.76958 14.156 6.73028 14.1828 6.70689C14.1958 6.69559 14.2133 6.68975 14.2337 6.68774C14.2542 6.68573 14.2787 6.68744 14.3071 6.69231C14.364 6.70205 14.439 6.7249 14.5331 6.75956L14.5331 6.75955L14.5338 6.75983C14.6631 6.81486 14.7683 6.83428 14.8292 6.82456C14.8597 6.8197 14.875 6.80831 14.8803 6.79499C14.8858 6.78123 14.8834 6.75889 14.8627 6.72573C14.837 6.68853 14.8418 6.64438 14.865 6.59961C14.8881 6.55489 14.9309 6.5068 14.9867 6.45791C15.0986 6.35994 15.2668 6.25554 15.4498 6.16532C15.6328 6.07506 15.8315 5.99854 16.0048 5.95673C16.0914 5.93583 16.1721 5.92349 16.2415 5.92261C16.3107 5.92173 16.3703 5.93218 16.4134 5.95844L16.4134 5.9584L16.4143 5.95904C16.467 5.99692 16.5557 6.00478 16.6627 5.98088C16.7689 5.95715 16.8899 5.90273 17.0041 5.8207L17.004 5.82065L17.0052 5.81995C17.1062 5.76123 17.1647 5.71453 17.1902 5.67923C17.2028 5.66167 17.2057 5.64907 17.2043 5.64039C17.203 5.63217 17.1971 5.62361 17.1827 5.61545C17.1531 5.59862 17.0963 5.5889 17.0158 5.58766C16.9362 5.58643 16.8361 5.59349 16.7218 5.60813C16.2645 5.66676 15.5874 5.84619 15.1126 6.09421C14.4925 6.42574 13.7782 6.9094 13.2407 7.33091C12.9719 7.5417 12.7477 7.73661 12.6017 7.88893C12.5286 7.96521 12.4758 8.03014 12.4466 8.0806C12.4319 8.1059 12.4238 8.12654 12.4216 8.14249C12.4194 8.15803 12.4228 8.1675 12.4293 8.17371C12.4366 8.18072 12.4484 8.18531 12.4664 8.18569C12.4844 8.18608 12.5073 8.1822 12.5347 8.17379C12.5895 8.15699 12.6597 8.12307 12.7405 8.0749C12.902 7.97867 13.1035 7.82711 13.3053 7.64767C13.5082 7.46722 13.7187 7.32112 13.8971 7.23394C13.9863 7.19037 14.068 7.16121 14.1372 7.15009C14.206 7.13903 14.265 7.14542 14.3058 7.17666Z" fill="#EC9615" stroke="#4A4A4A" stroke-width="0.0288876"/>
<path d="M10.1476 9.54982L10.1476 9.54983L10.1472 9.55031C10.0473 9.65964 9.98372 9.77517 9.95915 9.87264C9.93435 9.97103 9.95012 10.046 10.0005 10.0822L10.0009 10.0817L10.0035 10.085C10.0482 10.1422 10.0601 10.1982 10.029 10.2408C9.99943 10.2813 9.9353 10.302 9.84765 10.302C9.80883 10.302 9.75951 10.3224 9.70255 10.3629C9.64599 10.4031 9.58363 10.4619 9.51909 10.5357C9.39006 10.6833 9.25351 10.8897 9.13842 11.124L9.13842 11.124L9.13826 11.1243L8.73439 11.8979L9.34789 11.438L9.34789 11.438L9.34813 11.4379C9.51981 11.3145 9.7138 11.1083 9.89033 10.8771C10.0666 10.6462 10.2248 10.3914 10.3254 10.1714C10.4118 9.93676 10.4711 9.74564 10.5043 9.59961C10.5209 9.52654 10.5309 9.46505 10.5346 9.41522C10.5382 9.36512 10.5354 9.32798 10.5272 9.30296C10.5192 9.27839 10.507 9.26769 10.4923 9.2649C10.476 9.26179 10.4521 9.26738 10.4192 9.28672C10.3538 9.32513 10.2631 9.41161 10.1476 9.54982Z" fill="#EC9615" stroke="#4A4A4A" stroke-width="0.0288876"/>
<path d="M22.3509 12.7646L22.351 12.7646C22.4665 12.7161 22.5545 12.6764 22.6153 12.6442C22.6457 12.6281 22.6689 12.6141 22.6852 12.602C22.7021 12.5894 22.7094 12.5805 22.7114 12.5751C22.7122 12.5732 22.7119 12.5725 22.7118 12.5724L22.7118 12.5723C22.7117 12.5719 22.7109 12.5703 22.7074 12.568C22.7001 12.5631 22.686 12.5582 22.6629 12.5542C22.6173 12.5462 22.5444 12.5427 22.4433 12.5427V12.5428L22.4417 12.5426C22.3146 12.529 22.1726 12.5562 22.0514 12.6041C21.9297 12.6522 21.8321 12.7201 21.7912 12.7855C21.744 12.8633 21.7521 12.9404 21.7994 13.0113C21.8475 13.0832 21.9359 13.1485 22.0483 13.1981C22.273 13.2975 22.5867 13.3315 22.8424 13.236C22.867 13.2259 22.8858 13.216 22.8991 13.2066C22.9128 13.197 22.9197 13.1887 22.9225 13.1822C22.9248 13.1767 22.9245 13.1719 22.9212 13.1663C22.9173 13.1599 22.9091 13.1523 22.8948 13.1442C22.8662 13.128 22.8184 13.1128 22.7515 13.0998C22.6851 13.087 22.6009 13.0766 22.5003 13.0697C22.3343 13.0628 22.2093 13.0559 22.1234 13.0458C22.0805 13.0408 22.0467 13.035 22.0222 13.0277C22.0099 13.0241 21.9994 13.02 21.9911 13.0151C21.9829 13.0103 21.9756 13.004 21.9716 12.9956C21.9673 12.9865 21.9679 12.9771 21.9715 12.9684C21.9749 12.9602 21.9812 12.9525 21.9887 12.9454C22.0038 12.9311 22.0279 12.9155 22.0595 12.8983C22.1229 12.8637 22.2211 12.8201 22.3509 12.7646ZM22.5011 13.0553C21.8366 13.0276 21.8366 12.9998 22.3566 12.7779C22.8188 12.5837 22.8477 12.5282 22.4433 12.5282C22.1833 12.5005 21.8655 12.6392 21.7789 12.7779L22.5011 13.0553Z" fill="#EC9615" stroke="#4A4A4A" stroke-width="0.0288876"/>
<path d="M20.8269 14.7695L20.8231 14.7556C21.0543 14.6931 21.2255 14.6464 21.332 14.6119C21.3856 14.5945 21.4216 14.5806 21.4408 14.5697C21.4435 14.5682 21.4458 14.5668 21.4476 14.5655C21.4423 14.5637 21.4344 14.5618 21.4231 14.56C21.4082 14.5576 21.3887 14.5557 21.3645 14.5542C21.316 14.5512 21.2495 14.5499 21.164 14.5499C20.9932 14.5499 20.7478 14.5551 20.4227 14.5621L20.4227 14.5621H20.4224C20.0182 14.5621 19.7237 14.5898 19.5596 14.6344C19.5186 14.6455 19.4863 14.6575 19.4627 14.6701C19.4388 14.6828 19.4254 14.6953 19.4197 14.7063C19.4147 14.7161 19.4148 14.7264 19.4228 14.739C19.4312 14.7524 19.4482 14.7678 19.476 14.7845C19.5885 14.8383 19.7947 14.866 20.0395 14.8626C20.2839 14.8591 20.5644 14.8246 20.8231 14.7556L20.8269 14.7695ZM20.8269 14.7695C20.3069 14.9082 19.7002 14.9082 19.4691 14.7973C19.238 14.6586 19.6136 14.5476 20.4224 14.5476C21.7224 14.5199 21.7513 14.5199 20.8269 14.7695Z" fill="#EC9615" stroke="#4A4A4A" stroke-width="0.0288876"/>
<path d="M29.9096 15.7725L29.813 15.2407L29.7649 15.7706C29.7647 15.9534 29.6916 16.1974 29.5831 16.4398C29.4743 16.6828 29.3293 16.926 29.184 17.107L29.184 17.107L29.1838 17.1072L28.606 17.7989L28.5863 17.8225L28.5807 17.7922L28.4652 17.1558L28.4652 17.1558L28.4651 17.1556C28.458 17.1109 28.4504 17.0776 28.4429 17.0549C28.4391 17.0435 28.4355 17.0352 28.4322 17.0296C28.4305 17.0268 28.4291 17.025 28.428 17.0238C28.428 17.0238 28.4279 17.0237 28.4279 17.0236C28.4263 17.0252 28.424 17.0283 28.4212 17.0339C28.4142 17.0476 28.4068 17.071 28.3996 17.1044C28.3711 17.2377 28.3494 17.5131 28.3494 17.9003V19.216L28.7551 18.3095C28.7551 18.3095 28.7551 18.3094 28.7551 18.3094C28.8709 18.0459 29.0301 17.7479 29.1892 17.4847C29.3482 17.2217 29.5077 16.9924 29.6243 16.8668C29.7379 16.7444 29.8308 16.56 29.8846 16.361C29.9383 16.162 29.9524 15.9501 29.9097 15.7733L29.9096 15.7725Z" fill="#EC9615" stroke="#4A4A4A" stroke-width="0.0288876"/>
<path d="M24.3912 17.2265L24.3912 17.2264L24.3914 17.2267C24.5069 17.4894 24.6074 17.6748 24.6784 17.7667C24.6962 17.7896 24.7116 17.8061 24.7246 17.8165C24.7381 17.8273 24.7464 17.8294 24.7503 17.829C24.7524 17.8288 24.7568 17.8274 24.7611 17.8157C24.7654 17.804 24.7681 17.7853 24.7681 17.7582C24.7681 17.7118 24.7559 17.6459 24.7338 17.566C24.7118 17.4863 24.6803 17.3937 24.6422 17.2943C24.5662 17.0956 24.4644 16.8704 24.3617 16.6684C24.2588 16.4663 24.1555 16.2883 24.0764 16.1834C24.0566 16.1572 24.0386 16.1359 24.0227 16.12C24.0065 16.1038 23.9934 16.0942 23.9836 16.0902C23.9789 16.0883 23.9758 16.088 23.9739 16.0882C23.9724 16.0884 23.971 16.089 23.9695 16.0906C23.9656 16.0947 23.9611 16.105 23.9593 16.1264C23.9594 16.1385 23.9622 16.1569 23.968 16.1814C23.9739 16.2061 23.9826 16.2362 23.9938 16.271C24.0162 16.3406 24.0486 16.4285 24.0882 16.5286C24.1676 16.7289 24.2758 16.9776 24.3912 17.2265Z" fill="#EC9615" stroke="#4A4A4A" stroke-width="0.0288876"/>
<path d="M13.8499 17.591C13.8499 17.7834 13.8786 17.9687 13.9215 18.1161C13.943 18.1898 13.968 18.2537 13.9945 18.3041C14.021 18.3544 14.0484 18.3899 14.0744 18.4089C14.0905 18.418 14.1036 18.421 14.1141 18.4201C14.1244 18.4191 14.1339 18.4143 14.143 18.4044C14.162 18.3836 14.1769 18.3425 14.1859 18.2806C14.2036 18.1581 14.1966 17.9661 14.1678 17.7313C14.1317 17.4897 14.0922 17.3037 14.0532 17.175C14.0337 17.1106 14.0145 17.061 13.9961 17.026C13.987 17.0085 13.9783 16.9951 13.9701 16.9854C13.9618 16.9755 13.9548 16.9703 13.9492 16.9681C13.9442 16.9661 13.9402 16.9663 13.9362 16.9683C13.9315 16.9706 13.9257 16.9758 13.9192 16.986C13.9063 17.0064 13.894 17.0418 13.8835 17.0941C13.8625 17.1982 13.8499 17.3631 13.8499 17.591Z" fill="#EC9615" stroke="#4A4A4A" stroke-width="0.0288876"/>
<path d="M8.76451 19.6169L8.76451 19.6169L8.7644 19.6172C8.72832 19.714 8.70324 19.7878 8.68944 19.8394C8.68252 19.8653 8.6786 19.885 8.67741 19.8989C8.67681 19.9059 8.67696 19.9108 8.67749 19.914C8.6775 19.914 8.6775 19.9141 8.67751 19.9141C8.67879 19.9136 8.68049 19.9127 8.68263 19.9114C8.69147 19.9059 8.70388 19.8952 8.72016 19.8784C8.75247 19.8449 8.79717 19.7901 8.85491 19.7141C8.91271 19.638 8.96027 19.5801 9.00137 19.5412C9.04204 19.5026 9.07899 19.4801 9.11557 19.4801C9.15306 19.4801 9.18477 19.5036 9.21503 19.5428C9.2454 19.5822 9.27666 19.6405 9.31278 19.7166L9.31281 19.7166L9.31318 19.7176C9.33462 19.7723 9.35587 19.8146 9.37547 19.8446C9.39548 19.8753 9.41246 19.8911 9.42455 19.8963C9.43008 19.8986 9.43352 19.8983 9.43578 19.8974C9.43827 19.8965 9.4418 19.8938 9.4455 19.8871C9.45317 19.8731 9.45861 19.8467 9.45861 19.8058H9.4584L9.45883 19.8034C9.46535 19.7659 9.45572 19.7153 9.43081 19.6548C9.40606 19.5947 9.36695 19.5265 9.31676 19.4544C9.21642 19.3103 9.07282 19.152 8.91471 19.0144C8.75643 18.8766 8.61369 18.7881 8.51162 18.7544C8.46019 18.7374 8.42177 18.7352 8.39719 18.7446C8.38534 18.7492 8.37661 18.7564 8.37066 18.7665C8.36459 18.7767 8.36088 18.7909 8.36088 18.8098C8.36088 18.9038 8.38892 18.9833 8.43683 19.039C8.48459 19.0946 8.55278 19.1274 8.63531 19.1274C8.71702 19.1274 8.77131 19.1905 8.79376 19.2801C8.81628 19.37 8.80851 19.4905 8.76451 19.6169Z" fill="#EC9615" stroke="#4A4A4A" stroke-width="0.0288876"/>
<path d="M9.36998 21.0447L9.36999 21.0447L9.37034 21.0454C9.48556 21.2799 9.62236 21.5074 9.75184 21.6865C9.81659 21.7761 9.87936 21.8534 9.93655 21.9133C9.99399 21.9735 10.0449 22.0151 10.0858 22.0347L10.0858 22.0347L10.0868 22.0352C10.1042 22.0452 10.1136 22.046 10.1176 22.0448C10.1195 22.0442 10.1236 22.0421 10.1253 22.0294C10.127 22.0168 10.1255 21.9978 10.1198 21.9721C10.1142 21.9467 10.1047 21.9158 10.0913 21.8799C10.0377 21.736 9.92276 21.5157 9.74974 21.2534L9.74974 21.2534L9.74946 21.2529C9.56906 20.9557 9.41405 20.7244 9.29299 20.5624C9.23245 20.4813 9.18053 20.4178 9.13829 20.372C9.09551 20.3257 9.06406 20.2992 9.04441 20.2902C9.03645 20.2865 9.03335 20.287 9.03274 20.2872C9.03233 20.2877 9.03018 20.2906 9.03007 20.301C9.02982 20.3244 9.04024 20.367 9.06441 20.431C9.11231 20.558 9.21118 20.7612 9.36998 21.0447Z" fill="#EC9615" stroke="#4A4A4A" stroke-width="0.0288876"/>
<path d="M12.3692 22.8377L12.3693 22.8377L12.3696 22.8378C12.4076 22.8611 12.432 22.8613 12.4476 22.852C12.4643 22.842 12.4777 22.8173 12.4846 22.7748C12.4981 22.6909 12.4833 22.554 12.4455 22.3935C12.37 22.0732 12.2046 21.6675 12.0043 21.4208C11.9335 21.3394 11.8267 21.2575 11.7159 21.1959C11.6047 21.134 11.4917 21.0939 11.4088 21.0939C11.3879 21.0939 11.3718 21.096 11.36 21.0996C11.3481 21.1032 11.3415 21.1079 11.3381 21.1124C11.3323 21.1201 11.3312 21.1348 11.3486 21.1615C11.3654 21.1873 11.3965 21.219 11.4421 21.2549C11.4874 21.2906 11.5463 21.33 11.618 21.3712C11.7509 21.442 11.8753 21.5756 11.9664 21.7256C12.0575 21.8757 12.1165 22.0443 12.1165 22.1862C12.1165 22.3227 12.145 22.4661 12.1914 22.5856C12.2379 22.7057 12.3014 22.7987 12.3692 22.8377Z" fill="#EC9615" stroke="#4A4A4A" stroke-width="0.0288876"/>
<path d="M22.8011 23.7169L22.8011 23.717C22.7216 23.8208 22.67 23.8959 22.6458 23.9427C22.6398 23.9543 22.6357 23.9638 22.6332 23.9712C22.6314 23.9767 22.6308 23.9804 22.6307 23.9827C22.6322 23.9826 22.6344 23.9823 22.6376 23.9814C22.6508 23.9776 22.6716 23.9672 22.7009 23.9486C22.7298 23.9303 22.7659 23.9047 22.8093 23.8718C22.896 23.8059 23.0113 23.7111 23.1556 23.5866C23.5024 23.2822 23.7327 23.0685 23.8511 22.931C23.8806 22.8967 23.9029 22.8675 23.9182 22.8431C23.9337 22.8184 23.9413 22.7998 23.9429 22.7865C23.9437 22.7801 23.9431 22.7755 23.9418 22.7722C23.9405 22.769 23.9383 22.7662 23.9346 22.7637C23.9266 22.7582 23.9118 22.7543 23.8873 22.7543C23.8765 22.7543 23.8593 22.7598 23.8351 22.7718C23.8114 22.7836 23.783 22.8005 23.7507 22.8212C23.7206 22.8404 23.6875 22.8625 23.6518 22.8864C23.649 22.8882 23.6463 22.8901 23.6435 22.8919C23.6048 22.9178 23.5634 22.9454 23.5201 22.973C23.3764 23.0833 23.0312 23.4139 22.8011 23.7169Z" fill="#EC9615" stroke="#4A4A4A" stroke-width="0.0288876"/>
<path d="M12.3717 24.168L12.3718 24.168L12.3727 24.1692C12.4726 24.3059 12.5937 24.4081 12.707 24.4657C12.8212 24.5238 12.9236 24.535 12.9893 24.4972C13.0639 24.4543 13.1335 24.4458 13.1857 24.465C13.2387 24.4846 13.271 24.5317 13.271 24.5927C13.271 24.6288 13.295 24.6763 13.3425 24.7331C13.3894 24.7892 13.4571 24.8517 13.5395 24.9173C13.7043 25.0485 13.9266 25.1907 14.1554 25.3167C14.3843 25.4427 14.6191 25.5521 14.809 25.6179C14.904 25.6508 14.9872 25.6726 15.0525 25.6803C15.0851 25.6841 15.1127 25.6843 15.1348 25.6809C15.1569 25.6775 15.1723 25.6706 15.182 25.6613L15.1819 25.6612L15.1836 25.66C15.2112 25.6402 15.2245 25.6219 15.2286 25.6069C15.2325 25.593 15.2291 25.5799 15.2175 25.5674C15.2055 25.5545 15.1847 25.5425 15.1554 25.5339C15.1263 25.5253 15.0898 25.5202 15.0476 25.5202C15.0008 25.5202 14.9333 25.4982 14.8524 25.4609C14.7709 25.4234 14.6737 25.3695 14.567 25.3036C14.3533 25.1718 14.1001 24.9917 13.8542 24.7977C13.6089 24.6043 13.3856 24.4456 13.2239 24.3492C13.1428 24.3009 13.0781 24.2688 13.0343 24.2555C13.012 24.2487 12.9975 24.2476 12.9895 24.2497C12.986 24.2505 12.9846 24.2518 12.9839 24.2527C12.9832 24.2537 12.9821 24.256 12.9821 24.2607C12.9821 24.2771 12.9778 24.2915 12.9682 24.3027C12.9586 24.3138 12.9452 24.3201 12.9301 24.3229C12.9006 24.3284 12.8606 24.3213 12.8149 24.3055C12.7227 24.2737 12.5985 24.2036 12.4679 24.1063L12.4679 24.1063L12.4677 24.1061C12.3522 24.0162 12.2641 23.9508 12.2027 23.9096C12.1719 23.8889 12.1483 23.8747 12.1315 23.8665C12.1272 23.8643 12.1235 23.8627 12.1203 23.8615C12.1212 23.8632 12.1222 23.8652 12.1233 23.8673C12.1313 23.8818 12.1457 23.9027 12.1671 23.9302C12.2096 23.9851 12.2779 24.0643 12.3717 24.168Z" fill="#EC9615" stroke="#4A4A4A" stroke-width="0.0288876"/>
<path d="M15.5983 4.26073C16.9849 3.79039 20.6537 3.70739 21.8092 4.1224C23.0224 4.56507 22.9647 4.26073 21.5781 2.96038C20.8848 2.29637 19.9892 1.38335 19.5848 0.885344L18.9008 0.0118465L18.892 0.0240846M15.5983 4.26073L14.4198 4.63696L14.4474 4.61299M15.5983 4.26073L15.5937 4.24705C15.5937 4.24704 15.5937 4.24703 15.5938 4.24701M15.5983 4.26073L15.5939 4.24697L15.5938 4.24701M14.4474 4.61299L14.4126 4.62411L15.9449 3.29238M14.4474 4.61299L15.9544 3.30332M14.4474 4.61299L15.5938 4.24701M15.9449 3.29238C16.8116 2.54537 17.8227 1.49402 18.1982 0.968345M15.9449 3.29238L15.9544 3.30332M15.9449 3.29238L15.9544 3.30328L15.9544 3.30332M18.1982 0.968345L18.8827 0.0122342L18.892 0.0240846M18.1982 0.968345L18.2099 0.976753L18.2099 0.976741M18.1982 0.968345L18.2099 0.976741M18.892 0.0240846L18.2099 0.976741M18.892 0.0240846L19.5734 0.894249L19.5736 0.894451C19.9786 1.39321 20.8747 2.30676 21.5681 2.97081L21.5682 2.97091C21.9147 3.29591 22.178 3.55839 22.359 3.76237C22.4495 3.86437 22.5192 3.95149 22.5685 4.02431C22.618 4.09744 22.6459 4.15492 22.6544 4.19781C22.6586 4.21909 22.6578 4.23584 22.6533 4.24886C22.6488 4.26158 22.6405 4.27183 22.6273 4.27977C22.6001 4.29629 22.5525 4.30272 22.4812 4.29606C22.3398 4.28285 22.1174 4.2195 21.8141 4.10883L21.814 4.1088C21.5233 4.00438 21.0758 3.93165 20.5474 3.88839C20.0187 3.84511 19.4079 3.83128 18.7901 3.84512C17.555 3.87279 16.2893 4.01112 15.5938 4.24701M18.2099 0.976741C17.8334 1.50375 16.8214 2.55597 15.9544 3.30332" fill="#15156B" stroke="#4A4A4A" stroke-width="0.0288876"/>
<path d="M8.22041 12.9307C8.20121 12.9163 8.19235 12.8894 8.18921 12.8573C8.18594 12.824 8.18849 12.7809 8.19601 12.7298C8.21107 12.6275 8.24656 12.4901 8.29901 12.3272C8.40398 12.0014 8.57757 11.5719 8.79441 11.115L8.79457 11.1147C9.21438 10.2828 10.1038 9.15417 10.9853 8.23384C11.4261 7.77356 11.8654 7.36494 12.2435 7.07127C12.4325 6.92444 12.6065 6.80613 12.758 6.72445C12.9091 6.643 13.0394 6.59702 13.1406 6.59702C13.253 6.59702 13.4385 6.54276 13.6479 6.45632C13.8566 6.37016 14.087 6.25293 14.2885 6.12884C14.9405 5.72646 15.9244 5.38708 16.8606 5.18977C17.3288 5.09108 17.7854 5.02784 18.1831 5.01007C18.5805 4.99232 18.9204 5.01989 19.1542 5.10385L19.1543 5.10389C19.3432 5.17349 19.472 5.25583 19.5455 5.33825C19.6191 5.42073 19.6389 5.50577 19.6027 5.57703C19.5672 5.647 19.4804 5.69767 19.3548 5.71917C19.2287 5.74078 19.0605 5.73356 18.857 5.68484L18.8567 5.68476C18.6217 5.62337 18.3156 5.64358 17.9912 5.71858C17.667 5.7935 17.326 5.92275 17.0218 6.07791C16.7174 6.23313 16.4508 6.41387 16.2748 6.59137C16.1868 6.68015 16.1221 6.76752 16.0865 6.84989C16.0509 6.93206 16.0446 7.00832 16.0717 7.07636C16.1614 7.29148 16.0706 7.52581 15.8804 7.70447C15.6899 7.88341 15.3975 8.00927 15.0761 8.00927C14.9843 8.00927 14.8869 7.95822 14.8059 7.87707C14.7246 7.79568 14.6582 7.68263 14.6287 7.55541L14.6287 7.55542L14.6285 7.55444C14.6142 7.46543 14.588 7.40848 14.5454 7.38C14.5031 7.35174 14.44 7.34845 14.3439 7.37916C14.248 7.40974 14.1229 7.47299 13.9597 7.57227C13.7967 7.67145 13.5966 7.80611 13.3512 7.97897L13.3511 7.97901C12.8748 8.31077 12.5625 8.49887 12.3687 8.5619C12.2723 8.59326 12.2005 8.59528 12.1526 8.5627C12.1043 8.52988 12.0862 8.46612 12.0862 8.38216C12.0862 8.29652 12.0768 8.23144 12.0598 8.18534C12.0427 8.13935 12.0189 8.11394 11.9907 8.10398C11.9622 8.0939 11.9255 8.09826 11.88 8.12037C11.8347 8.14243 11.7824 8.1813 11.7243 8.23697C11.4915 8.45989 11.1747 8.9421 10.8426 9.63344L10.8425 9.63366C10.4955 10.326 9.888 11.2407 9.48187 11.6296C9.2801 11.8229 9.0783 12.0438 8.91618 12.2439C8.75365 12.4445 8.63223 12.6228 8.58981 12.7312C8.54591 12.8433 8.48648 12.9229 8.42096 12.9598C8.38794 12.9784 8.35318 12.9863 8.31845 12.9814C8.28401 12.9766 8.25086 12.9596 8.22041 12.9307ZM8.22041 12.9307C8.2207 12.9309 8.22099 12.9311 8.22128 12.9313L8.22971 12.9196L8.21972 12.93C8.21995 12.9302 8.22018 12.9304 8.22041 12.9307ZM16.8383 8.6865C16.7516 8.90784 16.8671 9.35051 17.0982 9.65485M16.8383 8.6865C17.0694 8.10549 16.8671 8.16083 16.0294 8.9355C15.2494 9.59952 15.0472 10.2082 15.5672 10.2082C15.7405 10.2082 15.8561 10.4019 15.8561 10.6232C15.8561 10.8445 16.0005 11.0382 16.1449 11.0382C16.3183 11.0382 16.4338 11.2319 16.4338 11.4809C16.4338 11.7576 16.2316 11.8682 15.7983 11.8129M16.8383 8.6865L16.8517 8.69184C16.9094 8.5468 16.9411 8.43894 16.9416 8.37146C16.9419 8.33789 16.9344 8.3099 16.9135 8.29416C16.8925 8.2784 16.8634 8.27888 16.8305 8.28879C16.7643 8.3087 16.6657 8.37182 16.5328 8.47674C16.3992 8.5821 16.2292 8.73104 16.0198 8.92471C15.6293 9.25722 15.3815 9.57733 15.2972 9.81604C15.2551 9.93525 15.2527 10.0374 15.2981 10.1103C15.3439 10.1839 15.4349 10.2226 15.5672 10.2226C15.6478 10.2226 15.716 10.2675 15.7646 10.3407C15.8133 10.414 15.8416 10.5149 15.8416 10.6232C15.8416 10.7369 15.8787 10.8436 15.9346 10.9221C15.9902 11.0002 16.0662 11.0527 16.1449 11.0527C16.2255 11.0527 16.2936 11.0974 16.3422 11.1739C16.3909 11.2506 16.4194 11.3584 16.4194 11.4809C16.4194 11.5483 16.4071 11.6047 16.3827 11.6505C16.3584 11.6962 16.3218 11.7322 16.2718 11.7586C16.1712 11.8118 16.0161 11.8261 15.8003 11.7986M16.8383 8.6865L16.8517 8.69177C16.81 8.79817 16.8164 8.96053 16.863 9.13584C16.9095 9.31056 16.9954 9.49557 17.1097 9.64611L17.1098 9.64622L17.5314 10.2115L17.9821 9.59103L17.9821 9.59102L17.9825 9.59047C18.1262 9.41155 18.2114 9.24754 18.2397 9.12254C18.2538 9.06 18.2533 9.0085 18.2401 8.97004C18.2271 8.93227 18.2015 8.90633 18.1627 8.89393L18.1625 8.89385C18.0363 8.85122 17.9518 8.77435 17.9066 8.67747C17.8616 8.58087 17.8564 8.46583 17.8859 8.34754C17.9448 8.11116 18.143 7.85905 18.4494 7.70529C18.6066 7.62315 18.7495 7.50678 18.853 7.38377C18.9568 7.26027 19.0193 7.13211 19.0193 7.02647C19.0193 6.88241 19.0947 6.76094 19.2209 6.66565C19.3469 6.57053 19.5243 6.50073 19.7314 6.45897C20.1457 6.37544 20.6827 6.40334 21.176 6.5701L21.1766 6.57031C21.4655 6.68099 21.6852 6.76032 21.8407 6.80509C21.9186 6.82749 21.9796 6.84105 22.025 6.84567C22.0476 6.84798 22.0658 6.848 22.0799 6.84601C22.094 6.844 22.1029 6.84012 22.1081 6.83564C22.1168 6.82823 22.1212 6.8135 22.1087 6.78142C22.0965 6.75011 22.0702 6.70821 22.0293 6.65484C21.9477 6.54839 21.8111 6.40025 21.6233 6.20655C21.4932 6.07505 21.3918 5.96575 21.3182 5.87576C21.2449 5.78608 21.1983 5.71435 21.1794 5.6581C21.1699 5.62983 21.1669 5.60425 21.1721 5.58176C21.1775 5.55883 21.1909 5.54064 21.2112 5.52697C21.2503 5.50051 21.3158 5.49034 21.4025 5.49034C21.5217 5.49034 21.6832 5.54708 21.8464 5.6374C22.01 5.7279 22.1772 5.85319 22.3083 5.99263C22.4539 6.13211 22.5563 6.28594 22.6077 6.4231C22.6587 6.55927 22.661 6.68365 22.598 6.75906L22.5983 6.75929L22.5957 6.76127C22.5599 6.78873 22.5403 6.80969 22.5328 6.82333C22.5318 6.82511 22.5311 6.82658 22.5307 6.82778C22.5293 6.83131 22.5297 6.83249 22.5296 6.83208C22.5291 6.83044 22.528 6.83151 22.5325 6.83259C22.5371 6.8337 22.545 6.83396 22.5566 6.83224C22.568 6.83056 22.582 6.82712 22.5987 6.82167C22.6319 6.81079 22.6743 6.7922 22.7243 6.76488C22.8684 6.68205 22.9339 6.60949 22.9372 6.52445C22.9389 6.48136 22.9247 6.43301 22.8934 6.3759C22.862 6.3188 22.814 6.25396 22.7493 6.17817L22.7491 6.178C22.6801 6.09457 22.6328 6.02384 22.6063 5.96565C22.5801 5.90807 22.5729 5.85949 22.5901 5.82286C22.6077 5.78538 22.648 5.76622 22.7018 5.7605C22.756 5.75475 22.8277 5.76203 22.915 5.78118C23.2639 5.85776 23.8794 6.12846 24.6738 6.57114C27.4801 8.09513 29.389 10.8657 30.0541 14.2171L30.0541 14.2171C30.1409 14.6606 30.1988 15.1732 30.2205 15.6441C30.2422 16.1146 30.2278 16.5448 30.1697 16.8233C30.1697 16.8234 30.1697 16.8235 30.1696 16.8236L30.1555 16.8206C29.8955 18.3423 29.1444 20.4174 28.7978 20.611L14.4018 19.0999M17.0982 9.65485L14.4117 19.0893C13.6895 18.4253 13.5451 18.038 13.5451 17.0143C13.5451 16.1566 13.7184 15.5756 14.065 15.2436C14.7872 14.5519 15.0761 13.8326 15.105 12.6982C15.1339 11.8682 15.2205 11.7299 15.7983 11.8129M17.0982 9.65485L17.5225 10.2237L17.0982 9.65485ZM15.7983 11.8129L15.8001 11.7986C15.8002 11.7986 15.8002 11.7986 15.8003 11.7986M15.7983 11.8129L15.8004 11.7986C15.8003 11.7986 15.8003 11.7986 15.8003 11.7986M14.4018 19.0999C14.0402 18.7674 13.8217 18.5029 13.6942 18.1922C13.5667 17.8817 13.5306 17.5265 13.5306 17.0143C13.5306 16.1555 13.704 15.5694 14.055 15.2332C14.415 14.8885 14.6664 14.5374 14.8316 14.1315C14.9969 13.7255 15.0761 13.2639 15.0906 12.6979L15.0906 12.6977C15.0978 12.4902 15.1086 12.3251 15.13 12.1957C15.1514 12.0665 15.1834 11.9712 15.2343 11.9044C15.2857 11.8369 15.3553 11.8 15.448 11.7852C15.5401 11.7706 15.6556 11.7778 15.8003 11.7986M14.4018 19.0999C14.7342 19.4182 14.9886 19.6135 15.2404 19.7149C15.4929 19.8165 15.7414 19.8232 16.0607 19.7676C16.5643 19.6849 17.1764 19.7125 17.6371 19.8021C17.8677 19.847 18.0591 19.9071 18.1798 19.976C18.2403 20.0105 18.2814 20.0463 18.3017 20.082C18.3211 20.1163 18.3217 20.1511 18.2996 20.1878M14.4018 19.0999L29.0151 18.8637M29.0151 18.8637C28.7841 19.569 28.6537 20.0544 28.6174 20.3394C28.6083 20.4108 28.605 20.4701 28.6077 20.5175C28.6103 20.5645 28.6189 20.6014 28.6348 20.6265C28.643 20.6393 28.6531 20.6493 28.6655 20.6558C28.678 20.6623 28.6918 20.6649 28.7066 20.664C28.7355 20.6624 28.7687 20.6479 28.8054 20.6233L29.0151 18.8637ZM29.0151 18.8637C29.0513 18.746 29.0782 18.6582 29.0934 18.5994C29.1011 18.5698 29.1056 18.5484 29.1069 18.5344C29.107 18.5337 29.1071 18.533 29.1071 18.5323C29.1046 18.5345 29.1018 18.5372 29.0985 18.5406C29.0861 18.5533 29.0696 18.5732 29.0484 18.6006C29.0062 18.6552 28.9469 18.7378 28.8675 18.8485C28.7302 19.0629 28.6079 19.207 28.4995 19.2753C28.445 19.3097 28.3927 19.3257 28.3432 19.3206C28.2935 19.3155 28.2488 19.2894 28.2092 19.2441C28.1306 19.1545 28.0687 18.9868 28.0208 18.7419C27.9728 18.4963 27.9384 18.1705 27.9167 17.7621C27.8951 17.3546 27.8464 17.0115 27.7808 16.7441C27.7151 16.4762 27.6326 16.2861 27.5446 16.1833C27.5007 16.132 27.4566 16.1038 27.4137 16.0969C27.3714 16.0901 27.3275 16.1037 27.2824 16.1421C27.1913 16.2199 27.1001 16.3958 27.0208 16.6858C26.9766 16.8828 26.8376 17.1062 26.6564 17.3076C26.475 17.5091 26.2498 17.6901 26.0315 17.8017C25.8149 17.9262 25.6651 18.0289 25.5945 18.1033C25.5769 18.1218 25.5649 18.1379 25.5578 18.1517C25.5508 18.1655 25.5495 18.1755 25.5511 18.1826C25.5527 18.1892 25.5574 18.196 25.5687 18.2023C25.5801 18.2086 25.5972 18.2139 25.6212 18.2172C25.6877 18.2174 25.7396 18.233 25.7754 18.2649C25.8116 18.2972 25.829 18.3443 25.8305 18.4021C25.8333 18.5165 25.7737 18.6795 25.6616 18.8785C25.4368 19.2779 24.9953 19.8322 24.3884 20.455C23.783 21.0901 23.3656 21.8419 23.2472 22.292C23.2176 22.4046 23.2071 22.4969 23.2162 22.5632C23.2252 22.6293 23.2527 22.6659 23.2965 22.6759C23.3429 22.6864 23.413 22.6691 23.5108 22.611C23.6078 22.5534 23.7292 22.4574 23.8769 22.316C23.9421 22.2535 23.9969 22.2062 24.0425 22.1745C24.0875 22.1431 24.1258 22.1252 24.1577 22.1252C24.1742 22.1252 24.189 22.13 24.2015 22.1401C24.2137 22.1499 24.2227 22.164 24.2294 22.1811C24.2426 22.2148 24.248 22.2638 24.248 22.3264C24.248 22.3946 24.2284 22.4769 24.1941 22.568C24.1597 22.6593 24.1102 22.7604 24.0497 22.8666C23.9287 23.0788 23.763 23.3121 23.5838 23.5287C23.4047 23.7454 23.2118 23.9458 23.0363 24.0922C22.9485 24.1654 22.8648 24.2253 22.789 24.267C22.7136 24.3086 22.6447 24.3329 22.5869 24.3329C22.47 24.3329 22.3784 24.3119 22.3147 24.2719C22.2503 24.2314 22.2153 24.1718 22.2114 24.0978C22.2076 24.0247 22.2343 23.9389 22.2901 23.8442C22.346 23.7494 22.4319 23.6446 22.548 23.5333C22.6488 23.4368 22.7121 23.3554 22.7361 23.2994C22.7484 23.2709 22.7489 23.2527 22.7441 23.2426C22.74 23.2341 22.7291 23.2262 22.7025 23.2262C22.6919 23.2262 22.6725 23.2324 22.6437 23.2472C22.6156 23.2616 22.5806 23.2831 22.5395 23.311C22.4575 23.3668 22.3522 23.4478 22.2314 23.5479C21.9899 23.7482 21.6869 24.0246 21.3839 24.3286C21.08 24.6335 20.7545 24.9106 20.4757 25.1117C20.3364 25.2123 20.2085 25.2939 20.1007 25.3506C19.9937 25.4068 19.9042 25.4396 19.8426 25.4396C19.7693 25.4396 19.6966 25.4049 19.6265 25.3452C19.5563 25.2853 19.4877 25.1994 19.4223 25.0943C19.2914 24.884 19.1718 24.5947 19.0777 24.2776C18.9835 23.9603 18.9147 23.6144 18.8857 23.2904C18.8568 22.9668 18.8675 22.664 18.9331 22.4334C18.9756 22.2567 18.9616 22.031 18.9042 21.8008C18.8468 21.5705 18.7463 21.3369 18.6173 21.1448C18.4867 20.9501 18.3849 20.7414 18.3267 20.5672C18.2976 20.4801 18.2792 20.4011 18.2737 20.3365C18.2682 20.2732 18.2748 20.2202 18.2996 20.1878M18.2996 20.1878C18.2995 20.1881 18.2993 20.1883 18.2992 20.1885L18.3115 20.196L18.3002 20.1871C18.3 20.1874 18.2998 20.1876 18.2996 20.1878ZM10.1178 8.14315L10.1178 8.14318C4.00196 14.4979 7.20311 24.7219 16.004 26.9328C19.0049 27.6789 22.1499 27.292 24.8622 25.8274L24.8623 25.8274C25.7704 25.3442 26.8091 24.4877 27.7365 23.5165C28.664 22.5453 29.479 21.4606 29.9403 20.5217C30.2867 19.8028 30.481 19.3201 30.589 18.6788C30.6971 18.037 30.7188 17.2358 30.7188 15.88C30.7188 14.4547 30.7043 13.6677 30.5819 13.0191C30.4595 12.3711 30.2292 11.8608 29.7959 10.9893C28.613 8.61299 26.6511 6.70622 24.0829 5.49018C23.202 5.07525 22.6328 4.84071 21.9773 4.70274C21.3216 4.56471 20.579 4.52321 19.3512 4.49554L19.351 4.49553C18.1811 4.45404 17.4166 4.461 16.7606 4.54385C16.1049 4.62666 15.5572 4.78536 14.821 5.04802C13.7672 5.43516 12.9956 5.78747 12.2855 6.25349C11.5755 6.71953 10.9263 7.29968 10.1178 8.14315ZM17.5405 10.2236L17.9938 9.59952C18.2826 9.23984 18.3404 8.9355 18.1671 8.88017L17.5405 10.2236ZM13.2402 23.2053L13.2402 23.2053L13.2404 23.2057C13.5425 23.867 14.1039 24.4876 14.7379 24.943C15.3721 25.3986 16.0769 25.6873 16.6649 25.6873C16.9574 25.6873 17.2423 25.8062 17.4217 25.957C17.5113 26.0324 17.5759 26.1167 17.6009 26.1995C17.6263 26.2833 17.6108 26.3652 17.5416 26.4316L17.5417 26.4318L17.5393 26.4333C17.5316 26.4382 17.5215 26.4413 17.5103 26.4434C17.4989 26.4456 17.4852 26.4469 17.4695 26.4474C17.4381 26.4484 17.3976 26.4466 17.3492 26.442C17.2524 26.4328 17.1228 26.4129 16.9691 26.3834C16.6617 26.3245 16.2569 26.2276 15.8233 26.103C12.7285 25.2443 10.0674 23.0559 8.73672 20.3407L8.73666 20.3406C8.45481 19.7523 8.26128 19.2639 8.15174 18.8876C8.09698 18.6995 8.06312 18.5391 8.0498 18.408C8.03651 18.2773 8.04349 18.1742 8.07182 18.1019C8.08606 18.0655 8.10588 18.0364 8.13166 18.0157C8.15753 17.9949 8.18865 17.9831 8.22436 17.9801C8.29508 17.9744 8.3838 18.0034 8.4889 18.0653C8.69952 18.1893 8.98419 18.4501 9.33821 18.8584C9.77184 19.3291 10.2055 19.8828 10.3215 20.0494C10.3492 20.0893 10.3986 20.1385 10.4651 20.1935C10.5314 20.2485 10.614 20.3087 10.7076 20.3707C10.8948 20.4949 11.1253 20.6259 11.3558 20.7363C11.5879 20.8475 11.8199 20.9933 12.0084 21.1391C12.1964 21.2845 12.343 21.4314 12.4023 21.545C12.518 21.7665 12.8936 22.5137 13.2402 23.2053Z" fill="#15156B" stroke="#4A4A4A" stroke-width="0.0288876"/>
<path d="M19.7999 8.40222C19.8595 8.51688 19.8662 8.67251 19.8334 8.82623C19.8005 8.9804 19.7273 9.1349 19.6243 9.24772C19.509 9.38576 19.4417 9.48636 19.4137 9.5513C19.3994 9.58444 19.3968 9.6051 19.3999 9.6161C19.4012 9.62083 19.4035 9.62349 19.4065 9.62526C19.4101 9.62726 19.4159 9.62878 19.4251 9.62842C19.4438 9.62767 19.4714 9.6194 19.508 9.60208C19.5441 9.58492 19.5877 9.5595 19.6379 9.52581C19.7382 9.45847 19.864 9.3587 20.008 9.22766C20.2209 9.02367 20.3064 8.71715 20.278 8.46168C20.2637 8.33401 20.2212 8.22021 20.153 8.13863C20.0852 8.05739 19.9916 8.00764 19.8734 8.00764C19.8256 8.00764 19.7857 8.04762 19.7683 8.12103C19.7511 8.19353 19.7577 8.29397 19.7999 8.40222Z" fill="#15156B" stroke="#4A4A4A" stroke-width="0.0288876"/>
<path d="M22.1089 11.545L22.1089 11.545L22.1078 11.546C22.0075 11.6354 21.9524 11.7162 21.9367 11.7859C21.9213 11.8541 21.9432 11.9139 22.0028 11.9646C22.0633 12.0161 22.1626 12.0579 22.3002 12.0868C22.4375 12.1155 22.6116 12.1311 22.8204 12.1311C23.0506 12.1311 23.2511 12.1034 23.3827 12.059C23.4488 12.0367 23.4956 12.0108 23.5207 11.9836C23.533 11.9702 23.5394 11.9572 23.541 11.9446C23.5426 11.9322 23.5397 11.9187 23.5304 11.9037C23.482 11.8307 23.3819 11.7576 23.2535 11.6925C23.1255 11.6276 22.9712 11.5716 22.8168 11.5319C22.6623 11.4922 22.5083 11.4691 22.3808 11.4695C22.317 11.4697 22.2604 11.4758 22.2138 11.4885C22.1671 11.5011 22.1316 11.52 22.1089 11.545ZM22.0875 11.5255C22.0877 11.5253 22.0878 11.5251 22.088 11.525L23.5426 11.8959C23.3403 11.5907 22.3004 11.3133 22.0982 11.5353L22.0875 11.5255Z" fill="#15156B" stroke="#4A4A4A" stroke-width="0.0288876"/>
<path d="M24.8279 11.454C24.8279 11.4822 24.8406 11.5315 24.8646 11.5978C24.8884 11.6635 24.9226 11.744 24.9643 11.8339C25.0476 12.0138 25.1602 12.2304 25.2774 12.4394C25.3947 12.6485 25.5163 12.8495 25.6176 12.9982C25.6682 13.0726 25.7135 13.1335 25.7505 13.1757C25.769 13.1969 25.7851 13.2129 25.7984 13.2236C25.8051 13.2289 25.8107 13.2326 25.8154 13.2349C25.8202 13.2373 25.8231 13.2379 25.8245 13.2379C25.832 13.2379 25.8371 13.2356 25.8411 13.2318C25.8455 13.2277 25.8495 13.2208 25.8523 13.2099C25.8581 13.1878 25.858 13.154 25.8518 13.11C25.8394 13.0225 25.8037 12.9008 25.7532 12.7663C25.6525 12.4975 25.4943 12.1809 25.3511 11.9887C25.2774 11.9039 25.2328 11.8046 25.2216 11.7151C25.2105 11.6266 25.232 11.5448 25.2944 11.4988C25.3351 11.4461 25.3375 11.4059 25.3182 11.3795C25.2972 11.3508 25.2458 11.3301 25.1601 11.3301C25.0601 11.3301 24.9754 11.3438 24.9163 11.3671C24.8559 11.3909 24.8279 11.4221 24.8279 11.454Z" fill="#15156B" stroke="#4A4A4A" stroke-width="0.0288876"/>
<path d="M17.3958 12.2147L17.3958 12.2147L17.3954 12.2149C17.2092 12.2971 17.0447 12.4137 16.927 12.5367C16.8087 12.6603 16.7396 12.7883 16.7396 12.8933C16.7396 13.094 16.5896 13.2674 16.3785 13.2674C16.2925 13.2674 16.2312 13.2813 16.1988 13.303C16.1829 13.3137 16.1753 13.3252 16.1734 13.337C16.1715 13.3484 16.1747 13.3629 16.1864 13.3806C16.1952 13.3856 16.2087 13.3902 16.2273 13.3941C16.2474 13.3982 16.2725 13.4012 16.3021 13.4029C16.3613 13.4063 16.4373 13.4046 16.5254 13.3977C16.7014 13.3839 16.9244 13.3495 17.1547 13.2944C17.4279 13.2117 17.6348 13.1088 17.7769 12.9762C17.9186 12.8438 17.9965 12.6813 18.0107 12.4773L18.0107 12.4773L18.0107 12.4771C18.0251 12.3114 18.0323 12.1595 18.0359 12.0525C18.0377 11.9989 18.0386 11.9567 18.0391 11.9295L18.0393 11.9161C18.0383 11.9164 18.0373 11.9168 18.0363 11.9172C18.0253 11.9211 18.0106 11.9271 17.9924 11.9348C17.956 11.9503 17.9066 11.9727 17.847 12.0003C17.7279 12.0556 17.5692 12.1317 17.3958 12.2147Z" fill="#15156B" stroke="#4A4A4A" stroke-width="0.0288876"/>
<path d="M18.7332 12.6149H18.7333L18.7331 12.6164C18.7044 12.9055 18.7187 13.2295 18.7547 13.4984C18.7727 13.6328 18.7961 13.7532 18.822 13.8484C18.848 13.9434 18.8759 14.0111 18.9023 14.0434C18.9163 14.0548 18.9439 14.0669 18.9859 14.0789C19.0282 14.091 19.0831 14.1025 19.149 14.1132C19.2807 14.1346 19.455 14.1529 19.6573 14.168C20.0618 14.1983 20.5769 14.2156 21.084 14.219C21.5912 14.2225 22.09 14.2121 22.4619 14.1871C22.6479 14.1745 22.8017 14.1584 22.9088 14.1385C22.9625 14.1286 23.0037 14.1179 23.0311 14.1065C23.0449 14.1008 23.0543 14.0954 23.0601 14.0904C23.0658 14.0854 23.0663 14.0824 23.0663 14.0813C23.0663 13.9247 22.9299 13.8191 22.7919 13.8191C22.7452 13.8191 22.6814 13.7988 22.6075 13.7641C22.533 13.7291 22.4466 13.6785 22.3541 13.616C22.1692 13.491 21.9592 13.3176 21.7708 13.1233C21.6483 13.013 21.5423 12.9235 21.4521 12.8556C21.3617 12.7875 21.288 12.7417 21.2301 12.7182C21.1715 12.6944 21.1339 12.6953 21.111 12.7122C21.0876 12.7294 21.0731 12.7678 21.0731 12.8363C21.0731 13.0896 20.9474 13.237 20.7928 13.2518C20.6393 13.2665 20.4686 13.149 20.3807 12.8966C20.3596 12.8428 20.3341 12.8081 20.3049 12.7902C20.2765 12.7726 20.2424 12.7697 20.2003 12.7842C20.1578 12.7989 20.108 12.8312 20.0505 12.8829C19.993 12.9345 19.9286 13.0047 19.8566 13.0943L19.8566 13.0943L19.8563 13.0946C19.7253 13.2481 19.5791 13.3603 19.4394 13.4202C19.2999 13.48 19.1649 13.4882 19.0585 13.4299L19.0584 13.43L19.0576 13.4294C18.927 13.3461 18.8563 13.2664 18.8524 13.1688C18.8504 13.1205 18.865 13.0696 18.8942 13.0137C18.9233 12.958 18.9673 12.8965 19.0254 12.827L19.0254 12.827L19.0259 12.8264C19.1411 12.7024 19.1954 12.6022 19.1954 12.5181C19.1954 12.4357 19.1429 12.3635 19.0292 12.2954C18.9632 12.2575 18.8907 12.2696 18.8334 12.3245C18.7757 12.3798 18.7332 12.4794 18.7332 12.6149Z" fill="#15156B" stroke="#4A4A4A" stroke-width="0.0288876"/>
<path d="M23.6984 16.76L23.6984 16.76L23.6985 16.7602C23.7778 16.9951 23.8517 17.1848 23.9177 17.3277C23.984 17.4711 24.0418 17.5658 24.0886 17.6123C24.1122 17.6358 24.1305 17.6443 24.1436 17.6442C24.1552 17.6441 24.1677 17.6368 24.1798 17.614C24.192 17.5912 24.202 17.5555 24.2088 17.5058C24.2156 17.4563 24.2192 17.3939 24.2192 17.3182C24.2192 17.2249 24.17 17.0753 24.0907 16.9094C24.0116 16.7443 23.9039 16.5654 23.789 16.4141C23.6951 16.2965 23.6234 16.2107 23.573 16.1603C23.5476 16.1349 23.5289 16.1198 23.5163 16.1137C23.5133 16.1123 23.5111 16.1115 23.5095 16.1112C23.5087 16.1111 23.5081 16.111 23.5078 16.111C23.5076 16.1113 23.5073 16.1119 23.507 16.1128C23.5057 16.1163 23.5047 16.1226 23.505 16.133C23.5053 16.1431 23.5068 16.156 23.5096 16.1719C23.5153 16.2036 23.5261 16.2461 23.542 16.2999C23.5739 16.4076 23.6262 16.5594 23.6984 16.76Z" fill="#15156B" stroke="#4A4A4A" stroke-width="0.0288876"/>
<path d="M5.58237 8.64439L5.58223 8.64449C3.64867 9.99884 2.55261 11.2973 1.62932 13.204C1.21183 14.0727 0.995229 15.4673 0.980793 16.9226C0.966359 18.3775 1.15404 19.8904 1.54327 20.995C2.43815 23.5109 4.25723 26.7467 6.79901 30.343C7.46358 31.27 8.07041 32.1833 8.51115 32.903C8.73151 33.2628 8.91046 33.5744 9.03436 33.8152C9.09631 33.9356 9.14461 34.0385 9.17746 34.121C9.21005 34.2029 9.22825 34.2666 9.22825 34.3077C9.22825 34.3658 9.23454 34.4111 9.24808 34.4439C9.26137 34.476 9.28133 34.4955 9.30958 34.504C9.33875 34.5127 9.37892 34.5104 9.43343 34.4933C9.48772 34.4764 9.55464 34.4454 9.63637 34.3989C9.96371 34.2129 10.5187 33.785 11.429 33.0515C12.0359 32.5533 12.6429 32.0966 13.1271 31.7643C13.3692 31.5982 13.5809 31.463 13.7466 31.3694C13.8294 31.3225 13.901 31.2859 13.9594 31.261C14.0171 31.2363 14.0637 31.2222 14.0958 31.2222C14.1703 31.2222 14.2673 31.2431 14.3791 31.2795C14.4912 31.316 14.6193 31.3685 14.7564 31.4324C15.0306 31.5602 15.3417 31.7343 15.6346 31.9196C15.9275 32.1049 16.2025 32.3015 16.4045 32.4746C16.5055 32.5611 16.5886 32.6421 16.6465 32.713C16.6755 32.7484 16.6985 32.7817 16.7143 32.8122C16.73 32.8425 16.7391 32.871 16.7391 32.8967C16.7391 32.9864 16.6843 33.0596 16.6021 33.1096C16.52 33.1597 16.4089 33.1878 16.2913 33.1878C16.0773 33.1878 15.803 33.2563 15.495 33.3775C15.1871 33.4986 14.8466 33.672 14.5005 33.8809C13.8082 34.2987 13.0944 34.8581 12.5755 35.4241C12.2007 35.8521 11.9308 36.2538 11.7645 36.6153C11.5982 36.977 11.5361 37.2974 11.5752 37.5634C11.6143 37.8288 11.7544 38.0413 11.9954 38.1878C12.237 38.3347 12.5807 38.4157 13.027 38.4157C13.4994 38.4157 13.8557 38.2309 14.0802 37.893C14.3052 37.5544 14.399 37.0602 14.3415 36.4396C14.2981 36.0518 14.3119 35.805 14.4668 35.5859C14.6207 35.3683 14.9128 35.1801 15.4177 34.9037L15.418 34.9036C15.7363 34.7373 16.098 34.578 16.4273 34.4601C16.756 34.3425 17.0541 34.2656 17.2446 34.2656C17.5188 34.2656 17.6857 34.2997 17.7805 34.4559C17.8273 34.5329 17.8556 34.6382 17.8724 34.7803C17.8892 34.9225 17.8946 35.1031 17.8946 35.3314C17.8946 36.0534 17.6916 36.5836 17.3119 36.9193L17.3118 36.9194C16.7386 37.4135 16.6104 38.0641 16.8392 38.6427C17.0682 39.222 17.656 39.7311 18.519 39.9378L18.519 39.9378L18.5193 39.9378C18.8911 40.0337 19.3647 39.9791 19.7964 39.8275C20.2282 39.6759 20.615 39.4283 20.8148 39.1412L20.8151 39.1408C21.0285 38.8547 21.0865 38.4028 21.0182 37.962C20.9499 37.5214 20.756 37.0964 20.4709 36.8643L20.4709 36.8643C20.164 36.6124 19.975 36.2075 19.9168 35.783C19.8587 35.3584 19.9312 34.9121 20.1502 34.5765L20.1502 34.5764C20.2014 34.4993 20.2552 34.4404 20.3223 34.4004C20.3895 34.3603 20.4689 34.34 20.57 34.3383C20.7713 34.3347 21.0624 34.4047 21.5241 34.5429L21.5242 34.5429C22.3335 34.7921 22.8709 35.0488 23.2058 35.394C23.5415 35.74 23.6721 36.173 23.6721 36.7701C23.6721 37.3361 23.7731 37.7472 23.9832 38.0166C24.1927 38.2853 24.5128 38.4157 24.9576 38.4157C25.3591 38.4157 25.68 38.2922 25.9005 38.0639C26.1212 37.8355 26.2431 37.5006 26.2431 37.0744C26.2431 36.953 26.2003 36.8066 26.1215 36.6421C26.0427 36.4777 25.9285 36.2964 25.7869 36.1056C25.5037 35.724 25.1117 35.3054 24.6771 34.9098C24.2425 34.5143 23.7656 34.1422 23.3127 33.8535C22.8597 33.5646 22.432 33.3601 22.0954 33.2983C21.8059 33.2567 21.5451 33.1943 21.3563 33.1282C21.262 33.0952 21.1851 33.0611 21.1314 33.0279C21.1046 33.0113 21.0831 32.9946 21.068 32.9779C21.0531 32.9613 21.0433 32.9433 21.0433 32.9244C21.0433 32.904 21.0549 32.8806 21.0724 32.856C21.0904 32.8308 21.1164 32.8019 21.1491 32.77C21.2146 32.7062 21.3082 32.6292 21.4215 32.5441C21.6481 32.3738 21.9546 32.1704 22.2744 31.9748C22.5942 31.7793 22.9277 31.5914 23.2085 31.4524C23.3489 31.3829 23.4763 31.3255 23.5823 31.2855C23.6878 31.2456 23.774 31.2222 23.831 31.2222C23.8841 31.2222 23.9506 31.2381 24.0289 31.2679C24.1075 31.2979 24.199 31.3423 24.3025 31.4005C24.5096 31.5167 24.7656 31.6883 25.0637 31.9099C25.6601 32.3529 26.426 32.9965 27.3073 33.799L28.4742 34.8621L28.6702 34.138L28.6702 34.1379C28.6997 34.0322 28.7944 33.837 28.9401 33.5757C29.0861 33.3139 29.2839 32.9842 29.5205 32.6089C29.9937 31.8581 30.6222 30.9241 31.3012 29.9833C34.334 25.7093 36.1236 22.1837 36.726 19.1468C37.3283 16.1108 36.7442 13.5626 35.0278 11.242C34.5955 10.6622 33.7226 9.80542 32.9284 9.12086C32.5314 8.77865 32.1545 8.47989 31.8627 8.2806C31.7167 8.18089 31.5925 8.10645 31.4979 8.06385C31.4506 8.04251 31.4115 8.02954 31.3812 8.02508C31.3505 8.02054 31.3324 8.0253 31.3229 8.03442C31.3238 8.03357 31.3235 8.0333 31.323 8.03527C31.3225 8.03716 31.3221 8.0402 31.3222 8.04469C31.3223 8.05367 31.3241 8.06636 31.3277 8.08295C31.3349 8.11599 31.3489 8.162 31.3694 8.21975C31.4103 8.33511 31.4761 8.49555 31.5609 8.68912C31.7304 9.07613 31.9759 9.59461 32.2502 10.1478C35.2881 15.967 32.5086 23.0847 25.2547 28.0669L25.2465 28.055L25.2547 28.0669C24.3877 28.662 23.2247 29.3884 22.2423 29.9661C21.7511 30.2549 21.3049 30.5066 20.9634 30.6862C20.7927 30.776 20.6479 30.8478 20.5367 30.8972C20.4811 30.9219 20.4336 30.9411 20.3954 30.9541C20.3577 30.967 20.3274 30.9745 20.3067 30.9745C20.2958 30.9745 20.287 30.9687 20.2804 30.9614C20.2739 30.9542 20.2684 30.9444 20.2636 30.933C20.254 30.91 20.2458 30.8772 20.2388 30.8362C20.2246 30.754 20.2146 30.6357 20.2092 30.4902C20.1984 30.1991 20.2056 29.7974 20.2345 29.3544L20.3203 27.7927H18.9779H17.6057V29.383V31.0154V31.0395L17.5844 31.0281L15.9378 30.1427L15.9378 30.1427C12.0075 28.0115 8.68345 25.1604 6.71749 22.253L6.71744 22.2529C5.12711 19.8713 4.51961 17.9042 4.46177 15.1901L4.46177 15.1899C4.43285 12.4206 5.01132 10.5081 6.48704 8.65134L6.48722 8.65113C6.76146 8.31936 6.99232 8.01533 7.14734 7.79435C7.22489 7.68381 7.28327 7.59431 7.3186 7.53263C7.33636 7.50163 7.34788 7.47836 7.35323 7.46323C7.35349 7.46251 7.35372 7.46182 7.35394 7.46117C7.35308 7.46152 7.35216 7.4619 7.35122 7.46231C7.34242 7.4661 7.33071 7.47186 7.31614 7.47961C7.28704 7.4951 7.24736 7.51807 7.19825 7.54784C7.10007 7.60736 6.96483 7.69371 6.80241 7.80087C6.4776 8.01518 6.04444 8.31249 5.58237 8.64439Z" fill="#15156B" stroke="#4A4A4A" stroke-width="0.0288876"/>
<path d="M203.16 25.4342L203.161 25.4339C204.742 24.5866 205.959 23.4304 206.809 21.9654C207.659 20.5014 208.082 18.8582 208.082 17.0399C208.082 15.2042 207.659 13.5605 206.809 12.1136C205.959 10.6659 204.74 9.53611 203.158 8.72452C201.594 7.91211 199.77 7.50877 197.693 7.50877H189.497H189.332V7.67413V26.5121V26.6774H189.497H197.693C199.771 26.6774 201.595 26.2649 203.16 25.4342ZM200.333 20.0296C199.556 20.723 198.497 21.0785 197.137 21.0785H195.83V13.0013H197.137C198.497 13.0013 199.556 13.3567 200.333 14.0502C201.105 14.739 201.5 15.727 201.5 17.0399C201.5 18.3528 201.105 19.3408 200.333 20.0296Z" fill="#2A3680" stroke="#4A4A4A" stroke-width="0.330728"/>
<path d="M186.876 7.67413V7.50877H186.711H180.543H180.378V7.67413V26.5121V26.6774H180.543H186.711H186.876V26.5121V7.67413Z" fill="#2A3680" stroke="#4A4A4A" stroke-width="0.330728"/>
<path d="M164.142 26.6774H164.26L164.299 26.5655L165.233 23.8304H171.553L172.487 26.5655L172.525 26.6774H172.643H179.144H179.384L179.299 26.4533L172.131 7.61533L172.09 7.50877H171.976H164.864H164.75L164.71 7.61513L157.514 26.4531L157.429 26.6774H157.669H164.142ZM166.845 19.0563L168.393 14.4948L169.94 19.0563H166.845Z" fill="#2A3680" stroke="#4A4A4A" stroke-width="0.330728"/>
<path d="M142.656 26.6774H142.774L142.813 26.5655L143.747 23.8304H150.067L151.001 26.5655L151.039 26.6774H151.157H157.658H157.898L157.813 26.4533L150.645 7.61533L150.605 7.50877H150.491H143.379H143.265L143.224 7.61513L136.029 26.4531L135.943 26.6774H136.183H142.656ZM145.359 19.0563L146.907 14.4948L148.454 19.0563H145.359Z" fill="#F47E31" stroke="#4A4A4A" stroke-width="0.330728"/>
<path d="M121.973 25.2629L121.974 25.2642C123.546 26.3338 125.525 26.8627 127.902 26.8627C129.475 26.8627 130.842 26.6025 131.998 26.0762C133.152 25.5508 134.04 24.8222 134.652 23.8877L134.653 23.8865C135.263 22.936 135.568 21.867 135.568 20.684C135.568 19.5531 135.263 18.6007 134.642 17.839C134.035 17.0944 133.313 16.5119 132.477 16.0931C131.672 15.6809 130.647 15.2526 129.402 14.8079C128.332 14.4192 127.555 14.0948 127.066 13.8347C126.619 13.5705 126.428 13.2629 126.428 12.9147C126.428 12.6438 126.502 12.4621 126.627 12.3424L126.627 12.3425L126.633 12.3362C126.766 12.1944 126.935 12.1222 127.152 12.1222C127.484 12.1222 127.759 12.2246 127.986 12.4263C128.197 12.6141 128.33 12.9419 128.348 13.4526L128.353 13.6122H128.513H135.153H135.324L135.318 13.4405C135.242 11.4623 134.471 9.91505 133.002 8.81804C131.557 7.72556 129.61 7.18846 127.179 7.18846C125.736 7.18846 124.428 7.41288 123.258 7.86474L123.258 7.86474L123.257 7.86507C122.103 8.3183 121.179 8.99173 120.492 9.88729L120.491 9.88777C119.818 10.7717 119.485 11.8456 119.485 13.0997C119.466 14.3507 119.76 15.3913 120.38 16.2076C120.987 17.0067 121.71 17.618 122.549 18.0382L122.55 18.0388C123.392 18.4509 124.446 18.8704 125.71 19.2975L125.71 19.2976C126.763 19.6515 127.529 19.9667 128.014 20.2425L128.014 20.2426L128.018 20.2447C128.482 20.4914 128.681 20.7983 128.681 21.163C128.681 21.4331 128.583 21.6174 128.395 21.7428C128.206 21.8632 127.961 21.9289 127.652 21.9289C127.232 21.9289 126.929 21.8053 126.717 21.5762C126.502 21.3429 126.361 20.9782 126.316 20.4571L126.303 20.3058H126.151H119.595H119.419L119.43 20.4817C119.562 22.5659 120.408 24.1666 121.973 25.2629Z" fill="#F47E31" stroke="#4A4A4A" stroke-width="0.330728"/>
<path d="M118.432 22.042V21.8767H118.267H112.487V7.67413V7.50877H112.322H106.154H105.989V7.67413V26.5121V26.6774H106.154H118.267H118.432V26.5121V22.042Z" fill="#F47E31" stroke="#4A4A4A" stroke-width="0.330728"/>
<path d="M89.748 26.6774H89.8663L89.9045 26.5655L90.8386 23.8304H97.1585L98.0926 26.5655L98.1309 26.6774H98.2491H104.75H104.99L104.905 26.4533L97.7369 7.61533L97.6964 7.50877H97.5824H90.4703H90.3565L90.3158 7.61513L83.1204 26.4531L83.0347 26.6774H83.2749H89.748ZM92.4513 19.0563L93.9986 14.4948L95.5459 19.0563H92.4513Z" fill="#F47E31" stroke="#4A4A4A" stroke-width="0.330728"/>
<path d="M82.0563 7.67413V7.50877H81.891H75.7235H75.5581V7.67413V14.2936H70.0269V7.67413V7.50877H69.8616H63.6941H63.5287V7.67413V26.5121V26.6774H63.6941H69.8616H70.0269V26.5121V19.3338H75.5581V26.5121V26.6774H75.7235H81.891H82.0563V26.5121V7.67413Z" fill="#F47E31" stroke="#4A4A4A" stroke-width="0.330728"/>
<path d="M54.4775 26.6069L54.5268 26.6774H54.6129H61.9472H62.2742L62.0804 26.4141L54.9301 16.695L61.6349 7.77348L61.8338 7.50877H61.5027H54.5295H54.4442L54.3948 7.57829L49.0553 15.0853V7.67413V7.50877H48.8899H42.7224H42.557V7.67413V26.5121V26.6774H42.7224H48.8899H49.0553V26.5121V18.8678L54.4775 26.6069Z" fill="#F47E31" stroke="#4A4A4A" stroke-width="0.330728"/>
<path d="M207.968 34.653V34.504H207.819H206.323V30.6326V30.4836H206.174H205.173H205.024V30.6326V35.4132V35.5622H205.173H207.819H207.968V35.4132V34.653Z" fill="#2A3680" stroke="#4A4A4A" stroke-width="0.297966"/>
<path d="M197.648 35.564H197.753L197.789 35.4656L198.082 34.6531H199.861L200.154 35.4656L200.19 35.564H200.294H201.353H201.568L201.492 35.3627L199.697 30.5752L199.661 30.4785H199.558H198.392H198.289L198.253 30.5752L196.458 35.3627L196.382 35.564H196.597H197.648ZM198.461 33.588L198.971 32.1757L199.481 33.588H198.461Z" fill="#2A3680" stroke="#4A4A4A" stroke-width="0.297966"/>
<path d="M192.768 35.564H192.917V35.415V30.6275V30.4785H192.768H191.767H191.618V30.6275V33.4365L189.623 30.5429L189.578 30.4785H189.5H188.499H188.35V30.6275V35.415V35.564H188.499H189.5H189.649V35.415V32.612L191.644 35.4997L191.689 35.564H191.767H192.768Z" fill="#2A3680" stroke="#4A4A4A" stroke-width="0.297966"/>
<path d="M179.71 34.3549L179.71 34.3549L179.71 34.3556C179.953 34.7481 180.282 35.0561 180.696 35.2783C181.11 35.5006 181.563 35.6111 182.054 35.6111C182.544 35.6111 182.998 35.5006 183.411 35.2783C183.825 35.0561 184.152 34.7479 184.39 34.3549C184.635 33.9554 184.756 33.5058 184.756 33.0101C184.756 32.5191 184.635 32.0741 184.391 31.6793C184.153 31.2819 183.825 30.9714 183.412 30.749C183.002 30.5263 182.548 30.416 182.054 30.416C181.563 30.416 181.11 30.5265 180.696 30.7488C180.282 30.9712 179.953 31.2816 179.71 31.6787C179.465 32.0737 179.344 32.5189 179.344 33.0101C179.344 33.5058 179.465 33.9554 179.71 34.3549ZM183.252 32.2445L183.252 32.2445L183.253 32.2455C183.368 32.4575 183.428 32.7107 183.428 33.0101C183.428 33.3094 183.368 33.5655 183.252 33.7826C183.136 34.0006 182.977 34.1668 182.774 34.2847C182.57 34.398 182.332 34.457 182.054 34.457C181.776 34.457 181.534 34.3982 181.326 34.2843C181.123 34.1665 180.964 34.0004 180.848 33.7826C180.732 33.5655 180.672 33.3094 180.672 33.0101C180.672 32.7107 180.732 32.4575 180.847 32.2455L180.847 32.2455L180.848 32.2445C180.964 32.0268 181.122 31.8634 181.325 31.7501C181.534 31.636 181.775 31.577 182.054 31.577C182.332 31.577 182.571 31.6361 182.775 31.7498C182.977 31.8631 183.136 32.0266 183.252 32.2445Z" fill="#2A3680" stroke="#4A4A4A" stroke-width="0.297966"/>
<path d="M175.752 30.6327V30.4837H175.603H174.602H174.453V30.6327V35.4134V35.5623H174.602H175.603H175.752V35.4134V30.6327Z" fill="#2A3680" stroke="#4A4A4A" stroke-width="0.297966"/>
<path d="M170.872 30.6326V30.4836H170.723H167.062H166.913V30.6326V31.4065V31.5555H167.062H168.243V35.4132V35.5622H168.392H169.393H169.542V35.4132V31.5555H170.723H170.872V31.4065V30.6326Z" fill="#2A3680" stroke="#4A4A4A" stroke-width="0.297966"/>
<path d="M159.807 35.564H159.912L159.947 35.4656L160.241 34.6531H162.02L162.313 35.4656L162.349 35.564H162.453H163.512H163.727L163.651 35.3627L161.856 30.5752L161.82 30.4785H161.717H160.551H160.448L160.412 30.5752L158.617 35.3627L158.541 35.564H158.756H159.807ZM160.62 33.588L161.13 32.1757L161.64 33.588H160.62Z" fill="#2A3680" stroke="#4A4A4A" stroke-width="0.297966"/>
<path d="M154.925 35.564H155.074V35.415V30.6275V30.4785H154.925H153.924H153.775V30.6275V33.4365L151.78 30.5429L151.735 30.4785H151.657H150.656H150.507V30.6275V35.415V35.564H150.656H151.657H151.806V35.415V32.612L153.801 35.4997L153.846 35.564H153.924H154.925Z" fill="#2A3680" stroke="#4A4A4A" stroke-width="0.297966"/>
<path d="M145.375 35.4891L145.419 35.5622H145.504H146.662H146.929L146.789 35.3351L145.696 33.5616C146.008 33.4522 146.258 33.2815 146.438 33.0445L146.438 33.0445L146.438 33.0435C146.648 32.7624 146.754 32.4459 146.754 32.0983C146.754 31.7985 146.678 31.5246 146.525 31.2807C146.374 31.0288 146.147 30.835 145.854 30.6968C145.557 30.5525 145.205 30.4836 144.803 30.4836H142.929H142.78V30.6326V35.4132V35.5622H142.929H143.93H144.079V35.4132V33.6993H144.317L145.375 35.4891ZM145.274 31.7215L145.274 31.7215L145.276 31.7233C145.371 31.8075 145.426 31.9318 145.426 32.1188C145.426 32.3105 145.37 32.4438 145.273 32.5377C145.178 32.6249 145.019 32.6822 144.767 32.6822H144.079V31.5761H144.767C145.019 31.5761 145.179 31.6337 145.274 31.7215Z" fill="#2A3680" stroke="#4A4A4A" stroke-width="0.297966"/>
<path d="M138.808 32.6069V32.4579H138.659H137.127V31.5573H138.874H139.023V31.4083V30.6275V30.4785H138.874H135.977H135.828V30.6275V35.415V35.564H135.977H138.874H139.023V35.415V34.6342V34.4852H138.874H137.127V33.5161H138.659H138.808V33.3671V32.6069Z" fill="#2A3680" stroke="#4A4A4A" stroke-width="0.297966"/>
<path d="M132.251 30.6327V30.4837H132.102H128.441H128.292V30.6327V31.4067V31.5556H128.441H129.622V35.4134V35.5623H129.771H130.772H130.921V35.4134V31.5556H132.102H132.251V31.4067V30.6327Z" fill="#2A3680" stroke="#4A4A4A" stroke-width="0.297966"/>
<path d="M124.567 35.564H124.716V35.415V30.6275V30.4785H124.567H123.565H123.416V30.6275V33.4365L121.421 30.5429L121.377 30.4785H121.299H120.297H120.148V30.6275V35.415V35.564H120.297H121.299H121.448V35.415V32.612L123.443 35.4997L123.487 35.564H123.565H124.567Z" fill="#2A3680" stroke="#4A4A4A" stroke-width="0.297966"/>
<path d="M116.311 30.6326V30.4836H116.162H115.161H115.012V30.6326V35.4132V35.5622H115.161H116.162H116.311V35.4132V30.6326Z" fill="#2A3680" stroke="#4A4A4A" stroke-width="0.297966"/>
</svg>
