<svg width="60" height="16" viewBox="0 0 60 16" fill="none" xmlns="http://www.w3.org/2000/svg">
<path d="M49.5452 9.71087C47.6416 10.8236 46.1888 11.6834 44.7861 12.4926C44.2851 12.7961 43.7842 13.049 43.3333 13.403C42.682 13.8582 41.7803 14.364 42.2813 15.325C42.7822 16.2354 43.7341 15.8307 44.4354 15.5779C45.1869 15.3756 45.9383 14.9709 46.6396 14.6169C49.8959 13.049 53.1522 11.4305 56.3583 9.81203C57.21 9.35683 58.1117 8.95221 58.8631 8.34528C60.4662 7.13142 60.366 5.91756 58.6127 5.00717C56.2581 3.79331 53.8535 2.68061 51.4489 1.5679C50.447 1.06213 49.3949 0.556356 48.3429 0.202314C47.7418 4.62749e-06 47.0404 0.0505774 46.3892 0C46.1888 1.41617 46.9903 1.71964 47.6917 2.07368C49.445 3.03465 51.2485 3.94505 53.0019 4.90602C53.603 5.26006 54.2543 5.6141 54.8554 6.42334C53.9537 6.5245 53.1021 6.67622 52.2003 6.7268C45.4373 7.08084 38.7244 7.43489 31.9614 7.78893C22.1426 8.2947 12.3738 8.80047 2.55492 9.35683C1.75338 9.4074 0.951832 9.71087 0 9.96376C0.901733 11.3294 1.95376 11.0259 2.8054 10.9753C7.61464 10.8742 12.474 10.6718 17.2832 10.5201C27.6532 10.1661 38.0231 9.81203 48.393 9.45799C48.6435 9.50856 48.7938 9.55914 49.5452 9.71087Z" fill="#34C4F2"/>
</svg>
