<svg width="40" height="12" viewBox="0 0 40 12" fill="none" xmlns="http://www.w3.org/2000/svg">
<path d="M33.0301 7.17753C31.761 7.91933 30.7925 8.49254 29.8574 9.03203C29.5234 9.23435 29.1894 9.40293 28.8889 9.63896C28.4547 9.94242 27.8535 10.2796 28.1875 10.9203C28.5215 11.5272 29.156 11.2574 29.6236 11.0889C30.1246 10.954 30.6255 10.6842 31.0931 10.4482C33.2639 9.40294 35.4348 8.32395 37.5722 7.24496C38.14 6.9415 38.7411 6.67175 39.2421 6.26713C40.3108 5.45789 40.244 4.64866 39.0751 4.04173C37.5054 3.23249 35.9023 2.49068 34.2993 1.74888C33.6313 1.4117 32.93 1.07452 32.2286 0.83849C31.8278 0.703616 31.3603 0.737332 30.9261 0.703613C30.7925 1.64773 31.3269 1.85004 31.7944 2.08607C32.9634 2.72671 34.1657 3.33364 35.3346 3.97429C35.7354 4.21032 36.1695 4.44635 36.5703 4.98584C35.9691 5.05328 35.4014 5.15443 34.8002 5.18815C30.2916 5.42418 25.8163 5.66021 21.3076 5.89623C14.7617 6.23342 8.24919 6.5706 1.70327 6.9415C1.16891 6.97522 0.634552 7.17753 0 7.34612C0.601154 8.25651 1.30251 8.0542 1.87026 8.02049C5.07642 7.95305 8.31598 7.81817 11.5221 7.71702C18.4354 7.48099 25.3487 7.24497 32.262 7.00894C32.429 7.04266 32.5292 7.07637 33.0301 7.17753Z" fill="#1F1F1F"/>
</svg>
