<svg width="41" height="12" viewBox="0 0 41 12" fill="none" xmlns="http://www.w3.org/2000/svg">
<path d="M33.4167 6.97392C32.1476 7.71572 31.1791 8.28893 30.244 8.82842C29.91 9.03073 29.576 9.19932 29.2755 9.43535C28.8413 9.73881 28.2401 10.076 28.5741 10.7166C28.9081 11.3236 29.5426 11.0538 30.0102 10.8852C30.5112 10.7504 31.0121 10.4806 31.4797 10.2446C33.6505 9.19932 35.8214 8.12034 37.9588 7.04135C38.5266 6.73789 39.1277 6.46814 39.6287 6.06352C40.6974 5.25428 40.6306 4.44504 39.4617 3.83811C37.892 3.02887 36.2889 2.28707 34.6859 1.54527C34.0179 1.20809 33.3166 0.870904 32.6152 0.634876C32.2144 0.500003 31.7469 0.533718 31.3127 0.5C31.1791 1.44411 31.7135 1.64642 32.181 1.88245C33.35 2.5231 34.5523 3.13003 35.7212 3.77068C36.1219 4.00671 36.5561 4.24273 36.9569 4.78223C36.3557 4.84966 35.788 4.95082 35.1868 4.98453C30.6782 5.22056 26.2029 5.45659 21.6942 5.69262C15.1483 6.0298 8.63579 6.36698 2.08987 6.73788C1.55551 6.7716 1.02115 6.97392 0.386595 7.14251C0.987751 8.0529 1.6891 7.85059 2.25686 7.81687C5.46302 7.74944 8.70258 7.61456 11.9087 7.51341C18.822 7.27738 25.7353 7.04135 32.6486 6.80532C32.8156 6.83904 32.9158 6.87276 33.4167 6.97392Z" fill="white"/>
</svg>
