<svg width="37" height="32" viewBox="0 0 37 32" fill="none" xmlns="http://www.w3.org/2000/svg">
<g style="mix-blend-mode:luminosity">
<path d="M30.7251 0H6.2749C4.19008 0 2.5 1.69022 2.5 3.77521V28.2248C2.5 30.3098 4.19008 32 6.2749 32H30.7251C32.8099 32 34.5 30.3098 34.5 28.2248V3.77521C34.5 1.69022 32.8099 0 30.7251 0Z" fill="url(#paint0_linear_2594_39514)"/>
<path d="M15.6575 15.0698C15.6575 15.0698 18.2825 14.8748 18.2825 11.7973C18.2825 8.71978 16.135 7.21729 13.415 7.21729H4.46497V24.4173H13.415C13.415 24.4173 18.8775 24.5898 18.8775 19.3398C18.8775 19.3398 19.1175 15.0698 15.6575 15.0698ZM8.40747 10.2748H13.4075C13.4075 10.2748 14.625 10.2748 14.625 12.0648C14.625 13.8548 13.91 14.1148 13.0975 14.1148H8.40997L8.40747 10.2748ZM13.1825 21.3598H8.40997V16.7648H13.41C13.41 16.7648 15.2225 16.7398 15.2225 19.1273C15.2275 21.1148 13.9025 21.3398 13.185 21.3598H13.1825ZM26.165 11.5948C19.55 11.5948 19.5575 18.2023 19.5575 18.2023C19.5575 18.2023 19.1025 24.7773 26.165 24.7773C26.165 24.7773 32.05 25.1123 32.05 20.2048H29.025C29.025 20.2048 29.125 22.0548 26.275 22.0548C26.275 22.0548 23.2475 22.2573 23.2475 19.0548H32.16C32.16 19.0548 33.1275 11.5948 26.165 11.5948ZM28.855 16.7648H23.205C23.205 16.7648 23.575 14.1148 26.2325 14.1148C28.89 14.1148 28.855 16.7648 28.855 16.7648ZM22.465 8.23229H29.56V10.3498H22.465V8.23229Z" fill="#CECECE"/>
</g>
<defs>
<linearGradient id="paint0_linear_2594_39514" x1="18.5" y1="0" x2="18.5" y2="32.0026" gradientUnits="userSpaceOnUse">
<stop stop-color="#005CFF"/>
<stop offset="1" stop-color="#0047AD"/>
</linearGradient>
</defs>
</svg>
