<svg width="362" height="362" viewBox="0 0 362 362" fill="none" xmlns="http://www.w3.org/2000/svg">
<path d="M228.804 41.4516C231.581 34.8091 239.165 31.698 245.807 34.4759C249.162 35.8787 251.1 38.0551 252.553 40.9259C252.708 41.3027 252.574 41.7151 252.198 41.8697L250.926 42.3914C250.521 42.6125 250.269 42.4681 250.076 41.9971C248.974 39.7803 247.199 37.8672 244.774 36.8533C239.527 34.6588 233.661 37.3955 231.508 42.5434C229.369 47.6582 231.54 53.7561 236.788 55.9506C239.677 57.159 241.788 56.871 244.173 56.1125C244.616 55.9857 244.868 56.13 245.023 56.5069L245.467 57.5902C245.65 57.9006 245.389 58.3378 245.059 58.4731C242.034 59.5491 238.763 59.6252 235.807 58.389C229.165 55.6112 226.026 48.0942 228.804 41.4516Z" fill="white"/>
<path d="M253.253 66.2144L261.58 53.6805C261.799 53.3507 262.318 53.2201 262.678 53.4591L263.158 53.7779C263.428 53.9572 263.568 54.2665 263.439 54.6561L263.021 55.805C263.021 55.805 265.576 54.9522 268.455 56.8647C269.504 57.562 271.114 58.8475 270.146 59.5879L269.039 60.4084C268.591 60.7585 268.241 60.5694 268.011 60.2003C267.78 59.8312 267.43 59.2527 266.77 58.8144C264.102 57.0414 261.847 58.0933 261.847 58.0933L255.472 67.6886C255.233 68.0485 254.704 68.1292 254.374 67.91L253.474 67.3124C253.115 67.0733 253.014 66.5743 253.253 66.2144Z" fill="white"/>
<path d="M274.794 72.4388C278.005 69.0343 282.947 68.2022 286.613 71.6603C289.782 74.6492 289.889 79.1537 286.9 82.3225C286.702 82.532 286.38 82.8216 286.156 83.0064C285.833 83.296 285.374 83.2585 285.112 83.0115L276.312 74.7119C274.463 76.7778 274.164 80.5047 276.364 82.5796C277.962 84.0864 279.475 84.475 280.576 84.6721C281.267 84.7792 281.549 84.8474 281.419 85.6152L281.313 86.3568C281.203 86.9458 281.184 87.1755 280.418 87.096C279.141 86.9806 276.778 86.2856 274.683 84.3096C271.016 80.8514 271.534 75.8957 274.794 72.4388ZM277.796 73.1915L285.233 80.2066C286.861 78.3763 287.027 75.3664 284.959 73.415C282.916 71.4883 279.81 71.5282 277.796 73.1915Z" fill="white"/>
<path d="M293.636 91.5673C297.433 88.8317 302.835 89.5548 305.528 93.2936C308.222 97.0324 307.197 102.385 303.4 105.121C299.544 107.898 294.114 107.196 291.42 103.457C288.727 99.7185 289.78 94.3449 293.636 91.5673ZM295.172 93.6996C292.368 95.7197 291.462 99.3894 293.377 102.047C295.292 104.706 299.039 104.979 301.843 102.959C304.588 100.981 305.486 97.3615 303.571 94.7035C301.656 92.0454 297.918 91.7215 295.172 93.6996Z" fill="white"/>
<path d="M302.84 119.714L323.896 109.019C324.249 108.84 324.765 108.982 324.961 109.367L325.45 110.33C325.629 110.683 325.455 111.215 325.102 111.395L304.047 122.089C303.662 122.285 303.161 122.095 302.982 121.742L302.493 120.779C302.297 120.394 302.455 119.91 302.84 119.714Z" fill="white"/>
<path d="M316.074 130.189C320.515 128.713 325.261 130.323 326.85 135.106C328.224 139.24 326.182 143.256 322.048 144.63C321.775 144.721 321.354 144.823 321.069 144.879C320.648 144.982 320.261 144.731 320.147 144.389L316.333 132.91C313.725 133.853 311.696 136.993 312.65 139.862C313.342 141.946 314.491 143.006 315.367 143.701C315.924 144.123 316.14 144.317 315.662 144.931L315.217 145.534C314.841 146.001 314.715 146.194 314.078 145.761C313.009 145.054 311.257 143.322 310.349 140.589C308.76 135.806 311.564 131.688 316.074 130.189ZM318.36 132.275L321.584 141.977C323.885 141.137 325.458 138.565 324.561 135.867C323.676 133.202 320.922 131.765 318.36 132.275Z" fill="white"/>
<path d="M319.936 172.905C320.181 172.612 320.495 172.172 321.154 172.662L321.85 173.186C322.326 173.536 322.513 173.82 322.092 174.333C321.882 174.59 319.532 177.379 319.604 180.583C319.669 183.498 321.548 185.364 323.815 185.313C326.298 185.257 327.69 183.066 329.36 178.887C330.963 174.89 332.421 172.481 336.524 172.389C338.972 172.334 342.974 174.188 343.103 179.911C343.182 183.438 341.405 186.107 341.405 186.107C341.302 186.325 340.879 186.731 340.186 186.35L339.567 186.004C339.056 185.727 339.047 185.331 339.358 184.748C340.224 183.216 340.736 181.945 340.69 179.929C340.605 176.114 338.132 175.017 336.62 175.051C334.065 175.109 332.99 176.969 331.798 180.021C329.928 184.924 328.163 188.096 323.988 188.19C320.245 188.274 317.285 184.776 317.191 180.565C317.096 176.318 319.514 173.383 319.936 172.905Z" fill="white"/>
<path d="M330.765 202.031L331.087 199.859C331.161 199.36 331.565 199.092 331.992 199.156L332.705 199.261C333.168 199.33 333.441 199.698 333.367 200.197L333.044 202.369L337.602 203.045C338.03 203.109 338.292 203.548 338.269 203.945L338.177 205.059C338.149 205.492 337.71 205.754 337.283 205.691L332.653 205.004L331.935 209.847C331.866 210.31 331.493 210.619 331.03 210.55L330.317 210.444C329.89 210.381 329.587 209.972 329.656 209.509L330.374 204.666L320.546 203.208C318.836 202.954 318.116 203.393 317.979 204.319C317.752 205.85 318.239 206.978 318.566 207.718C318.863 208.417 318.511 208.583 318.093 208.703L317.297 208.913C316.731 209.047 316.493 208.939 316.271 208.469C315.878 207.683 315.313 205.852 315.641 203.644C316.106 200.511 318.195 200.166 320.759 200.546L330.765 202.031Z" fill="white"/>
<path d="M319.419 221.492L327.936 224.286C328.312 224.41 328.587 224.841 328.441 225.286L328.105 226.312C327.97 226.722 327.481 226.941 327.105 226.817L318.554 224.011C315.407 222.979 313.634 223.534 312.882 225.825C312.107 228.186 313.118 230.071 313.703 231.058L324.546 234.616C324.922 234.74 325.198 235.171 325.063 235.582L324.715 236.642C324.592 237.018 324.103 237.237 323.727 237.113L309.429 232.422C309.018 232.287 308.789 231.833 308.912 231.456L309.092 230.909C309.238 230.465 309.567 230.383 310.011 230.415L311.104 230.433C310.679 229.649 309.725 227.707 310.657 224.868C312.15 220.319 315.245 220.122 319.419 221.492Z" fill="white"/>
<path d="M311.735 246.337C315.983 248.699 317.887 253.053 315.456 257.426C314.126 259.817 312.304 260.946 312.304 260.946L319.698 265.057C320.044 265.249 320.216 265.757 320.006 266.134L319.516 267.015C319.306 267.393 318.767 267.546 318.421 267.354L297.781 255.879C297.403 255.669 297.281 255.148 297.491 254.77L297.806 254.204C297.981 253.889 298.337 253.841 298.753 253.907L299.802 254.243C299.802 254.243 298.946 251.337 300.468 248.6C302.515 244.918 307.582 244.028 311.735 246.337ZM310.392 248.68C307.56 247.105 303.888 247.412 302.419 250.055C300.967 252.666 302.456 255.471 302.456 255.471L310.29 259.827C310.29 259.827 312.053 258.583 313.173 256.569C314.904 253.454 313.286 250.289 310.392 248.68Z" fill="white"/>
<path d="M305.403 279.822C306.067 278.97 307.308 278.842 308.131 279.483C309.04 280.191 309.191 281.403 308.527 282.255C307.841 283.136 306.629 283.287 305.72 282.579C304.896 281.937 304.717 280.703 305.403 279.822ZM290.301 266.463L302.173 275.709C302.485 275.952 302.576 276.48 302.311 276.821L301.647 277.673C301.404 277.985 300.848 278.054 300.536 277.811L288.664 268.564C288.323 268.299 288.282 267.765 288.525 267.453L289.189 266.601C289.454 266.26 289.96 266.197 290.301 266.463Z" fill="white"/>
<path d="M286.401 283.08C289.607 286.49 289.593 291.939 286.236 295.096C282.88 298.253 277.439 297.934 274.233 294.525C270.977 291.063 270.967 285.587 274.323 282.43C277.68 279.273 283.145 279.619 286.401 283.08ZM284.486 284.881C282.119 282.363 278.362 281.943 275.976 284.187C273.59 286.432 273.806 290.182 276.173 292.699C278.492 295.164 282.197 295.584 284.584 293.339C286.97 291.095 286.805 287.346 284.486 284.881Z" fill="white"/>
<path d="M255.399 297.328C257.718 295.809 259.955 295.808 261.112 295.997C261.361 296.049 261.559 296.22 261.597 296.54L261.688 297.599C261.724 298.049 261.562 298.327 260.993 298.312C260.274 298.266 258.498 298.182 256.721 299.346C255.306 300.273 254.776 301.567 255.486 302.651C256.354 303.976 257.793 303.808 260.462 303.48C262.89 303.18 265.649 302.793 267.208 305.173C268.154 306.618 268.51 309.527 265.288 311.637C263.481 312.821 261.581 313.205 260.603 313.157C260.144 313.113 259.886 312.851 259.841 312.322L259.767 311.552C259.721 311.023 260.153 310.697 260.573 310.68C261.412 310.647 262.671 310.468 263.966 309.619C265.502 308.613 265.442 307.405 265.008 306.742C264.2 305.508 262.94 305.687 260.741 306.009C257.602 306.472 254.932 306.93 253.275 304.4C251.835 302.202 252.569 299.182 255.399 297.328Z" fill="white"/>
<path d="M132.938 318.729C130.161 325.372 122.577 328.483 115.935 325.705C112.58 324.302 110.642 322.126 109.189 319.255C109.034 318.878 109.168 318.466 109.544 318.311L110.816 317.789C111.221 317.568 111.473 317.713 111.666 318.184C112.768 320.4 114.543 322.313 116.968 323.327C122.215 325.522 128.081 322.785 130.234 317.637C132.373 312.522 130.202 306.425 124.954 304.23C122.065 303.022 119.954 303.31 117.569 304.068C117.126 304.195 116.874 304.051 116.719 303.674L116.275 302.59C116.092 302.28 116.353 301.843 116.683 301.708C119.708 300.631 122.979 300.555 125.935 301.792C132.577 304.569 135.716 312.086 132.938 318.729Z" fill="white"/>
<path d="M108.489 293.966L100.162 306.5C99.9426 306.83 99.4236 306.961 99.0638 306.721L98.584 306.403C98.3141 306.223 98.1738 305.914 98.303 305.525L98.7206 304.376C98.7206 304.376 96.1658 305.228 93.2873 303.316C92.2378 302.619 90.6282 301.333 91.5955 300.593L92.7025 299.772C93.1513 299.422 93.501 299.611 93.7313 299.98C93.9615 300.349 94.3119 300.928 94.9716 301.366C97.6403 303.139 99.8951 302.087 99.8951 302.087L106.27 292.492C106.509 292.132 107.038 292.051 107.368 292.271L108.268 292.868C108.627 293.107 108.728 293.606 108.489 293.966Z" fill="white"/>
<path d="M86.9478 287.742C83.7366 291.146 78.795 291.978 75.1285 288.52C71.9597 285.531 71.8535 281.027 74.8423 277.858C75.0399 277.649 75.3625 277.359 75.5863 277.174C75.9089 276.885 76.3684 276.922 76.6303 277.169L85.4297 285.469C87.2793 283.403 87.5779 279.676 85.378 277.601C83.7805 276.094 82.2666 275.706 81.1658 275.509C80.475 275.401 80.1929 275.333 80.3232 274.565L80.4289 273.824C80.539 273.235 80.5578 273.005 81.3241 273.085C82.6008 273.2 84.9641 273.895 87.0592 275.871C90.7256 279.329 90.2083 284.285 86.9478 287.742ZM83.9462 286.989L76.5086 279.974C74.8813 281.804 74.7146 284.814 76.7835 286.766C78.8262 288.692 81.932 288.652 83.9462 286.989Z" fill="white"/>
<path d="M68.106 268.613C64.3087 271.349 58.9072 270.626 56.2137 266.887C53.5202 263.148 54.5448 257.796 58.3421 255.06C62.1977 252.282 67.6285 252.984 70.3219 256.723C73.0154 260.462 71.9616 265.836 68.106 268.613ZM66.5698 266.481C69.374 264.461 70.2798 260.791 68.3649 258.133C66.45 255.475 62.7034 255.202 59.8992 257.222C57.1536 259.2 56.2559 262.819 58.1708 265.477C60.0857 268.135 63.8242 268.459 66.5698 266.481Z" fill="white"/>
<path d="M58.9016 240.467L37.846 251.161C37.493 251.341 36.9769 251.199 36.7812 250.814L36.2921 249.851C36.1128 249.498 36.2865 248.965 36.6396 248.786L57.6952 238.091C58.0803 237.896 58.5806 238.086 58.76 238.439L59.249 239.402C59.4447 239.787 59.2867 240.271 58.9016 240.467Z" fill="white"/>
<path d="M45.6679 229.992C41.2266 231.467 36.4809 229.858 34.8917 225.075C33.5182 220.941 35.5598 216.924 39.6936 215.551C39.9669 215.46 40.3882 215.358 40.6728 215.301C41.0942 215.199 41.481 215.45 41.5945 215.792L45.4086 227.27C48.0165 226.328 50.0459 223.188 49.0924 220.318C48.3999 218.234 47.2511 217.174 46.3752 216.479C45.8178 216.057 45.6017 215.864 46.0804 215.249L46.525 214.646C46.9011 214.18 47.0265 213.987 47.6636 214.42C48.733 215.127 50.4845 216.859 51.3927 219.592C52.9819 224.375 50.1774 228.493 45.6679 229.992ZM43.3816 227.906L40.1578 218.204C37.8574 219.044 36.2839 221.615 37.1807 224.314C38.0661 226.979 40.8197 228.416 43.3816 227.906Z" fill="white"/>
<path d="M41.8063 187.276C41.5608 187.569 41.2466 188.008 40.5875 187.519L39.8915 186.994C39.4155 186.645 39.2291 186.361 39.6497 185.848C39.86 185.591 42.21 182.801 42.1381 179.598C42.0727 176.683 40.1943 174.817 37.9269 174.867C35.4435 174.923 34.0523 177.115 32.3817 181.293C30.779 185.29 29.3207 187.7 25.2177 187.792C22.7703 187.847 18.7677 185.992 18.6392 180.27C18.5601 176.743 20.3366 174.074 20.3366 174.074C20.4398 173.856 20.8628 173.45 21.5555 173.831L22.1754 174.177C22.6857 174.453 22.6946 174.849 22.3836 175.432C21.5178 176.964 21.0062 178.236 21.0514 180.251C21.1371 184.067 23.6103 185.163 25.1219 185.129C27.6773 185.072 28.7518 183.211 29.9436 180.16C31.8141 175.257 33.5793 172.084 37.7543 171.991C41.4973 171.907 44.4566 175.405 44.5511 179.616C44.6464 183.863 42.2277 186.798 41.8063 187.276Z" fill="white"/>
<path d="M30.9768 158.15L30.6545 160.322C30.5805 160.821 30.1769 161.088 29.7496 161.025L29.0373 160.919C28.5744 160.85 28.3015 160.482 28.3755 159.984L28.6978 157.812L24.1397 157.135C23.7124 157.072 23.45 156.633 23.4725 156.236L23.5651 155.121C23.5929 154.689 24.0322 154.426 24.4595 154.49L29.0888 155.176L29.8074 150.334C29.8761 149.871 30.2495 149.562 30.7124 149.631L31.4246 149.736C31.8519 149.8 32.1552 150.209 32.0865 150.672L31.3679 155.515L41.1962 156.973C42.9055 157.227 43.6258 156.788 43.7632 155.862C43.9904 154.331 43.5026 153.203 43.1757 152.463C42.8791 151.764 43.2313 151.598 43.6494 151.478L44.4448 151.268C45.0106 151.134 45.2493 151.242 45.4708 151.711C45.8637 152.498 46.4291 154.328 46.1015 156.536C45.6365 159.67 43.5472 160.015 40.9833 159.635L30.9768 158.15Z" fill="white"/>
<path d="M42.3234 138.689L33.8062 135.894C33.43 135.771 33.1547 135.34 33.3006 134.895L33.6374 133.869C33.7721 133.458 34.2606 133.24 34.6368 133.363L43.1882 136.169C46.3351 137.202 48.1085 136.647 48.8605 134.355C49.635 131.995 48.6243 130.11 48.0391 129.122L37.1959 125.564C36.8196 125.441 36.5444 125.009 36.6791 124.599L37.027 123.539C37.1505 123.162 37.639 122.944 38.0152 123.067L52.3132 127.759C52.7237 127.894 52.9535 128.348 52.83 128.724L52.6504 129.271C52.5045 129.716 52.1747 129.797 51.7306 129.765L50.6376 129.748C51.0625 130.531 52.0165 132.473 51.0849 135.312C49.5921 139.862 46.4965 140.058 42.3234 138.689Z" fill="white"/>
<path d="M50.007 113.843C45.7593 111.482 43.8549 107.128 46.2864 102.754C47.6158 100.363 49.4379 99.2343 49.4379 99.2343L42.0437 95.1236C41.6976 94.9312 41.5264 94.4241 41.7363 94.0465L42.2261 93.1655C42.436 92.788 42.9746 92.6343 43.3207 92.8267L63.9614 104.302C64.339 104.512 64.4612 105.033 64.2513 105.41L63.9364 105.977C63.7615 106.291 63.4048 106.34 62.9887 106.274L61.9399 105.938C61.9399 105.938 62.7957 108.843 61.2738 111.581C59.2272 115.262 54.1603 116.152 50.007 113.843ZM51.3504 111.501C54.1822 113.075 57.8538 112.769 59.3231 110.126C60.775 107.514 59.2863 104.709 59.2863 104.709L51.4516 100.354C51.4516 100.354 49.6889 101.598 48.5694 103.612C46.8377 106.727 48.4557 109.892 51.3504 111.501Z" fill="white"/>
<path d="M56.3391 80.3585C55.6754 81.2105 54.4345 81.3391 53.6108 80.6976C52.702 79.9898 52.5512 78.7772 53.2149 77.9252C53.9006 77.0447 55.1132 76.894 56.022 77.6018C56.8457 78.2433 57.0248 79.478 56.3391 80.3585ZM71.4415 93.7181L59.5695 84.4716C59.2571 84.2282 59.1659 83.7009 59.4313 83.3601L60.0949 82.508C60.3383 82.1956 60.894 82.1265 61.2064 82.3698L73.0784 91.6164C73.4192 91.8818 73.4599 92.4155 73.2166 92.7279L72.553 93.5799C72.2875 93.9208 71.7823 93.9836 71.4415 93.7181Z" fill="white"/>
<path d="M75.3413 77.1002C72.135 73.6911 72.1492 68.2415 75.5058 65.0845C78.8625 61.9275 84.3028 62.247 87.5091 65.6561C90.7648 69.1176 90.7752 74.5935 87.4186 77.7505C84.062 80.9075 78.597 80.5617 75.3413 77.1002ZM77.2557 75.2997C79.6234 77.8172 83.3798 78.2379 85.7661 75.9935C88.1525 73.7491 87.9363 69.9987 85.5686 67.4812C83.2501 65.0162 79.5447 64.597 77.1583 66.8414C74.772 69.0859 74.9372 72.8347 77.2557 75.2997Z" fill="white"/>
<path d="M106.342 62.8525C104.024 64.3713 101.787 64.3731 100.63 64.1839C100.381 64.132 100.183 63.9606 100.145 63.6408L100.054 62.5816C100.018 62.132 100.18 61.8538 100.749 61.8684C101.467 61.9142 103.244 61.9985 105.021 60.8348C106.436 59.9077 106.966 58.614 106.256 57.5298C105.388 56.2047 103.949 56.3728 101.28 56.7005C98.8515 57.0003 96.0925 57.3872 94.5342 55.0081C93.5875 53.5625 93.2317 50.654 96.454 48.5435C98.261 47.36 100.161 46.9761 101.139 47.024C101.598 47.0676 101.856 47.3293 101.901 47.8589L101.975 48.6284C102.021 49.1579 101.589 49.4839 101.169 49.5005C100.33 49.5336 99.0706 49.713 97.7756 50.5612C96.2397 51.5672 96.2998 52.7758 96.7337 53.4384C97.5424 54.6731 98.802 54.4936 101.001 54.1721C104.14 53.7083 106.81 53.2508 108.467 55.7805C109.907 57.9789 109.173 60.9984 106.342 62.8525Z" fill="white"/>
<circle cx="180.995" cy="180.75" r="180" stroke="white" stroke-width="1.5"/>
<circle cx="180.995" cy="180.75" r="120" stroke="white" stroke-width="1.5"/>
<path d="M193.992 109.803L194.218 110.214C198.02 117.138 206.363 120.174 213.726 117.314L214.163 117.144C224.643 113.074 235.488 122.175 233.299 133.202L233.208 133.662C231.67 141.41 236.109 149.098 243.588 151.64L244.032 151.791C254.676 155.409 257.135 169.352 248.37 176.393L248.004 176.686C241.846 181.633 240.304 190.376 244.399 197.13L244.642 197.531C250.471 207.145 243.392 219.406 232.152 219.166L231.683 219.156C223.786 218.987 216.985 224.693 215.78 232.5L215.709 232.963C213.994 244.074 200.69 248.916 192.234 241.507L191.882 241.198C185.941 235.992 177.063 235.992 171.122 241.198L170.769 241.507C162.314 248.916 149.01 244.074 147.295 232.963L147.223 232.5C146.018 224.693 139.218 218.987 131.321 219.156L130.852 219.166C119.612 219.406 112.533 207.145 118.361 197.531L118.604 197.13C122.699 190.376 121.158 181.633 114.999 176.686L114.634 176.393C105.869 169.352 108.327 155.409 118.972 151.791L119.416 151.64C126.894 149.098 131.333 141.41 129.796 133.662L129.704 133.202C127.515 122.175 138.361 113.074 148.841 117.144L149.278 117.314C156.641 120.174 164.983 117.138 168.786 110.214L169.011 109.803C174.423 99.9486 188.581 99.9486 193.992 109.803Z" stroke="white" stroke-width="1.5"/>
</svg>
