<svg width="66" height="65" viewBox="0 0 66 65" fill="none" xmlns="http://www.w3.org/2000/svg">
<path d="M27.4487 4.30129C29.8538 -0.0783939 36.1462 -0.0783944 38.5513 4.30129L38.6517 4.48398L38.9438 4.32353L38.6517 4.48398C40.3415 7.56113 44.0493 8.91064 47.3217 7.63962L47.516 7.56416C52.1737 5.75512 56.9939 9.79979 56.0211 14.7008L56.3481 14.7657L56.0211 14.7008L55.9806 14.9053C55.2971 18.3487 57.27 21.7658 60.5938 22.8956L60.7911 22.9627C65.5219 24.5708 66.6146 30.7676 62.7191 33.8967L62.5566 34.0272C59.8196 36.2257 59.1345 40.1115 60.9544 43.1135L61.0625 43.2918C63.6528 47.5645 60.5066 53.0139 55.5112 52.907L55.3028 52.9025C51.793 52.8274 48.7704 55.3636 48.2349 58.8332L48.2031 59.0391C47.4409 63.9773 41.528 66.1294 37.77 62.8365L37.6132 62.6991C34.9729 60.3855 31.0271 60.3855 28.3868 62.6991L28.23 62.8365C24.472 66.1294 18.5591 63.9773 17.7969 59.0391L17.7651 58.8332C17.2296 55.3636 14.207 52.8274 10.6972 52.9025L10.4888 52.907C5.49335 53.0139 2.34716 47.5645 4.93751 43.2918L5.04556 43.1135C6.86553 40.1115 6.18036 36.2257 3.4434 34.0272L3.28091 33.8967C-0.614595 30.7676 0.478067 24.5708 5.20887 22.9627L5.40621 22.8956C8.73004 21.7658 10.7029 18.3487 10.0194 14.9053L9.97886 14.7008C9.0061 9.79979 13.8263 5.75512 18.484 7.56416L18.6783 7.63962C21.9507 8.91064 25.6585 7.56113 27.3483 4.48399L27.4487 4.30129Z" stroke="white" stroke-width="0.666667"/>
</svg>
