<svg width="36" height="32" viewBox="0 0 36 32" fill="none" xmlns="http://www.w3.org/2000/svg">
<g style="mix-blend-mode:luminosity">
<g clip-path="url(#clip0_2594_39510)">
<path d="M18 1.08105C26.25 1.08105 32.9249 7.75605 32.9249 15.9936C32.9249 24.2311 26.25 30.9186 18 30.9186C9.74995 30.9186 3.07495 24.2436 3.07495 16.0061C3.07495 7.76855 9.74995 1.08105 18 1.08105Z" fill="#E74D89"/>
<path d="M18 31.9811C9.175 31.9811 2 24.8186 2 16.0061C2 7.18106 9.175 0.0185547 18 0.0185547C26.825 0.0185547 34 7.18106 34 15.9936C34 24.8061 26.825 31.9811 18 31.9811ZM31.4875 18.1811C31.025 18.0311 27.2625 16.9186 22.975 17.5936C24.7625 22.4936 25.4875 26.4936 25.625 27.3186C28.7 25.2561 30.8875 21.9811 31.4875 18.1811ZM23.3375 28.5811C23.1375 27.3811 22.3375 23.2061 20.425 18.2311C20.4 18.2436 20.3625 18.2561 20.3375 18.2561C12.625 20.9436 9.8625 26.2811 9.6125 26.7811C11.925 28.5811 14.8375 29.6561 18 29.6561C19.8875 29.6686 21.7 29.2811 23.3375 28.5811ZM7.85 25.1436C8.1625 24.6186 11.9125 18.4186 18.9625 16.1311C19.1375 16.0686 19.325 16.0186 19.5 15.9686C19.1625 15.1936 18.7875 14.4186 18.3875 13.6561C11.5625 15.6936 4.9375 15.6061 4.3375 15.5936C4.3375 15.7311 4.325 15.8686 4.325 16.0061C4.3375 19.5186 5.6625 22.7186 7.85 25.1436ZM4.625 13.2186C5.2375 13.2311 10.8625 13.2561 17.2625 11.5561C15 7.53105 12.55 4.15605 12.2 3.66855C8.3625 5.46855 5.5125 8.99356 4.625 13.2186ZM14.8 2.74355C15.175 3.24355 17.6625 6.61855 19.9 10.7311C24.7625 8.90605 26.8125 6.15605 27.0625 5.80605C24.65 3.66855 21.475 2.36855 18 2.36855C16.9 2.36855 15.825 2.50605 14.8 2.74355ZM28.575 7.38105C28.2875 7.76855 26 10.7061 20.95 12.7686C21.2625 13.4186 21.575 14.0811 21.8625 14.7436C21.9625 14.9811 22.0625 15.2186 22.1625 15.4436C26.7125 14.8686 31.225 15.7936 31.675 15.8811C31.6375 12.6686 30.4875 9.70605 28.575 7.38105Z" fill="#B2215A"/>
</g>
</g>
<defs>
<clipPath id="clip0_2594_39510">
<rect y="0.0185547" width="36" height="31.9625" rx="4" fill="white"/>
</clipPath>
</defs>
</svg>
