<svg width="84" height="84" viewBox="0 0 84 84" fill="none" xmlns="http://www.w3.org/2000/svg">
<g clip-path="url(#clip0_1744_11351)">
<path fill-rule="evenodd" clip-rule="evenodd" d="M1.14693 31.3601C-0.990078 42.5934 5.22131 53.1439 12.5812 61.8953C18.2112 68.5899 25.4433 73.7059 33.7694 75.4954C36.0372 76.9467 38.5334 77.9809 41.339 78.4187C52.511 80.162 64.1269 75.1696 71.2797 66.166C74.3755 62.2692 75.9535 57.6826 76.5453 52.8231C80.3557 46.8338 82.5936 40.2502 81.0777 33.3834C79.5027 26.2494 74.0408 21.6837 67.6051 17.9871C65.5926 15.533 63.2144 13.3898 60.4476 11.6658C55.8242 8.78506 50.7028 7.28175 45.4642 6.99442C38.2489 3.8527 30.8526 1.89687 23.4885 4.5599C11.9815 8.7211 3.43371 19.3394 1.14693 31.3601ZM45.4642 6.99442C41.1363 6.75704 36.7284 7.34958 32.4549 8.68098C21.8777 11.9763 10.3607 17.2914 7.30485 28.2225C4.63516 37.7723 10.7432 46.5393 16.5058 54.8104C17.2423 55.8676 17.9732 56.9166 18.6793 57.9581C19.0016 58.4334 19.3242 58.9115 19.6477 59.391C23.7671 65.4965 28.039 71.8279 33.7694 75.4954C35.4106 75.8481 37.0944 76.0716 38.8167 76.1524C49.4926 76.6535 59.4424 72.0495 66.9544 64.4471C70.4231 60.9368 73.8714 57.0263 76.5453 52.8231C77.2314 47.1902 76.5923 41.1906 75.4561 35.4741C74.1663 28.9843 71.6096 22.8704 67.6051 17.9871C64.831 16.3937 61.8759 14.9618 58.9733 13.5552C57.7417 12.9584 56.5195 12.3662 55.3246 11.7681C54.7804 11.4957 54.2344 11.2209 53.6869 10.9453L53.6837 10.9437C50.9786 9.582 48.2347 8.20078 45.4642 6.99442Z" fill="#8CD4EB"/>
<path d="M38.8167 76.1524C49.4926 76.6535 59.4424 72.0495 66.9544 64.4471C70.4231 60.9368 73.8714 57.0263 76.5453 52.8231C77.2314 47.1902 76.5923 41.1906 75.4561 35.4741C74.1663 28.9843 71.6096 22.8704 67.6051 17.9871C64.831 16.3937 61.8759 14.9618 58.9733 13.5552C57.7417 12.9584 56.5195 12.3662 55.3246 11.7681C54.7804 11.4957 54.2344 11.2209 53.6869 10.9453L53.6837 10.9437C50.9786 9.582 48.2347 8.20078 45.4642 6.99442C41.1363 6.75704 36.7284 7.34958 32.4549 8.68098C21.8777 11.9763 10.3607 17.2914 7.30485 28.2225C4.63516 37.7723 10.7432 46.5393 16.5058 54.8104C17.2423 55.8676 17.9732 56.9166 18.6793 57.9581C19.0016 58.4334 19.3242 58.9115 19.6477 59.391C23.7671 65.4965 28.039 71.8279 33.7694 75.4954C35.4106 75.8481 37.0944 76.0716 38.8167 76.1524Z" fill="#34C4F2"/>
<path d="M48.0046 34.8291C43.4142 51.6597 71.6837 45.8419 68.301 51.397C64.9182 56.9522 45.9961 39.9944 43.7762 57.4394C42.6306 66.4413 55.1929 71.2785 69.8866 64.359C81.6179 58.8345 78.0263 43.5031 69.8866 43.5031C59.9274 43.5031 56.5789 40.774 57.5185 37.2657C59.6327 29.3714 82.9947 44.5749 82.9947 24.2061C82.9947 14.1832 54.7294 10.172 48.0046 34.8291Z" fill="white"/>
<path fill-rule="evenodd" clip-rule="evenodd" d="M69.9419 50.3924C69.9867 50.9859 69.7825 51.5376 69.4902 52.0175C68.8163 53.1242 67.7277 53.6463 66.5435 53.7892C65.4357 53.9228 64.2064 53.7352 63.0186 53.4565C61.8123 53.1734 60.4982 52.7577 59.1981 52.346L59.1656 52.3357C57.855 51.9207 56.5418 51.5049 55.2449 51.1791C52.5638 50.5055 50.3175 50.3197 48.6597 51.0562C47.1268 51.7371 45.6614 53.4263 45.1319 57.5873C44.8833 59.5416 45.3782 61.2134 46.4164 62.5557C47.464 63.9102 49.1233 65.0021 51.3176 65.6692C55.7193 67.0073 62.1523 66.5834 69.2676 63.2327C74.5515 60.7444 76.3858 56.0753 75.9788 51.975C75.7745 49.9163 75.0078 48.0697 73.8983 46.7674C72.7981 45.476 71.4139 44.7668 69.8866 44.7668C64.8295 44.7668 61.1911 44.0833 58.8992 42.7758C57.7268 42.1069 56.8634 41.2488 56.394 40.2066C55.9239 39.1627 55.9018 38.0507 56.1934 36.9616C56.556 35.6077 57.4214 34.6793 58.622 34.1376C59.742 33.6321 61.0763 33.497 62.3893 33.4954C63.7189 33.4937 65.1925 33.6323 66.6552 33.7787C66.7942 33.7926 66.9333 33.8066 67.0725 33.8206C68.4231 33.9566 69.7765 34.0928 71.1141 34.1516C74.1082 34.283 76.6685 34.0002 78.4859 32.7231C80.2317 31.4962 81.6295 29.0962 81.6295 24.2061C81.6295 22.3157 80.3029 20.5418 77.8161 19.2778C75.3399 18.0192 71.8861 17.3804 68.1746 17.7683C60.8429 18.5347 52.554 23.3109 49.3282 35.1384C48.2677 39.0266 49.1456 41.3424 50.7063 42.8682C52.3708 44.4954 55.0329 45.4517 58.0174 46.1123C59.4874 46.4377 60.9744 46.6795 62.3883 46.9062C62.4461 46.9155 62.5038 46.9247 62.5614 46.934C63.8902 47.1469 65.1804 47.3537 66.2501 47.6074C67.2985 47.856 68.4452 48.213 69.1746 48.8846C69.5863 49.2638 69.8949 49.7693 69.9419 50.3924ZM62.2992 48.1744C55.2391 47.0427 45.116 45.42 48.0046 34.8291C54.7294 10.172 82.9947 14.1832 82.9947 24.2061C82.9947 36.6955 74.2114 35.8108 66.9285 35.0773C62.3338 34.6145 58.3364 34.2119 57.5185 37.2657C56.5789 40.774 59.9274 43.5031 69.8866 43.5031C78.0263 43.5031 81.6179 58.8345 69.8866 64.359C55.1929 71.2785 42.6306 66.4413 43.7762 57.4394C45.1599 46.5652 53.0334 49.0584 59.5877 51.1338C63.5481 52.3879 67.0268 53.4894 68.301 51.397C69.5551 49.3375 66.4587 48.8412 62.2992 48.1744Z" fill="#34C4F2"/>
<path d="M49.9682 32.163C50.321 28.0435 47.9301 24.3563 43.5607 22.3183C37.5901 19.4895 28.7371 18.8812 22.5286 20.8377C9.86504 24.826 1.10775 35.406 0.730269 47.1868C0.513718 53.9881 3.804 60.512 9.7669 65.0872C16.2405 70.0533 25.0486 72.0739 32.7573 70.3332C36.4638 69.4943 41.6636 66.8828 45.1085 64.267C48.5534 61.6513 52.7637 55.3914 48.2101 51.2351C45.2874 48.5673 42.9079 49.3229 39.8935 52.592C36.8792 55.8612 32.3108 58.5161 28.34 58.8888C24.3693 59.2615 19.7719 55.6709 19.3555 51.882C19.0636 49.2359 21.4404 45.8289 24.7974 43.9128C28.7214 41.6731 32.086 44.9176 36.5313 43.8602C38.5612 43.3774 39.2639 43.0802 41.5554 42.0941C47.7028 39.0544 49.7254 34.2069 49.9682 32.163Z" fill="white"/>
<path fill-rule="evenodd" clip-rule="evenodd" d="M31.0675 43.5727C32.7704 43.9453 34.5427 44.3332 36.5313 43.8602C38.5612 43.3774 39.2639 43.0802 41.5554 42.0941C47.7028 39.0544 49.7254 34.2069 49.9682 32.163C50.321 28.0435 47.9301 24.3563 43.5607 22.3183C37.5901 19.4895 28.7371 18.8812 22.5286 20.8377C9.86504 24.826 1.10775 35.406 0.730269 47.1868C0.513718 53.9881 3.804 60.512 9.7669 65.0872C16.2405 70.0533 25.0486 72.0739 32.7573 70.3332C36.4638 69.4943 41.6636 66.8828 45.1085 64.267C48.5534 61.6513 52.7637 55.3914 48.2101 51.2351C45.2874 48.5673 42.9079 49.3229 39.8935 52.592C36.8792 55.8612 32.3108 58.5161 28.34 58.8888C24.3693 59.2615 19.7719 55.6709 19.3555 51.882C19.3211 51.5701 19.3238 51.2478 19.3607 50.9185C19.6374 48.4536 21.836 45.6031 24.7974 43.9128C26.8325 42.7512 28.7172 43.0648 30.6802 43.4883C30.8089 43.5161 30.938 43.5443 31.0675 43.5727ZM42.804 23.9153L42.8136 23.9199C46.6392 25.7043 48.473 28.7557 48.21 31.9814C48.0211 33.4545 46.3576 37.7311 40.8131 40.4897C38.5866 41.4476 37.9903 41.6966 36.1223 42.141C34.9715 42.4147 33.9275 42.3299 32.7687 42.1173C32.3411 42.0389 31.8977 41.943 31.4276 41.8414C31.2347 41.7997 31.0372 41.757 30.8344 41.7141C28.8848 41.302 26.489 40.9125 23.9213 42.378C22.0197 43.4635 20.385 44.9738 19.2517 46.6227C18.1397 48.2407 17.3897 50.177 17.5989 52.075C17.8748 54.5839 19.4827 56.8216 21.4277 58.3393C23.3802 59.8627 25.9581 60.8874 28.5052 60.6483C33.0213 60.2244 37.9681 57.2872 41.1928 53.79C42.6485 52.2112 43.6717 51.5704 44.4286 51.4209C45.0172 51.3047 45.7956 51.4238 47.0188 52.5403C47.8732 53.3202 48.2588 54.1327 48.3855 54.9331C48.517 55.7641 48.3858 56.7009 48.0062 57.7024C47.2331 59.7423 45.5562 61.7082 44.0398 62.8596C40.7493 65.358 35.7768 67.8376 32.3681 68.6094C25.1926 70.2296 16.9175 68.3454 10.8426 63.685C5.27732 59.4149 2.30035 53.4103 2.49659 47.2431C2.8464 36.3313 10.9921 26.3238 23.0597 22.5232C28.8403 20.7016 37.2334 21.2761 42.804 23.9153Z" fill="#34C4F2"/>
</g>
<defs>
<clipPath id="clip0_1744_11351">
<rect width="82.5517" height="82.5517" fill="white" transform="translate(0.720032 0.729492)"/>
</clipPath>
</defs>
</svg>
