<svg width="126" height="126" viewBox="0 0 126 126" fill="none" xmlns="http://www.w3.org/2000/svg">
<circle cx="63" cy="63" r="62.5" fill="white" stroke="#2B2B2B"/>
<g clip-path="url(#clip0_1744_11349)">
<path fill-rule="evenodd" clip-rule="evenodd" d="M22.1469 52.3601C20.0099 63.5934 26.2213 74.1439 33.5812 82.8953C39.2112 89.5899 46.4433 94.7059 54.7694 96.4954C57.0372 97.9467 59.5334 98.9809 62.339 99.4187C73.511 101.162 85.1269 96.1696 92.2797 87.166C95.3755 83.2692 96.9535 78.6826 97.5453 73.8231C101.356 67.8338 103.594 61.2502 102.078 54.3834C100.503 47.2494 95.0408 42.6837 88.6051 38.9871C86.5926 36.533 84.2144 34.3898 81.4476 32.6658C76.8242 29.7851 71.7028 28.2817 66.4642 27.9944C59.2489 24.8527 51.8526 22.8969 44.4885 25.5599C32.9815 29.7211 24.4337 40.3394 22.1469 52.3601ZM66.4642 27.9944C62.1363 27.757 57.7284 28.3496 53.4549 29.681C42.8777 32.9763 31.3607 38.2914 28.3049 49.2225C25.6352 58.7723 31.7432 67.5393 37.5058 75.8104C38.2423 76.8676 38.9732 77.9166 39.6793 78.9581C40.0016 79.4334 40.3242 79.9115 40.6477 80.391C44.7671 86.4965 49.039 92.8279 54.7694 96.4954C56.4106 96.8481 58.0944 97.0716 59.8167 97.1524C70.4926 97.6535 80.4424 93.0495 87.9544 85.4471C91.4231 81.9368 94.8714 78.0263 97.5453 73.8231C98.2314 68.1902 97.5923 62.1906 96.4561 56.4741C95.1663 49.9843 92.6096 43.8704 88.6051 38.9871C85.831 37.3937 82.8759 35.9618 79.9733 34.5552C78.7417 33.9584 77.5195 33.3662 76.3246 32.7681C75.7804 32.4957 75.2344 32.2209 74.6869 31.9453L74.6837 31.9437C71.9786 30.582 69.2347 29.2008 66.4642 27.9944Z" fill="#8CD4EB"/>
<path d="M59.8167 97.1524C70.4926 97.6535 80.4424 93.0495 87.9544 85.4471C91.4231 81.9368 94.8714 78.0263 97.5453 73.8231C98.2314 68.1902 97.5923 62.1906 96.4561 56.4741C95.1663 49.9843 92.6096 43.8704 88.6051 38.9871C85.831 37.3937 82.8759 35.9618 79.9733 34.5552C78.7417 33.9584 77.5195 33.3662 76.3246 32.7681C75.7804 32.4957 75.2344 32.2209 74.6869 31.9453L74.6837 31.9437C71.9786 30.582 69.2347 29.2008 66.4642 27.9944C62.1363 27.757 57.7284 28.3496 53.4549 29.681C42.8777 32.9763 31.3607 38.2914 28.3049 49.2225C25.6352 58.7723 31.7432 67.5393 37.5058 75.8104C38.2423 76.8676 38.9732 77.9166 39.6793 78.9581C40.0016 79.4334 40.3242 79.9115 40.6477 80.391C44.7671 86.4965 49.039 92.8279 54.7694 96.4954C56.4106 96.8481 58.0944 97.0716 59.8167 97.1524Z" fill="#34C4F2"/>
<path d="M69.0046 55.8291C64.4142 72.6597 92.6837 66.8419 89.301 72.397C85.9182 77.9522 66.9961 60.9944 64.7762 78.4394C63.6306 87.4413 76.1929 92.2785 90.8866 85.359C102.618 79.8345 99.0263 64.5031 90.8866 64.5031C80.9274 64.5031 77.5789 61.774 78.5185 58.2657C80.6327 50.3714 103.995 65.5749 103.995 45.2061C103.995 35.1832 75.7294 31.172 69.0046 55.8291Z" fill="white"/>
<path fill-rule="evenodd" clip-rule="evenodd" d="M90.9419 71.3924C90.9867 71.9859 90.7825 72.5376 90.4902 73.0175C89.8163 74.1242 88.7277 74.6463 87.5435 74.7892C86.4357 74.9228 85.2064 74.7352 84.0186 74.4565C82.8123 74.1734 81.4982 73.7577 80.1981 73.346L80.1656 73.3357C78.855 72.9207 77.5418 72.5049 76.2449 72.1791C73.5638 71.5055 71.3175 71.3197 69.6597 72.0562C68.1268 72.7371 66.6614 74.4263 66.1319 78.5873C65.8833 80.5416 66.3782 82.2134 67.4164 83.5557C68.464 84.9102 70.1233 86.0021 72.3176 86.6692C76.7193 88.0073 83.1523 87.5834 90.2676 84.2327C95.5515 81.7444 97.3858 77.0753 96.9788 72.975C96.7745 70.9163 96.0078 69.0697 94.8983 67.7674C93.7981 66.476 92.4139 65.7668 90.8866 65.7668C85.8295 65.7668 82.1911 65.0833 79.8992 63.7758C78.7268 63.1069 77.8634 62.2488 77.394 61.2066C76.9239 60.1627 76.9018 59.0507 77.1934 57.9616C77.556 56.6077 78.4214 55.6793 79.622 55.1376C80.742 54.6321 82.0763 54.497 83.3893 54.4954C84.7189 54.4937 86.1925 54.6323 87.6552 54.7787C87.7942 54.7926 87.9333 54.8066 88.0725 54.8206C89.4231 54.9566 90.7765 55.0928 92.1141 55.1516C95.1082 55.283 97.6685 55.0002 99.4859 53.7231C101.232 52.4962 102.63 50.0962 102.63 45.2061C102.63 43.3157 101.303 41.5418 98.8161 40.2778C96.3399 39.0192 92.8861 38.3804 89.1746 38.7683C81.8429 39.5347 73.554 44.3109 70.3282 56.1384C69.2677 60.0266 70.1456 62.3424 71.7063 63.8682C73.3708 65.4954 76.0329 66.4517 79.0174 67.1123C80.4874 67.4377 81.9744 67.6795 83.3883 67.9062C83.4461 67.9155 83.5038 67.9247 83.5614 67.934C84.8902 68.1469 86.1804 68.3537 87.2501 68.6074C88.2985 68.856 89.4452 69.213 90.1746 69.8846C90.5863 70.2638 90.8949 70.7693 90.9419 71.3924ZM83.2992 69.1744C76.2391 68.0427 66.116 66.42 69.0046 55.8291C75.7294 31.172 103.995 35.1832 103.995 45.2061C103.995 57.6955 95.2114 56.8108 87.9285 56.0773C83.3338 55.6145 79.3364 55.2119 78.5185 58.2657C77.5789 61.774 80.9274 64.5031 90.8866 64.5031C99.0263 64.5031 102.618 79.8345 90.8866 85.359C76.1929 92.2785 63.6306 87.4413 64.7762 78.4394C66.1599 67.5652 74.0334 70.0584 80.5877 72.1338C84.5481 73.3879 88.0268 74.4894 89.301 72.397C90.5551 70.3375 87.4587 69.8412 83.2992 69.1744Z" fill="#34C4F2"/>
<path d="M70.9682 53.163C71.321 49.0435 68.9301 45.3563 64.5607 43.3183C58.5901 40.4895 49.7371 39.8812 43.5286 41.8377C30.865 45.826 22.1078 56.406 21.7303 68.1868C21.5137 74.9881 24.804 81.512 30.7669 86.0872C37.2405 91.0533 46.0486 93.0739 53.7573 91.3332C57.4638 90.4943 62.6636 87.8828 66.1085 85.267C69.5534 82.6513 73.7637 76.3914 69.2101 72.2351C66.2874 69.5673 63.9079 70.3229 60.8935 73.592C57.8792 76.8612 53.3108 79.5161 49.34 79.8888C45.3693 80.2615 40.7719 76.6709 40.3555 72.882C40.0636 70.2359 42.4404 66.8289 45.7974 64.9128C49.7214 62.6731 53.086 65.9176 57.5313 64.8602C59.5612 64.3774 60.2639 64.0802 62.5554 63.0941C68.7028 60.0544 70.7254 55.2069 70.9682 53.163Z" fill="white"/>
<path fill-rule="evenodd" clip-rule="evenodd" d="M52.0675 64.5727C53.7704 64.9453 55.5427 65.3332 57.5313 64.8602C59.5612 64.3774 60.2639 64.0802 62.5554 63.0941C68.7028 60.0544 70.7254 55.2069 70.9682 53.163C71.321 49.0435 68.9301 45.3563 64.5607 43.3183C58.5901 40.4895 49.7371 39.8812 43.5286 41.8377C30.865 45.826 22.1078 56.406 21.7303 68.1868C21.5137 74.9881 24.804 81.512 30.7669 86.0872C37.2405 91.0533 46.0486 93.0739 53.7573 91.3332C57.4638 90.4943 62.6636 87.8828 66.1085 85.267C69.5534 82.6513 73.7637 76.3914 69.2101 72.2351C66.2874 69.5673 63.9079 70.3229 60.8935 73.592C57.8792 76.8612 53.3108 79.5161 49.34 79.8888C45.3693 80.2615 40.7719 76.6709 40.3555 72.882C40.3211 72.5701 40.3238 72.2478 40.3607 71.9185C40.6374 69.4536 42.836 66.6031 45.7974 64.9128C47.8325 63.7512 49.7172 64.0648 51.6802 64.4883C51.8089 64.5161 51.938 64.5443 52.0675 64.5727ZM63.804 44.9153L63.8136 44.9199C67.6392 46.7043 69.473 49.7557 69.21 52.9814C69.0211 54.4545 67.3576 58.7311 61.8131 61.4897C59.5866 62.4476 58.9903 62.6966 57.1223 63.141C55.9715 63.4147 54.9275 63.3299 53.7687 63.1173C53.3411 63.0389 52.8977 62.943 52.4276 62.8414C52.2347 62.7997 52.0372 62.757 51.8344 62.7141C49.8848 62.302 47.489 61.9125 44.9213 63.378C43.0197 64.4635 41.385 65.9738 40.2517 67.6227C39.1397 69.2407 38.3897 71.177 38.5989 73.075C38.8748 75.5839 40.4827 77.8216 42.4277 79.3393C44.3802 80.8627 46.9581 81.8874 49.5052 81.6483C54.0213 81.2244 58.9681 78.2872 62.1928 74.79C63.6485 73.2112 64.6717 72.5704 65.4286 72.4209C66.0172 72.3047 66.7956 72.4238 68.0188 73.5403C68.8732 74.3202 69.2588 75.1327 69.3855 75.9331C69.517 76.7641 69.3858 77.7009 69.0062 78.7024C68.2331 80.7423 66.5562 82.7082 65.0398 83.8596C61.7493 86.358 56.7768 88.8376 53.3681 89.6094C46.1926 91.2296 37.9175 89.3454 31.8426 84.685C26.2773 80.4149 23.3004 74.4103 23.4966 68.2431C23.8464 57.3313 31.9921 47.3238 44.0597 43.5232C49.8403 41.7016 58.2334 42.2761 63.804 44.9153Z" fill="#34C4F2"/>
</g>
<defs>
<clipPath id="clip0_1744_11349">
<rect width="82.5517" height="82.5517" fill="white" transform="translate(21.72 21.7295)"/>
</clipPath>
</defs>
</svg>
