<svg width="36" height="32" viewBox="0 0 36 32" fill="none" xmlns="http://www.w3.org/2000/svg">
<g style="mix-blend-mode:luminosity">
<path d="M18.2 0C9.35995 0 2.19995 7.16 2.19995 16C2.19995 23.08 6.77995 29.06 13.14 31.18C13.94 31.32 14.24 30.84 14.24 30.42C14.24 30.04 14.22 28.78 14.22 27.44C10.2 28.18 9.15995 26.46 8.83995 25.56C8.65995 25.1 7.87995 23.68 7.19995 23.3C6.63995 23 5.83995 22.26 7.17995 22.24C8.43995 22.22 9.33995 23.4 9.63995 23.88C11.08 26.3 13.38 25.62 14.3 25.2C14.44 24.16 14.86 23.46 15.32 23.06C11.76 22.66 8.03995 21.28 8.03995 15.16C8.03995 13.42 8.65995 11.98 9.67995 10.86C9.51995 10.46 8.95995 8.82 9.83995 6.62C9.83995 6.62 11.18 6.2 14.24 8.26C15.52 7.9 16.88 7.72 18.24 7.72C19.6 7.72 20.96 7.9 22.24 8.26C25.3 6.18 26.64 6.62 26.64 6.62C27.52 8.82 26.96 10.46 26.8 10.86C27.82 11.98 28.44 13.4 28.44 15.16C28.44 21.3 24.7 22.66 21.14 23.06C21.72 23.56 22.22 24.52 22.22 26.02C22.22 28.16 22.2 29.88 22.2 30.42C22.2 30.84 22.5 31.34 23.3 31.18C26.4767 30.1085 29.2373 28.0673 31.1928 25.3441C33.1482 22.6208 34.2 19.3526 34.2 16C34.2 7.16 27.04 0 18.2 0Z" fill="#7F7F7F"/>
</g>
</svg>
