<svg width="250" height="40" viewBox="0 0 250 40" fill="none" xmlns="http://www.w3.org/2000/svg">
<path fill-rule="evenodd" clip-rule="evenodd" d="M23.6018 34.2934H0.895822C0.895822 37.4548 3.42755 40 6.57546 40H23.6018C26.7363 40 29.2681 37.4413 29.2681 34.2934V10.8237C29.2681 10.7165 29.1745 10.6097 29.0673 10.6097H23.8026C23.6953 10.6097 23.6018 10.7033 23.6018 10.8237V34.2934ZM23.6018 0C26.7363 0 29.2681 2.55866 29.2681 5.72013H6.56218V29.1895C6.56218 29.2968 6.46841 29.404 6.34789 29.404H1.08333C0.97609 29.404 0.868896 29.3101 0.868896 29.1895V5.72013C0.868896 2.55866 3.40081 0 6.54886 0H23.6018Z" fill="white"/>
<path fill-rule="evenodd" clip-rule="evenodd" d="M249.898 9.25021C249.898 9.02931 249.742 8.77657 249.552 8.68171C249.11 8.42909 248.447 8.27165 247.089 8.27165C244.027 8.27165 241.343 9.78686 240.175 12.3442V9.25021C240.175 8.99747 239.955 8.77657 239.671 8.77657H235.124C234.871 8.77657 234.651 8.96618 234.651 9.25021V30.2131C234.651 30.4654 234.871 30.6863 235.155 30.6863L239.955 30.6867C240.206 30.6867 240.428 30.4654 240.428 30.2131V20.7737C240.428 16.5746 243.364 14.4909 247.121 14.4909C248.005 14.4909 248.889 14.6483 249.331 14.8067C249.647 14.9015 249.931 14.6801 249.931 14.333V9.21847L249.898 9.25021ZM219.338 8.23992C226.063 8.23992 231.083 12.8808 231.083 19.7313C231.083 26.5507 226.063 31.223 219.371 31.223C212.677 31.223 207.689 26.5825 207.689 19.7313C207.658 12.8808 212.646 8.23992 219.338 8.23992ZM219.338 25.5408C222.622 25.5408 225.148 23.2357 225.148 19.7313C225.148 16.2271 222.622 13.8912 219.338 13.8912C216.087 13.8912 213.561 16.2271 213.561 19.7313C213.593 23.2357 216.118 25.5408 219.338 25.5408ZM192.756 8.23992C199.481 8.23992 204.469 12.8808 204.469 19.7313C204.469 26.5507 199.45 31.223 192.788 31.223C186.064 31.223 181.044 26.5825 181.044 19.7313C181.044 12.8808 186.032 8.23992 192.756 8.23992ZM192.756 25.5408C196.04 25.5408 198.565 23.2357 198.565 19.7313C198.565 16.2271 196.04 13.8912 192.788 13.8912C189.536 13.8912 187.01 16.2271 187.01 19.7313C186.979 23.2675 189.504 25.5722 192.756 25.5408ZM177.003 0.0312881C177.256 0.0312881 177.476 0.220898 177.476 0.504921V30.2131C177.476 30.4654 177.287 30.6863 177.003 30.6863L172.203 30.6867C171.951 30.6867 171.73 30.4654 171.73 30.2131V27.6245C170.12 29.8974 167.657 31.2547 164.501 31.2547C159.102 31.2547 154.587 27.1508 154.587 19.7317C154.587 12.3129 159.102 8.20853 164.406 8.20853C167.815 8.20853 170.247 9.81859 171.73 11.9337V0.505363C171.73 0.252628 171.951 0 172.236 0L177.003 0.0312881ZM166.206 25.6352C169.425 25.6352 171.921 23.3623 171.921 19.763C171.921 16.1327 169.425 13.8912 166.206 13.8912C162.953 13.8912 160.492 16.2271 160.492 19.763C160.492 23.3306 162.953 25.6352 166.206 25.6352ZM151.43 24.0881C151.43 29.0767 147.832 31.223 142.022 31.223C138.045 31.223 134.572 30.1183 132.615 27.9085C132.456 27.7189 132.456 27.4661 132.615 27.277L135.361 23.6464C135.55 23.3936 135.897 23.3936 136.087 23.6146C137.539 25.1303 139.812 26.0458 142.591 26.0458C144.201 26.0458 145.527 25.6035 145.527 24.3722C145.527 23.1727 144.327 22.92 140.665 22.131C137.445 21.4678 133.435 19.9839 133.435 15.2168C133.435 10.7654 136.94 8.23992 142.622 8.23992C146.379 8.23992 149.063 9.37635 150.957 11.176C151.146 11.3652 151.146 11.6492 150.989 11.8393L148.368 15.2803C148.21 15.5012 147.895 15.5326 147.674 15.3747C146.411 14.2069 144.264 13.5119 142.149 13.5119C140.381 13.5119 139.37 14.0804 139.37 15.0277C139.37 16.1327 140.57 16.385 144.422 17.2061C148.242 18.0268 151.43 19.479 151.43 24.0881ZM129.331 24.0881C129.331 29.0767 125.732 31.223 119.923 31.223C115.914 31.223 112.473 30.1183 110.484 27.9085C110.357 27.7189 110.357 27.4661 110.484 27.277L113.262 23.6776C113.419 23.4253 113.799 23.4253 113.988 23.6464C115.44 25.1616 117.713 26.0771 120.491 26.0771C122.102 26.0771 123.428 25.6352 123.428 24.4039C123.428 23.2045 122.228 22.9517 118.566 22.1624C115.346 21.4995 111.336 20.0156 111.336 15.2481C111.336 10.7968 114.808 8.27165 120.523 8.27165C124.28 8.27165 126.964 9.40808 128.858 11.2078C129.047 11.3652 129.047 11.6809 128.889 11.8701L126.269 15.2803C126.111 15.5012 125.764 15.5326 125.574 15.3747C124.312 14.2069 122.165 13.5119 120.05 13.5119C118.281 13.5119 117.271 14.0804 117.271 15.0277C117.271 16.1327 118.471 16.385 122.323 17.2061C126.111 18.0268 129.299 19.479 129.331 24.0881ZM96.9083 8.30294C103.254 8.30294 106.442 11.1129 106.442 17.2061V30.2762C106.442 30.5289 106.221 30.7498 105.937 30.7498H101.139C100.886 30.7498 100.665 30.5606 100.665 30.2762V27.7819C99.5603 29.5503 97.3823 31.1917 93.9722 31.1917C89.6469 31.1917 86.6164 28.4134 86.6164 24.3722C86.6164 20.3945 89.5842 17.8689 93.5937 17.4901L99.5603 16.953C100.349 16.8586 100.665 16.6059 100.665 16.0697V15.7222C100.665 14.4592 99.4655 13.5436 96.8769 13.5436C94.7933 13.5436 92.6147 14.1434 91.6679 15.9118C91.5414 16.1641 91.2257 16.1958 91.0047 16.0379L87.5319 13.5119C87.3423 13.3858 87.2792 13.1018 87.4058 12.9122C88.921 9.84999 92.3621 8.33467 96.9083 8.33467V8.30294ZM100.665 21.8467V20.9629L95.2982 21.6261C93.5303 21.8784 92.6147 22.7938 92.6147 24.0256C92.6147 25.446 93.7194 26.3614 95.7083 26.3614C98.7392 26.3614 100.697 24.246 100.665 21.8467ZM82.7013 0.504921V30.2131C82.7013 30.4971 82.4804 30.718 82.2281 30.718H77.3975C77.1453 30.718 76.8925 30.4971 76.8925 30.2131V0.504921C76.8925 0.252628 77.1135 0.0317307 77.3662 0.0317307L82.1964 0.0312881C82.4804 0.0312881 82.7013 0.252628 82.7013 0.504921ZM71.6518 8.74529C71.9041 8.74529 72.1572 8.96618 72.1572 9.25021V29.2341C72.1572 34.8854 69.4734 40 60.3179 40C56.1193 40 53.2145 38.8001 51.0047 36.8743C50.8468 36.7481 50.8151 36.4637 51.0995 35.9905L53.2462 32.3281C53.3728 32.0758 53.7199 32.0124 53.9408 32.2333C55.677 33.7803 57.6345 34.601 60.097 34.601C64.959 34.601 66.4742 32.1072 66.4742 28.9501V27.561C65.0533 29.6129 62.6225 30.9072 59.4973 30.9072C53.6881 30.9072 49.2681 26.9295 49.2681 19.6368C49.2681 12.312 53.909 8.23948 59.339 8.23948C62.6857 8.23948 65.2116 9.84999 66.4429 11.8388V9.28149C66.4429 9.02887 66.6638 8.77657 66.9478 8.77657L71.6518 8.74529ZM60.8864 25.6035C64.1378 25.6035 66.5372 23.3306 66.5372 19.7313C66.5372 16.101 64.1378 13.8594 60.8864 13.8594C57.6028 13.8594 55.172 16.1958 55.172 19.7313C55.172 23.2675 57.6341 25.6035 60.8864 25.6035Z" fill="white"/>
</svg>
