<svg width="36" height="32" viewBox="0 0 36 32" fill="none" xmlns="http://www.w3.org/2000/svg">
<g style="mix-blend-mode:luminosity">
<path d="M26.5 0H9.5C5.35786 0 2 3.35786 2 7.5V24.5C2 28.6421 5.35786 32 9.5 32H26.5C30.6421 32 34 28.6421 34 24.5V7.5C34 3.35786 30.6421 0 26.5 0Z" fill="url(#paint0_radial_2594_39501)"/>
<path d="M26.5 0H9.5C5.35786 0 2 3.35786 2 7.5V24.5C2 28.6421 5.35786 32 9.5 32H26.5C30.6421 32 34 28.6421 34 24.5V7.5C34 3.35786 30.6421 0 26.5 0Z" fill="url(#paint1_radial_2594_39501)"/>
<path d="M18.0011 3.5C14.6064 3.5 14.1803 3.51488 12.847 3.5755C11.5163 3.6365 10.6079 3.84712 9.81313 4.15625C8.99088 4.4755 8.2935 4.90262 7.59875 5.59762C6.90338 6.2925 6.47625 6.98987 6.156 7.81175C5.846 8.60675 5.63512 9.5155 5.57525 10.8456C5.51562 12.179 5.5 12.6053 5.5 16.0001C5.5 19.395 5.515 19.8197 5.5755 21.153C5.63675 22.4837 5.84738 23.3921 6.15625 24.1869C6.47575 25.0091 6.90288 25.7065 7.59788 26.4013C8.2925 27.0966 8.98988 27.5247 9.8115 27.844C10.6069 28.1531 11.5154 28.3637 12.8459 28.4247C14.1792 28.4854 14.605 28.5002 17.9996 28.5002C21.3948 28.5002 21.8195 28.4854 23.1528 28.4247C24.4835 28.3637 25.3929 28.1531 26.1882 27.844C27.0101 27.5247 27.7065 27.0966 28.401 26.4013C29.0964 25.7065 29.5234 25.0091 29.8438 24.1873C30.151 23.3921 30.362 22.4835 30.4245 21.1532C30.4844 19.82 30.5 19.395 30.5 16.0001C30.5 12.6053 30.4844 12.1792 30.4245 10.8459C30.362 9.51512 30.151 8.60688 29.8438 7.81213C29.5234 6.98988 29.0964 6.2925 28.401 5.59762C27.7057 4.90237 27.0104 4.47525 26.1875 4.15637C25.3906 3.84712 24.4817 3.63638 23.151 3.5755C21.8176 3.51488 21.3931 3.5 17.9972 3.5H18.0011ZM16.8798 5.75262C17.2126 5.75213 17.584 5.75262 18.0011 5.75262C21.3388 5.75262 21.7342 5.76463 23.0522 5.8245C24.271 5.88025 24.9325 6.08388 25.3731 6.255C25.9565 6.4815 26.3724 6.75238 26.8096 7.19C27.2471 7.6275 27.5179 8.04412 27.745 8.6275C27.9161 9.0675 28.12 9.729 28.1755 10.9478C28.2354 12.2655 28.2484 12.6612 28.2484 15.9972C28.2484 19.3333 28.2354 19.7291 28.1755 21.0467C28.1198 22.2655 27.9161 22.927 27.745 23.3671C27.5185 23.9505 27.2471 24.3659 26.8096 24.8031C26.3721 25.2406 25.9568 25.5114 25.3731 25.738C24.933 25.9099 24.271 26.113 23.0522 26.1688C21.7345 26.2286 21.3388 26.2416 18.0011 26.2416C14.6634 26.2416 14.2677 26.2286 12.9501 26.1688C11.7314 26.1125 11.0699 25.9089 10.6289 25.7377C10.0456 25.5111 9.62887 25.2404 9.19137 24.8029C8.75387 24.3654 8.48312 23.9498 8.256 23.3661C8.08488 22.926 7.881 22.2645 7.8255 21.0457C7.76562 19.728 7.75362 19.3323 7.75362 15.9941C7.75362 12.6561 7.76562 12.2624 7.8255 10.9446C7.88125 9.72587 8.08488 9.06437 8.256 8.62375C8.48263 8.04037 8.75388 7.62375 9.1915 7.18625C9.629 6.74875 10.0456 6.47787 10.629 6.25087C11.0696 6.079 11.7314 5.87587 12.9501 5.81987C14.1032 5.76775 14.5501 5.75212 16.8798 5.7495V5.75262ZM24.6736 7.82812C23.8455 7.82812 23.1736 8.49938 23.1736 9.32763C23.1736 10.1558 23.8455 10.8276 24.6736 10.8276C25.5018 10.8276 26.1736 10.1558 26.1736 9.32763C26.1736 8.4995 25.5018 7.82762 24.6736 7.82762V7.82812ZM18.0011 9.58075C14.4561 9.58075 11.5819 12.455 11.5819 16.0001C11.5819 19.5452 14.4561 22.4181 18.0011 22.4181C21.5462 22.4181 24.4195 19.5452 24.4195 16.0001C24.4195 12.4551 21.546 9.58075 18.0009 9.58075H18.0011ZM18.0011 11.8334C20.3022 11.8334 22.1679 13.6988 22.1679 16.0001C22.1679 18.3013 20.3022 20.1669 18.0011 20.1669C15.6999 20.1669 13.8345 18.3013 13.8345 16.0001C13.8345 13.6988 15.6999 11.8334 18.0011 11.8334Z" fill="#CECECE"/>
</g>
<defs>
<radialGradient id="paint0_radial_2594_39501" cx="0" cy="0" r="1" gradientUnits="userSpaceOnUse" gradientTransform="translate(10.5 34.4646) rotate(-90) scale(31.7144 29.4969)">
<stop stop-color="#FFDD55"/>
<stop offset="0.1" stop-color="#FFDD55"/>
<stop offset="0.5" stop-color="#FF543E"/>
<stop offset="1" stop-color="#C837AB"/>
</radialGradient>
<radialGradient id="paint1_radial_2594_39501" cx="0" cy="0" r="1" gradientUnits="userSpaceOnUse" gradientTransform="translate(-3.36012 2.30512) rotate(78.681) scale(14.1765 58.436)">
<stop stop-color="#3771C8"/>
<stop offset="0.128" stop-color="#3771C8"/>
<stop offset="1" stop-color="#6600FF" stop-opacity="0"/>
</radialGradient>
</defs>
</svg>
