<svg width="37" height="34" viewBox="0 0 37 34" fill="none" xmlns="http://www.w3.org/2000/svg">
<g style="mix-blend-mode:luminosity">
<path d="M31.25 1.75012H5.25C4.66008 1.74411 4.09187 1.97238 3.67005 2.38482C3.24823 2.79727 3.00725 3.36021 3 3.95012V30.0551C3.00856 30.6442 3.25012 31.2058 3.67179 31.6172C4.09347 32.0285 4.66093 32.2561 5.25 32.2501H31.25C31.84 32.2548 32.4078 32.0258 32.8294 31.6131C33.251 31.2003 33.4921 30.6375 33.5 30.0476V3.94262C33.4895 3.35444 33.2472 2.79418 32.8259 2.38363C32.4046 1.97308 31.8383 1.74541 31.25 1.75012Z" fill="#0076B2"/>
<path d="M7.34732 13.1231H11.9456V27.9183H7.34732V13.1231ZM9.64771 5.75977C10.1751 5.75977 10.6906 5.91619 11.1291 6.20925C11.5676 6.50231 11.9093 6.91884 12.111 7.40614C12.3127 7.89344 12.3654 8.42962 12.2623 8.94685C12.1592 9.46408 11.9051 9.93912 11.532 10.3119C11.1589 10.6846 10.6836 10.9383 10.1663 11.0409C9.64894 11.1435 9.11281 11.0903 8.62571 10.8882C8.1386 10.686 7.7224 10.3439 7.42976 9.90512C7.13712 9.46636 6.98119 8.95066 6.98169 8.42326C6.98236 7.71662 7.26354 7.03916 7.76345 6.53973C8.26335 6.0403 8.94107 5.75977 9.64771 5.75977ZM14.8299 13.1231H19.2377V15.1544H19.2987C19.9131 13.9915 21.4112 12.7651 23.6481 12.7651C28.3047 12.7549 29.168 15.8196 29.168 19.7933V27.9183H24.5698V20.72C24.5698 19.0061 24.5393 16.7997 22.1805 16.7997C19.8217 16.7997 19.4206 18.6684 19.4206 20.6083V27.9183H14.8299V13.1231Z" fill="#CECECE"/>
</g>
</svg>
