<svg width="145" height="79" viewBox="0 0 145 79" fill="none" xmlns="http://www.w3.org/2000/svg">
<path d="M138.497 33.4376C136.78 32.5597 134.745 32.4377 132.537 33.0718C132.586 32.8035 132.635 32.5353 132.66 32.267C132.807 31.0721 132.758 29.8771 132.537 28.7065C132.316 27.4872 131.875 26.2678 131.237 25.146C130.526 23.8535 129.57 22.7805 128.417 21.9757C127.215 21.1466 125.817 20.6101 124.345 20.415C123.315 20.293 122.285 20.3418 121.231 20.5613C121.697 19.0005 122.064 17.3666 122.359 15.6351C122.727 13.4159 122.898 10.9772 122.849 8.36784C122.825 6.14862 121.77 4.22206 119.98 3.10026C118.091 1.9053 115.639 1.78337 113.407 2.78323C111.15 3.80748 109.482 5.66089 108.109 7.3192C105.779 10.1481 103.841 13.5623 102.002 18.0738C101.708 18.8298 101.413 19.5614 101.168 20.2687C98.9116 18.1958 96.1401 16.8545 93.295 16.5131C91.897 16.3424 90.499 16.4155 89.1746 16.7082C88.0954 16.952 87.0653 17.3666 86.1333 17.9031C84.7353 18.7079 83.5335 19.8785 82.6506 21.2441C81.4978 21.1954 80.5658 21.4636 79.9527 21.7319C79.8055 21.805 79.6583 21.8782 79.5357 21.9514C76.6171 19.0005 71.9571 17.8544 68.0574 19.2688C67.1989 19.5858 66.4386 20.0248 65.7519 20.5369C65.6538 20.2443 65.5557 19.9516 65.433 19.6834C64.5746 17.8544 62.8823 16.635 60.6995 16.2204C55.7696 15.3669 53.1944 19.976 52.1152 21.9514C52.0907 22.0001 52.0416 22.0733 52.0171 22.1221C51.9681 21.927 51.8945 21.7075 51.7964 21.488C51.5511 20.8539 51.2323 20.3174 50.8398 19.8053C50.3003 19.1225 49.6135 18.5372 48.8287 18.0982C48.2155 17.7568 47.6269 17.4885 47.0628 17.2935C46.376 17.0496 45.6648 16.8789 44.9535 16.7813C43.7272 16.635 42.4763 16.7569 41.3481 17.1227C43.2367 14.3426 44.1441 11.026 43.58 8.05081C42.8442 4.12451 39.8275 1.27124 35.4618 0.39331C29.4774 -0.777262 21.5308 0.734728 16.5274 4.00258C6.3735 10.6602 1.29654 22.561 3.92086 33.6083C5.4415 39.9733 9.97888 45.2653 16.3803 48.1185C23.3458 51.2157 31.6112 51.0206 37.988 47.6064C41.0538 45.9725 44.1687 43.046 46.5477 39.8026C46.5968 43.3387 48.1174 46.6309 50.7663 48.8989C53.783 51.4839 57.8789 52.4594 61.9993 51.6059C63.7652 51.2401 65.2859 50.606 66.6348 49.8256C67.5914 50.2158 68.5969 50.4841 69.6271 50.606C71.2948 50.8011 72.9626 50.6304 74.655 50.1183C76.4944 49.5574 78.2358 48.6063 80.0262 47.2162C80.4677 47.6796 80.9582 48.1185 81.4488 48.5087C82.3562 49.2159 83.3618 49.8012 84.4165 50.2646C85.5692 50.7767 86.771 51.0937 88.0218 51.2401C89.101 51.362 90.1556 51.362 91.2103 51.2401C92.363 51.0937 93.4912 50.8011 94.5459 50.3865C96.2382 49.7281 97.7833 48.7282 99.1323 47.3869C99.7209 46.826 100.261 46.1676 100.776 45.4847C101.708 46.6797 102.86 47.6796 104.185 48.4356C105.583 49.2159 107.152 49.7281 108.845 49.9232C110.954 50.167 113.235 49.9719 115.565 49.3135C116.718 48.9965 117.846 48.5575 118.901 48.0454C120.666 48.9233 122.506 49.4842 124.394 49.7037C129.373 50.3134 133.176 49.5448 137.099 46.2163C139.767 43.9533 142.056 42.1948 141.98 38.7052C141.931 36.4616 140.655 34.535 138.497 33.4376ZM36.6145 21.5612C36.2712 22.3659 36.0504 23.1951 35.9278 24.1218C35.8297 24.9022 35.8297 25.7069 35.9033 26.5605C35.9768 27.3165 36.0995 28.0725 36.3202 28.8041C36.5164 29.5357 36.7862 30.2185 37.1051 30.877C35.658 33.4864 33.794 35.2422 31.5376 36.0714C28.1284 37.3395 23.6646 35.3154 22.3402 31.8768C21.4327 29.4869 22.2175 26.7556 24.3268 24.8778C25.4305 23.9267 26.6813 23.756 29.0114 23.5365C30.6301 23.3902 32.4696 23.2195 34.3826 22.561C35.1675 22.3172 35.9033 21.9514 36.6145 21.5612Z" fill="url(#paint0_linear_1403_2149)"/>
<path d="M44.9782 20.4883C44.9046 20.4638 44.8556 20.4638 44.782 20.4638C44.8556 20.4883 44.9046 20.4883 44.9782 20.4883Z" fill="url(#paint1_linear_1403_2149)"/>
<path d="M61.6807 20.4151C62.4901 21.0735 63.0051 22.0002 63.373 22.9513C63.839 20.5614 62.3184 18.4397 59.7677 18.5129C57.6584 18.5617 56.1868 19.5371 55.4755 21.5369C57.0698 19.9273 59.7186 18.8299 61.6807 20.4151Z" fill="#FFFFFE"/>
<path d="M38.6993 22.9512C39.337 21.8051 39.4105 20.9271 40.6614 20.1711C41.7405 19.4883 43.0404 19.1957 44.2913 19.1469C47.259 19.025 49.4909 20.415 49.4909 23.5609C48.24 21.0491 46.0572 20.5126 43.3348 20.4882C41.8632 20.4638 39.4351 21.6344 38.6993 22.9512Z" fill="#FFFFFE"/>
<path d="M78.0891 23.9024C76.9609 21.8295 74.778 20.6833 72.448 20.6833C71.3443 20.6833 70.1916 20.9515 69.186 21.4637C68.6955 21.7075 68.3031 22.0002 67.8861 22.366C67.8125 22.4148 66.7824 23.6097 67.0032 23.5609C67.9352 23.3415 68.8181 22.8293 69.7992 22.4879C71.1481 22.0246 72.9386 21.5856 74.312 21.9026C75.0969 22.0977 77.6967 23.1951 78.0891 23.9024Z" fill="#FFFFFE"/>
<path d="M93.1967 18.2202C91.6025 18.0007 89.763 17.9764 88.2424 18.6836C87.5801 18.9762 86.9915 19.5371 86.4274 20.0005C85.3973 20.8784 85.7161 21.4149 85.3973 21.6588C87.6047 20.098 89.5913 18.6348 92.4118 19.025C95.4776 19.4396 97.4643 20.8296 99.8433 22.5855C99.2057 19.6347 95.8701 18.6104 93.1967 18.2202Z" fill="#FFFFFE"/>
<path d="M110.537 8.61177C110.757 8.39228 110.978 8.19719 111.199 8.00209C111.984 7.31926 112.72 6.58765 113.627 6.19746C114.878 5.63656 116.276 5.49024 117.478 5.78288C118.115 5.92921 118.729 6.22185 119.219 6.6852C119.587 7.051 120.2 7.78261 120.249 8.44106C120.494 7.051 119.415 5.36831 118.508 4.97812C117.036 4.31967 115.197 4.51476 113.603 5.17321C112.155 5.7585 110.856 6.97784 109.801 8.3679C108.722 9.78234 107.863 11.2699 107.079 12.9526C108.182 11.3431 109.237 9.87989 110.537 8.61177Z" fill="#FFFFFE"/>
<path d="M127.216 25.4631C127.682 25.9265 128.123 26.4142 128.516 26.902C128.982 27.4873 129.325 27.9506 129.668 28.6334C129.864 29.0236 130.012 29.5114 130.11 29.9016C130.306 29.0236 130.012 28.292 129.717 27.4872C129.251 26.2923 128.54 25.1949 127.633 24.2682C126.823 23.439 125.376 22.9025 124.248 22.7562C123.267 22.6099 121.624 22.8293 121.109 23.8292C122.457 23.3415 124.689 23.6097 125.867 24.3901C126.333 24.6828 126.799 25.0486 127.216 25.4631Z" fill="#FFFFFE"/>
<path d="M139.527 38.1931C139.429 37.9248 139.282 37.6566 139.11 37.4371C137.958 35.7544 135.701 34.9252 133.911 36.047C133.617 36.2177 133.347 36.4372 133.126 36.7055C133.028 36.8518 132.832 37.4127 132.709 37.4858C134.205 36.6323 135.726 35.9007 137.345 36.9006C138.62 37.6809 139.259 40.8686 139.478 40.4854C139.924 39.7087 139.822 38.9003 139.527 38.1931Z" fill="#FFFFFE"/>
<path d="M80.4437 24.2194C80.8362 23.5609 81.9398 23.5609 82.6021 23.5853C82.7737 23.0488 81.6701 22.8293 81.2531 22.9756C80.7626 23.1463 80.3947 23.8536 80.272 24.2925" fill="#FFFFFE"/>
<path d="M32.837 3.66122C32.4691 3.61244 32.0767 3.58806 31.6597 3.56367C30.2372 3.49051 28.9618 3.34419 27.2695 3.63683C24.915 4.05141 22.2171 4.92934 19.7644 6.1243C18.4891 6.75836 17.2382 7.48996 16.159 8.31912C15.3497 8.92879 14.0007 10.1238 13.8045 10.7822C13.6083 9.58724 16.0609 7.14855 17.9249 6.07552C20.9417 4.34405 24.5471 3.12471 27.5638 2.56381C30.2617 2.05168 32.5917 2.24678 34.4067 2.80768C36.2462 3.36858 37.6196 4.17334 38.8214 5.22198C36.9329 4.53915 35.1425 3.90509 32.837 3.66122Z" fill="#FFFFFE"/>
<path d="M136.461 38.5589C135.13 37.2857 133.003 38.6564 131.801 39.2905C128.834 40.8269 126.087 43.7777 122.457 41.9731C122.383 41.9243 122.31 41.8755 122.236 41.8511C122.261 41.8267 122.285 41.8024 122.334 41.778C123.512 40.8025 124.836 39.5588 125.94 38.0712C126.504 37.3395 127.019 36.5348 127.411 35.6812C127.828 34.8277 128.123 33.901 128.245 32.9255C128.343 32.2183 128.319 31.4623 128.172 30.7307C128.024 29.9747 127.755 29.2431 127.362 28.5115C126.97 27.8286 126.479 27.2434 125.866 26.8044C125.253 26.3654 124.517 26.1216 123.83 26.024C123.119 25.9265 122.408 26.024 121.795 26.1947C120.863 26.463 120.053 26.9263 119.342 27.4872C118.655 28.0481 118.067 28.731 117.625 29.487C116.595 31.3404 115.786 33.4376 115.516 35.6081C115.418 36.486 115.393 37.3883 115.516 38.2906C115.614 38.9735 115.786 39.6563 116.031 40.3391C113.088 40.9976 109.556 40.6805 108.011 37.7785C107.496 36.8274 107.275 35.8519 107.226 34.8521C113.456 30.7307 116.742 23.3658 117.969 16.1473C118.336 14.0256 118.435 11.8552 118.41 9.70915C118.386 7.92891 116.742 7.41678 115.271 8.09962C113.848 8.73368 112.573 10.2213 111.592 11.3919C109.262 14.172 107.569 17.5617 106.196 20.9515C105.387 22.9269 104.7 24.951 104.136 26.9995C103.621 28.9992 103.228 31.0477 102.983 32.9499C102.345 33.2425 101.683 33.4864 101.021 33.7059C101.045 33.5596 101.07 33.4376 101.094 33.2913C101.266 31.9256 101.266 30.5112 100.898 29.048C100.702 28.3408 100.432 27.6092 100.04 26.9263C99.6474 26.2435 99.1323 25.5607 98.4946 24.951C96.8514 23.3414 94.8402 22.3416 92.829 22.0977C91.9706 22.0002 91.0877 22.0246 90.2538 22.2196C89.6161 22.366 89.0275 22.5855 88.4633 22.9269C87.6294 23.4146 86.8937 24.1218 86.3786 24.9754C85.839 25.8289 85.5202 26.8288 85.373 27.9506C85.2994 28.4627 85.2994 29.0236 85.324 29.5845C85.373 30.8282 85.7409 31.9988 86.3296 33.0231C86.771 33.7791 87.3351 34.4619 87.9483 35.0472C88.9048 35.9251 90.0085 36.6323 91.1858 37.1201C92.363 37.6322 93.5894 37.9736 94.8402 38.1199C95.1345 38.1687 95.4288 38.1687 95.7477 38.1931C95.0855 40.144 94.0063 42.3145 92.8045 43.2656C92.4121 43.5582 92.0197 43.8021 91.5782 43.9972C91.1367 44.1923 90.6707 44.3142 90.1311 44.3874C89.7632 44.4361 89.3953 44.4361 89.052 44.3874C88.4879 44.3142 87.9238 44.1435 87.4087 43.8509C86.6239 43.4363 85.8635 42.7534 85.2749 41.9243C84.6618 41.0951 84.2203 40.144 83.975 39.2173C83.7788 38.4857 83.7543 37.6566 83.7543 36.7299C83.7543 36.2421 83.7788 35.7056 83.7788 35.1447C83.9505 34.5107 84.1222 33.901 84.2693 33.2669C84.6127 31.6574 85.7164 28.7066 83.9995 27.4872C80.5904 25.0973 80.2225 30.3161 80.0017 32.1695C79.9282 32.6816 79.9282 33.2425 79.9527 33.8522C79.9772 34.0961 79.9527 34.3643 79.9772 34.6082C79.7074 35.413 79.4376 36.1934 79.0697 36.9494C78.6037 37.8761 78.0396 38.754 77.3529 39.6075C76.4454 40.7537 75.2191 41.9243 73.9928 42.7047C73.3796 43.0949 72.7665 43.3875 72.2023 43.5826C71.6382 43.7533 71.1477 43.8021 70.6817 43.7533C70.3629 43.7045 70.044 43.6314 69.7252 43.4607C69.6516 43.4119 69.578 43.3631 69.5045 43.3143C69.6271 43.1924 69.7742 43.0949 69.8969 42.9729C71.2949 41.778 72.4967 40.583 73.306 39.6807C74.2626 38.5833 75.1946 37.3395 75.9549 35.9739C77.4265 33.3157 79.0452 29.8771 77.0831 27.0239C75.5625 24.8291 72.2514 23.7073 69.6761 24.634C67.6895 25.3656 66.316 27.4385 65.4331 29.1212C63.4219 32.9255 62.6861 36.3885 63.6426 40.6806C63.7898 41.3146 63.986 41.9243 64.2558 42.5096C64.0596 42.6315 63.8389 42.7778 63.6426 42.8998C62.8578 43.3631 62.0975 43.7289 61.4598 43.924C61.141 44.0216 60.8466 44.0947 60.6014 44.1435C60.3561 44.1923 60.1599 44.1923 60.0127 44.1679C59.9637 44.1679 59.9146 44.1435 59.8901 44.1435C59.2279 43.9972 58.7128 43.7289 58.2468 43.3631C57.9035 43.0949 57.6092 42.7534 57.3394 42.3876C56.9469 41.8024 56.6526 41.1195 56.5055 40.3635C56.3338 39.6075 56.3093 38.8271 56.4074 38.0468C56.4319 37.8517 56.4564 37.6566 56.5055 37.4371C57.045 34.9009 58.0016 32.4134 59.0807 29.9259C59.8165 28.2432 63.937 22.5123 59.9637 21.7807C57.4865 21.3173 56.2111 25.4387 55.0584 26.8532C54.0774 28.0481 52.9982 29.0236 51.8945 29.6577C51.3304 29.9747 50.7663 30.1942 50.1531 30.3405C49.54 30.4868 48.9023 30.5356 48.191 30.4868C48.0193 30.4868 47.8722 30.4624 47.725 30.438C47.3816 30.3893 47.0873 30.3405 46.8175 30.2673C46.8421 30.1698 46.8666 30.0722 46.9156 29.9991C47.1119 29.3406 47.3081 28.6578 47.4798 27.9994C47.6514 27.3409 47.7741 26.7068 47.8477 26.1216C47.8722 25.9265 47.8967 25.7314 47.8967 25.5363C47.8967 25.3899 47.8967 25.2436 47.8967 25.0729C47.8722 24.8291 47.8477 24.5852 47.725 24.2438C47.6514 24.0731 47.5779 23.878 47.4062 23.6829C47.259 23.4878 47.0383 23.2683 46.744 23.122C46.3761 22.9025 46.0082 22.7318 45.6403 22.6098C45.2724 22.4879 44.9045 22.3904 44.5121 22.3416C43.948 22.2684 43.3839 22.3172 42.8197 22.5123C42.4028 22.6586 42.0349 22.8781 41.7406 23.122C41.2746 23.5122 41.0048 23.9755 40.784 24.4389C40.5878 24.9022 40.4897 25.3656 40.4162 25.8289C40.3426 26.341 40.3671 26.8532 40.3916 27.3409C40.4407 27.853 40.5388 28.3408 40.6614 28.8285C40.8822 29.6333 41.1765 30.3405 41.6179 30.9989C41.7896 31.2916 42.0104 31.5355 42.2311 31.7793C40.4897 35.9495 37.7183 39.7051 33.1563 41.4122C27.4417 43.5582 20.4026 40.3148 18.2198 34.657C16.5765 30.3893 18.0481 25.707 21.4327 22.7562C24.9891 19.6346 29.1831 20.9028 32.9601 19.5859C33.5488 19.3908 34.1374 19.1225 34.7015 18.7567C39.9011 15.4889 41.8632 7.39239 34.6279 5.92918C29.8453 4.97809 23.125 6.17305 19.0291 8.88C10.8619 14.2451 6.00563 24.0974 8.31111 33.7547C11.0826 45.436 25.8965 50.2646 35.9278 44.8995C39.9502 42.7291 44.0706 37.8273 45.6403 33.7791C46.1799 33.9254 46.7194 34.0473 47.2835 34.1205C47.5043 34.1449 47.7005 34.1692 47.9212 34.1692C48.9023 34.2424 49.8588 34.1936 50.7663 34.0229C51.3549 33.901 51.8945 33.7303 52.4096 33.5352C51.6492 35.73 51.2078 38.0468 51.0606 40.3391C50.7663 45.7286 55.5244 49.6793 61.1655 48.4844C63.3483 48.021 65.0161 47.0212 66.6103 45.8018C67.0273 46.1432 67.4688 46.4846 67.9348 46.7041C68.6706 47.0943 69.4554 47.3382 70.2648 47.4113C71.3685 47.5333 72.4476 47.4114 73.4287 47.0943C74.9003 46.631 76.2247 45.8262 77.3774 44.9239C78.5302 43.9972 79.5603 42.9485 80.3942 41.9243C80.5168 41.7536 80.6149 41.6073 80.7375 41.4365C80.9092 41.8999 81.13 42.3389 81.3752 42.7778C82.0865 44.0703 83.043 45.2653 84.2693 46.2164C84.8825 46.6797 85.5447 47.0943 86.2805 47.4113C87.0163 47.7284 87.8011 47.9479 88.635 48.0454C89.2972 48.1186 90.0085 48.1186 90.7198 48.0454C91.5046 47.9479 92.2649 47.7528 92.9517 47.4601C94.178 46.9724 95.2081 46.2652 96.0665 45.436C97.3664 44.1923 98.2739 42.6559 98.9852 41.1195C99.5002 39.9977 99.8926 38.8515 100.187 37.7541C101.045 37.559 101.879 37.3395 102.664 37.0713C102.664 37.3883 102.64 37.7053 102.64 37.998C102.64 38.6564 102.664 39.2417 102.713 39.8026C102.762 40.3391 102.836 40.8513 102.983 41.3146C103.228 42.1194 103.547 42.851 103.964 43.5094C104.602 44.4849 105.436 45.2409 106.392 45.7774C107.349 46.3139 108.379 46.6066 109.409 46.7285C111.101 46.9236 112.794 46.7041 114.388 46.2652C116.006 45.8018 117.503 45.119 118.802 44.2898C118.876 44.241 118.974 44.1923 119.048 44.1435C119.563 44.5337 120.127 44.8995 120.765 45.2165C122.187 45.9481 123.61 46.3627 124.983 46.5334C128.539 46.9724 131.973 45.3385 134.892 43.6314C136.314 42.7534 137.96 39.992 136.461 38.5589ZM67.1744 39.0954C67.0518 38.1443 67.0518 37.1201 67.1744 36.0714C67.3952 34.2424 67.9838 32.3646 68.8668 30.9502C69.3082 30.2429 69.7988 29.6333 70.3138 29.1699C70.8289 28.7066 71.3685 28.3895 71.9326 28.1944C72.3005 28.0725 72.5212 28.0725 72.6684 28.0969C72.7419 28.0969 72.8155 28.1213 72.8891 28.1457C72.9872 28.1944 73.1098 28.2676 73.2325 28.3895C73.4287 28.5846 73.6249 28.9261 73.7475 29.3406C73.8701 29.7552 73.9192 30.243 73.8456 30.6819C73.8456 30.7551 73.8211 30.8282 73.7966 30.9014C73.5758 31.9744 73.1344 33.1206 72.4967 34.218C71.8835 35.3154 71.0987 36.3885 70.2893 37.2908C69.7742 37.8761 69.0139 38.6321 68.131 39.4612C67.8857 39.6807 67.6159 39.9246 67.3461 40.144C67.2971 39.827 67.2235 39.4856 67.1744 39.0954ZM114.461 13.4647C114.903 12.7087 115.418 11.904 116.006 11.2699C116.006 12.0503 116.129 12.66 115.957 13.4647C115.737 14.4158 115.442 15.3669 115.173 16.2936C114.682 18.0495 114.02 19.6834 113.333 21.3661C112.156 24.2438 110.488 27.097 108.232 29.2919C108.06 29.4626 107.864 29.6333 107.668 29.804C108.158 25.8289 109.237 22.1465 111.273 18.6348C112.303 16.9033 113.431 15.2206 114.461 13.4647ZM92.9762 33.9498C91.8725 33.5108 90.8915 32.8524 90.2292 32.0964C89.4444 31.2184 88.4633 30.1454 88.9048 28.9748C89.2482 28.0237 90.6462 27.219 91.6763 27.3653C93.3931 27.5848 94.8647 28.7066 95.7722 30.1454C96.7042 31.6086 96.7287 33.0231 96.5325 34.5594C96.1156 34.5838 95.6986 34.5594 95.2572 34.5107C94.4968 34.4375 93.712 34.2424 92.9762 33.9498ZM119.318 36.047C119.514 34.4863 120.151 32.7792 121.01 31.2184C121.132 31.0233 121.28 30.8038 121.5 30.5844C121.819 30.2673 122.212 29.9747 122.58 29.804C122.776 29.7308 122.923 29.6577 123.07 29.6333C123.217 29.6089 123.315 29.6089 123.389 29.6089C123.487 29.6089 123.536 29.6333 123.634 29.682C123.708 29.7552 123.855 29.8528 124.002 30.1454C124.223 30.5356 124.345 30.9014 124.419 31.2916C124.493 31.6574 124.493 32.0476 124.444 32.4134C124.37 32.9499 124.198 33.5108 123.929 34.0961C122.898 36.2665 121.476 37.8273 119.587 38.9247C119.563 38.8271 119.514 38.7296 119.489 38.632C119.268 37.9004 119.219 36.9981 119.318 36.047Z" fill="#FFFFFE"/>
<path d="M145 61.5659H0V61.7817H145V61.5659Z" fill="#575757"/>
<path d="M19.5218 76.6719L19.718 76.4281C19.8406 76.2574 19.9633 76.1842 20.1349 76.3549C20.233 76.4281 21.2141 77.306 22.3914 77.306C23.446 77.306 24.1573 76.6475 24.1573 75.8184C24.1573 74.9161 23.3724 74.4039 21.8763 73.7699C20.4293 73.1602 19.5708 72.5993 19.5708 71.1361C19.5708 70.2582 20.2821 68.8193 22.3668 68.8193C23.6422 68.8193 24.5987 69.4778 24.5987 69.4778C24.6723 69.5266 24.8195 69.6729 24.6723 69.9167L24.5497 70.1362C24.4516 70.3069 24.3044 70.3069 24.0837 70.2094C23.5441 69.8924 23.0781 69.6973 22.3423 69.6973C20.9443 69.6973 20.5274 70.5752 20.5274 71.1361C20.5274 72.0628 21.1896 72.453 22.2933 72.9163C24.0592 73.6236 25.1874 74.3064 25.1874 75.794C25.1874 77.1597 23.8875 78.1839 22.3668 78.1839C20.8217 78.1839 19.767 77.2816 19.5954 77.1353C19.4973 77.0133 19.3501 76.8914 19.5218 76.6719Z" fill="#575757"/>
<path d="M37.5008 69.8032H35.2199C35.0727 69.8032 34.9746 69.6813 34.9746 69.5594V69.1936C34.9746 69.0716 35.0727 68.9497 35.2199 68.9497H40.7628C40.91 68.9497 41.0081 69.0716 41.0081 69.1936V69.5594C41.0081 69.6813 40.91 69.8032 40.7628 69.8032H38.5064V77.8022C38.5064 77.9241 38.3838 78.046 38.2611 78.046H37.7706C37.648 78.046 37.5254 77.9241 37.5254 77.8022V69.8032H37.5008Z" fill="#575757"/>
<path d="M51.4304 69.1936C51.4304 69.0716 51.553 68.9497 51.6757 68.9497H52.1662C52.3133 68.9497 52.4115 69.0716 52.4115 69.1936V74.6806C52.4115 76.1682 53.3435 77.2657 54.8641 77.2657C56.4093 77.2657 57.3413 76.1926 57.3413 74.705V69.1936C57.3413 69.0716 57.4394 68.9497 57.5865 68.9497H58.0771C58.1997 68.9497 58.3223 69.0716 58.3223 69.1936V74.7538C58.3223 76.7291 56.8998 78.1924 54.8396 78.1924C52.7794 78.1924 51.3813 76.7291 51.3813 74.7538V69.1936H51.4304Z" fill="#575757"/>
<path d="M69.6777 69.1936C69.6777 69.0716 69.7758 68.9497 69.923 68.9497H72.8416C75.3679 68.9497 77.4281 70.9982 77.4281 73.4857C77.4281 75.9975 75.3679 78.046 72.8416 78.046H69.923C69.8004 78.046 69.6777 77.9241 69.6777 77.8022V69.1936ZM72.7435 77.1437C74.8773 77.1437 76.398 75.6317 76.398 73.4857C76.398 71.3396 74.9019 69.8276 72.7435 69.8276H70.6833V77.1437H72.7435Z" fill="#575757"/>
<path d="M88.2944 69.1936C88.2944 69.0716 88.4171 68.9497 88.5397 68.9497H89.0548C89.1774 68.9497 89.3 69.0716 89.3 69.1936V77.8022C89.3 77.9241 89.1774 78.046 89.0548 78.046H88.5397C88.4171 78.046 88.2944 77.9241 88.2944 77.8022V69.1936Z" fill="#575757"/>
<path d="M104.85 68.7969C107.474 68.7969 109.559 70.8942 109.559 73.5036C109.559 76.113 107.474 78.1615 104.85 78.1615C102.226 78.1615 100.141 76.0886 100.141 73.5036C100.165 70.8942 102.226 68.7969 104.85 68.7969ZM104.85 77.2591C106.935 77.2591 108.652 75.5764 108.652 73.5036C108.652 71.4307 106.935 69.7236 104.85 69.7236C102.765 69.7236 101.073 71.4307 101.073 73.5036C101.073 75.5764 102.765 77.2591 104.85 77.2591Z" fill="#575757"/>
<path d="M119.883 76.6719L120.079 76.4281C120.202 76.2574 120.324 76.1842 120.496 76.3549C120.594 76.4281 121.575 77.306 122.753 77.306C123.807 77.306 124.494 76.6475 124.494 75.8184C124.494 74.9161 123.709 74.4039 122.213 73.7699C120.766 73.1602 119.907 72.5993 119.907 71.1361C119.907 70.2582 120.619 68.8193 122.703 68.8193C123.979 68.8193 124.935 69.4778 124.935 69.4778C125.009 69.5266 125.156 69.6729 125.009 69.9167L124.886 70.1362C124.788 70.3069 124.641 70.3069 124.42 70.2094C123.881 69.8924 123.415 69.6973 122.679 69.6973C121.281 69.6973 120.864 70.5752 120.864 71.1361C120.864 72.0628 121.526 72.453 122.63 72.9163C124.396 73.6236 125.524 74.3064 125.524 75.794C125.524 77.1597 124.224 78.1839 122.703 78.1839C121.158 78.1839 120.104 77.2816 119.932 77.1353C119.858 77.0133 119.711 76.8914 119.883 76.6719Z" fill="#575757"/>
<ellipse cx="29.6689" cy="29.6691" rx="3.77604" ry="3.77604" fill="white"/>
<defs>
<linearGradient id="paint0_linear_1403_2149" x1="72.6174" y1="0.00311961" x2="72.6174" y2="51.9169" gradientUnits="userSpaceOnUse">
<stop stop-color="#41B4E8"/>
<stop offset="0.3431" stop-color="#2DA3CA"/>
<stop offset="0.7693" stop-color="#1592AB"/>
<stop offset="1" stop-color="#078C9F"/>
</linearGradient>
<linearGradient id="paint1_linear_1403_2149" x1="76.6154" y1="6.90369" x2="76.6154" y2="74.0719" gradientUnits="userSpaceOnUse">
<stop stop-color="#41B4E8"/>
<stop offset="0.3431" stop-color="#2DA3CA"/>
<stop offset="0.7693" stop-color="#1592AB"/>
<stop offset="1" stop-color="#078C9F"/>
</linearGradient>
</defs>
</svg>
