<svg width="317" height="56" viewBox="0 0 317 56" fill="none" xmlns="http://www.w3.org/2000/svg">
<g clip-path="url(#clip0_1403_2113)">
<path d="M145.76 36.0643C143.904 35.1174 141.719 34.9934 139.331 35.6594C139.384 35.3721 139.443 35.0783 139.476 34.7909C139.633 33.498 139.594 32.2116 139.351 30.9579C139.102 29.6324 138.629 28.3394 137.94 27.1184C137.166 25.7275 136.143 24.5717 134.89 23.6967C133.598 22.7891 132.076 22.2144 130.501 22.0251C129.399 21.8945 128.271 21.9598 127.149 22.1949C127.641 20.5036 128.061 18.7406 128.376 16.8926C128.783 14.5027 128.96 11.8712 128.914 9.06333C128.874 6.66034 127.753 4.58385 125.824 3.3693C123.797 2.08945 121.153 1.95885 118.752 3.03628C116.305 4.13329 114.527 6.13143 113.051 7.9206C110.545 10.9635 108.446 14.6594 106.471 19.5307C106.143 20.3404 105.848 21.124 105.56 21.9075C103.132 19.6743 100.134 18.2312 97.0773 17.859C95.5684 17.6762 94.0727 17.748 92.6295 18.0811C91.4618 18.3553 90.3531 18.7928 89.3494 19.3805C87.8471 20.2555 86.5613 21.5027 85.6035 22.9719C84.3637 22.9131 83.36 23.2135 82.704 23.5074C82.54 23.5792 82.3956 23.6641 82.2448 23.7424C79.0959 20.5559 74.0905 19.3152 69.8788 20.8562C68.9473 21.1958 68.1273 21.679 67.386 22.221C67.2942 21.9141 67.1826 21.6006 67.0383 21.3003C66.1002 19.3283 64.2962 18.0027 61.9411 17.5652C56.6011 16.5857 53.8327 21.5549 52.6453 23.6837C52.6125 23.7424 52.5731 23.8077 52.5403 23.873C52.4813 23.6575 52.4026 23.429 52.3107 23.1939C52.0418 22.5083 51.7072 21.9271 51.2808 21.3786C50.7101 20.6408 49.9556 20.0008 49.1225 19.5307C48.4534 19.165 47.8367 18.8842 47.2201 18.6622C46.4722 18.3945 45.7112 18.2116 44.9568 18.1137C43.6448 17.9505 42.2999 18.0811 41.0732 18.4859C43.12 15.4887 44.0777 11.9169 43.4808 8.69113C42.7001 4.46631 39.4266 1.38422 34.723 0.437396C28.2809 -0.855515 19.7002 0.776948 14.3274 4.3096C3.37196 11.5055 -2.09265 24.3366 0.741335 36.2406C2.37481 43.11 7.27525 48.8171 14.1765 51.9057C21.6748 55.2555 30.5901 55.0465 37.452 51.3572C40.7517 49.5811 44.1171 46.4467 46.6821 42.9467C46.7477 46.7667 48.3615 50.3059 51.2414 52.7611C54.4953 55.5363 58.9103 56.6006 63.3515 55.6734C65.2671 55.2686 66.9005 54.5829 68.3569 53.7602C69.3803 54.1911 70.4561 54.4784 71.5779 54.609C73.3623 54.8245 75.1795 54.6482 76.9901 54.0866C78.9712 53.4728 80.8606 52.4477 82.763 50.9458C83.2485 51.4355 83.7601 51.9057 84.2981 52.3301C85.2821 53.0941 86.358 53.734 87.4863 54.2303C88.7327 54.7723 90.0382 55.1314 91.3634 55.2947C92.5245 55.4318 93.6725 55.4253 94.8009 55.2881C96.0473 55.1249 97.2544 54.818 98.3893 54.3609C100.2 53.6491 101.866 52.5587 103.323 51.1352C103.959 50.5213 104.536 49.8227 105.081 49.0978C106.078 50.3777 107.324 51.4747 108.754 52.2714C110.263 53.1202 111.956 53.6557 113.786 53.8712C116.062 54.1454 118.503 53.9169 121.035 53.2051C122.268 52.8525 123.482 52.3824 124.636 51.8338C126.532 52.7676 128.533 53.3814 130.567 53.6296C135.933 54.2825 140.709 51.9644 144.271 49.8749C146.278 48.693 149.637 45.6631 149.519 41.7713C149.454 39.3488 148.083 37.2723 145.76 36.0773V36.0643ZM30.4917 38.9243C26.818 40.3021 21.9963 38.1016 20.5793 34.3991C19.5887 31.8264 20.4349 28.8618 22.7244 26.8572C23.9053 25.8189 25.2632 25.6557 27.7626 25.4206C29.5076 25.2639 31.4888 25.0811 33.5421 24.3693C34.395 24.0755 35.1953 23.6902 35.9563 23.2527C35.5889 24.1277 35.3462 25.0288 35.2281 26.0213C35.1231 26.8702 35.1166 27.7322 35.1953 28.6594C35.2675 29.4691 35.4183 30.2853 35.6348 31.082C35.8447 31.8721 36.14 32.61 36.4745 33.3152C34.9066 36.1361 32.9058 38.0232 30.4851 38.9243H30.4917Z" fill="url(#paint0_linear_1403_2113)"/>
<path d="M315.76 31.9961C314.337 30.5334 312.933 30.4224 308.131 30.9709C315.74 23.0306 307.048 19.2106 307.048 19.2106C307.048 19.2106 299.924 14.4177 292.727 26.8244C290.51 21.8618 278.052 18.192 273.959 25.5119C273.624 26.1323 273.959 25.5119 273.46 26.4457C269.623 25.8254 267.851 28.1565 267.031 29.1425C267.595 26.5371 267.012 24.1733 266.434 22.4886C273.513 12.9354 261.488 7.83563 258.903 13.7256C259.054 3.61735 253.635 2.91213 250.132 5.53713C243.723 10.3431 240.017 22.8739 239.944 23.9709C234.25 22.0381 230.019 24.9373 227.946 26.9681C225.374 18.7078 216.472 22.8804 214.183 27.1771C214.465 23.1808 210.266 20.4187 206.31 21.8813C206.186 21.9271 205.51 20.9215 203.024 21.7246C203.883 12.1127 192.652 17.4541 192.652 17.4541C192.652 17.4541 193.577 13.0399 191.445 10.5063C188.06 5.23675 178.797 -0.241791 164.857 12.6024C153.462 25.4728 161.951 33.5437 161.951 33.5437C161.951 33.5437 158.093 34.164 156.401 38.7806C153.987 45.3562 158.205 52.9896 166.005 54.733C176.567 56.4765 182.746 52.4933 184.734 50.7106C185.508 51.873 185.882 52.2647 187.129 53.4075C189.523 54.5502 192.659 55.5754 198.136 52.9243C203.916 58.1351 210.351 54.7526 211.946 52.9243C213.822 56.0912 219.378 56.8813 223.367 53.2246C226.076 55.4513 233.305 57.2274 238.993 51.8664C238.921 51.9382 239.662 52.6174 240.082 53.1789C240.443 53.6687 244.11 56.483 250.067 52.5716C254.534 57.2274 263.83 55.6994 268.153 50.8021C270.587 56.1304 282.284 58.2526 289.257 48.6799C289.441 49.705 290.615 55.1836 297.451 54.1388C308.833 53.1202 309.777 42.6201 309.777 42.6201C309.777 42.6201 311.385 42.9793 313.635 42.0782C317.499 40.5371 317.761 34.0465 315.747 31.9765L315.76 31.9961Z" fill="url(#paint1_linear_1403_2113)"/>
<path d="M62.9842 22.0186C63.8698 22.7238 64.4143 23.7229 64.8079 24.7677C65.3196 22.1949 63.6664 19.8899 60.9112 19.9683C58.6348 20.027 57.0669 21.0783 56.2863 23.2397C58.0181 21.5028 60.8521 20.3078 62.9842 22.0252V22.0186Z" fill="white"/>
<path d="M38.2064 24.761C38.8887 23.5203 38.9805 22.5865 40.3188 21.7507C41.4734 21.0259 42.8838 20.6929 44.2286 20.6341C47.43 20.5101 49.8245 21.9923 49.8245 25.4009C48.4796 22.691 46.1311 22.1033 43.1856 22.0837C41.6308 22.0707 39.0002 23.3244 38.213 24.7545L38.2064 24.761Z" fill="white"/>
<path d="M80.6441 25.7865C79.4305 23.5598 77.0688 22.2995 74.5563 22.3126C73.3623 22.3191 72.1159 22.5999 71.0466 23.1615C70.5283 23.4357 70.0954 23.7426 69.6558 24.1344C69.5837 24.1997 68.475 25.473 68.7112 25.4208C69.7149 25.1988 70.6792 24.6307 71.7157 24.2716C73.159 23.7688 75.1073 23.3117 76.5768 23.6447C77.4296 23.8406 80.2374 25.029 80.6507 25.7865H80.6441Z" fill="white"/>
<path d="M96.9395 19.6615C95.2142 19.4199 93.2395 19.4069 91.6126 20.1643C90.9041 20.4908 90.2612 21.0916 89.6643 21.6009C88.5425 22.5477 88.9033 23.1354 88.5425 23.3901C90.9107 21.6988 93.0559 20.1317 96.0998 20.5496C99.4127 21.0067 101.538 22.4889 104.116 24.3957C103.414 21.183 99.826 20.0598 96.946 19.655L96.9395 19.6615Z" fill="white"/>
<path d="M115.616 9.27894C115.846 9.0504 116.082 8.82838 116.325 8.61943C117.171 7.87503 117.958 7.1045 118.929 6.67353C120.287 6.07279 121.77 5.90954 123.082 6.22297C123.764 6.37969 124.42 6.68659 124.951 7.19592C125.352 7.58118 126.008 8.38435 126.053 9.08305C126.322 7.58118 125.155 5.77894 124.184 5.34144C122.609 4.62969 120.609 4.84518 118.89 5.55693C117.342 6.19685 115.938 7.50283 114.783 9.00469C113.609 10.5392 112.697 12.1325 111.857 13.9413C113.058 12.2566 114.212 10.6633 115.603 9.292L115.616 9.27894Z" fill="white"/>
<path d="M133.585 27.4578C134.09 27.9475 134.555 28.4764 134.995 29.0184C135.5 29.6387 135.874 30.1546 136.235 30.8859C136.451 31.3104 136.615 31.8393 136.72 32.2637C136.924 31.33 136.628 30.5137 136.294 29.6453C135.802 28.3524 135.021 27.1574 134.05 26.1714C133.178 25.2833 131.61 24.7087 130.403 24.5259C129.353 24.3692 127.562 24.6173 127.011 25.6686C128.454 25.1266 130.869 25.4205 132.135 26.2628C132.653 26.6089 133.132 27.0137 133.585 27.4512V27.4578Z" fill="white"/>
<path d="M146.862 41.1834C146.751 40.8961 146.6 40.6153 146.423 40.3607C145.183 38.5519 142.762 37.6639 140.814 38.8458C140.499 39.0351 140.204 39.2702 139.974 39.5575C139.856 39.7077 139.659 40.315 139.535 40.3868C141.155 39.453 142.782 38.6825 144.52 39.7469C145.885 40.5762 146.515 42.1172 146.83 43.6256C147.217 42.8159 147.164 41.9605 146.856 41.1834H146.862Z" fill="white"/>
<path d="M83.196 26.1128C83.6092 25.3945 84.7966 25.4141 85.5248 25.4206C85.7019 24.846 84.5211 24.5979 84.075 24.7546C83.5568 24.9244 83.15 25.7014 83.0254 26.1716" fill="white"/>
<path d="M31.9087 3.93737C31.502 3.89166 31.0821 3.85249 30.6426 3.8329C29.1206 3.74801 27.7299 3.59129 25.9061 3.89819C23.3542 4.33569 20.4743 5.29558 17.8306 6.58196C16.4529 7.25454 15.1016 8.04465 13.947 8.93924C13.081 9.61181 11.6247 10.8851 11.4016 11.5969C11.1786 10.3366 13.8289 7.71816 15.8429 6.55584C19.0836 4.67525 22.9803 3.38234 26.221 2.78159C29.1403 2.23961 31.6332 2.44857 33.5946 3.04278C35.5889 3.65006 37.0715 4.512 38.3508 5.64166C36.3302 4.90379 34.3884 4.22469 31.9152 3.9439L31.9087 3.93737Z" fill="white"/>
<path d="M143.556 41.5822C142.06 40.8182 139.83 41.6932 138.544 42.3592C135.356 44.0047 132.391 47.2109 128.487 45.2519C128.395 45.2062 128.33 45.1605 128.245 45.1083C128.277 45.0822 128.31 45.056 128.343 45.0299C129.602 43.9721 131.026 42.6269 132.24 41.0402C132.843 40.2435 133.394 39.3881 133.827 38.4609C134.267 37.5337 134.588 36.5411 134.719 35.4768C134.811 34.7128 134.798 33.9096 134.647 33.0999C134.496 32.2967 134.201 31.487 133.768 30.7034C133.355 29.959 132.81 29.3256 132.141 28.862C131.472 28.3919 130.698 28.1176 129.957 28.0327C129.176 27.9413 128.435 28.0327 127.766 28.2221C126.755 28.5094 125.876 29.0122 125.122 29.6195C124.367 30.2333 123.738 30.9581 123.272 31.7809C122.163 33.7855 121.291 36.0318 121.002 38.3695C120.884 39.3228 120.877 40.2892 121.002 41.2557C121.101 41.9935 121.284 42.7379 121.56 43.4562C118.378 44.168 114.593 43.8154 112.92 40.7072C112.369 39.6754 112.139 38.6176 112.074 37.5402C118.778 33.0934 122.321 25.1596 123.646 17.3564C124.033 15.071 124.158 12.7137 124.125 10.4021C124.092 8.47582 122.34 7.93385 120.727 8.65866C119.192 9.34429 117.82 10.9441 116.771 12.2174C114.245 15.2865 112.415 18.9236 110.926 22.5868C110.06 24.7156 109.305 26.89 108.715 29.1167C108.151 31.2781 107.737 33.4786 107.462 35.5486C106.773 35.862 106.065 36.1297 105.343 36.3648C105.363 36.2212 105.396 36.0775 105.415 35.9273C105.592 34.4581 105.605 32.917 105.205 31.3629C105.002 30.5859 104.7 29.8088 104.267 29.071C103.841 28.32 103.29 27.6018 102.601 26.9422C100.817 25.1988 98.6713 24.1344 96.4934 23.8732C95.5618 23.7557 94.6237 23.7948 93.7184 24.0038C93.0427 24.1605 92.3933 24.4087 91.7897 24.7678C90.891 25.2967 90.1103 26.0476 89.5396 26.9684C88.9689 27.8956 88.6081 28.9796 88.4703 30.1745C88.3981 30.7361 88.3784 31.3238 88.4112 31.9376C88.4703 33.2893 88.8705 34.556 89.5068 35.6465C89.9791 36.4693 90.5761 37.2006 91.2584 37.8275C92.2817 38.7809 93.4691 39.5253 94.7352 40.0738C96.0014 40.6288 97.3331 40.9879 98.6713 41.1512C98.9928 41.1904 99.3208 41.21 99.6422 41.223C98.9272 43.3191 97.7529 45.6698 96.4671 46.6885C96.0538 47.015 95.6143 47.2827 95.1485 47.4786C94.6762 47.681 94.1711 47.8247 93.6003 47.8965C93.1936 47.9488 92.8 47.9488 92.4261 47.8965C91.8094 47.8247 91.219 47.6288 90.6548 47.3219C89.8086 46.8648 89.0017 46.1269 88.3588 45.2454C87.7093 44.3639 87.2304 43.3256 86.968 42.3266C86.7647 41.5365 86.7187 40.6484 86.7318 39.6428C86.7318 39.1073 86.7515 38.5327 86.7581 37.9385C86.9549 37.2659 87.132 36.5868 87.2829 35.9077C87.6568 34.1708 88.8442 30.9907 86.9811 29.6782C83.3009 27.0924 82.9138 32.7277 82.6711 34.7193C82.6055 35.2809 82.5793 35.8881 82.6252 36.5215C82.6383 36.7827 82.6383 37.07 82.6383 37.3443C82.3628 38.2193 82.0479 39.0682 81.6477 39.8779C81.1492 40.8769 80.5522 41.8303 79.7978 42.7575C78.8072 43.9851 77.5017 45.2585 76.1766 46.1073C75.514 46.5318 74.8514 46.8583 74.2544 47.0411C73.6443 47.224 73.113 47.2827 72.6275 47.2174C72.2733 47.1717 71.9452 47.0803 71.591 46.8909C71.5123 46.8517 71.427 46.7865 71.3548 46.7407C71.4992 46.6167 71.6369 46.4926 71.7812 46.3685C73.2966 45.0691 74.5824 43.7892 75.4549 42.8163C76.4914 41.6409 77.482 40.2892 78.3086 38.8266C79.9027 35.973 81.6543 32.251 79.5157 29.182C77.8756 26.8116 74.32 25.5971 71.5451 26.6092C69.3933 27.3993 67.937 29.6391 66.9726 31.4609C64.8012 35.5747 64.014 39.3098 65.044 43.9198C65.2014 44.6055 65.4244 45.265 65.6934 45.9049C65.4769 46.0486 65.2539 46.1988 65.0374 46.3228C64.1977 46.8191 63.3777 47.2109 62.6889 47.4329C62.3412 47.5504 62.0329 47.6223 61.7704 47.6549C61.5015 47.6941 61.2916 47.6941 61.1341 47.6745C61.0751 47.668 61.0357 47.6614 60.9898 47.6419C60.2813 47.4786 59.7171 47.1913 59.2251 46.806C58.8577 46.5122 58.5363 46.1531 58.2542 45.7417C57.8344 45.1148 57.526 44.3639 57.3489 43.5476C57.1718 42.7379 57.1324 41.876 57.2308 41.0598C57.2571 40.8443 57.2964 40.6288 57.3358 40.4133C57.9262 37.6708 58.9365 34.9935 60.1173 32.3032C60.9111 30.501 65.3392 24.2976 61.0751 23.5141C58.4116 23.0243 57.0406 27.4712 55.781 28.9861C54.7183 30.2725 53.5702 31.3303 52.3566 32.0029C51.7531 32.3424 51.1299 32.5906 50.487 32.7407C49.8375 32.8909 49.1487 32.9497 48.3877 32.8909C48.2106 32.8779 48.04 32.8583 47.8826 32.8387C47.5218 32.793 47.2069 32.7342 46.9117 32.6624C46.9445 32.5579 46.9773 32.4665 47.0035 32.362C47.2266 31.6437 47.4365 30.9059 47.6071 30.1941C47.7842 29.4824 47.9285 28.8032 48.0072 28.1698C48.0269 27.9609 48.0466 27.7519 48.0532 27.543C48.0532 27.3797 48.0532 27.223 48.0466 27.0532C48.0269 26.7986 47.9941 26.5178 47.8498 26.1587C47.7776 25.9824 47.6792 25.7799 47.5087 25.5644C47.3447 25.349 47.1085 25.1269 46.8002 24.9572C46.3934 24.7351 45.9998 24.5523 45.5997 24.4021C45.206 24.2585 44.7928 24.154 44.3795 24.1018C43.7825 24.0299 43.1527 24.0756 42.5689 24.2715C42.1293 24.4217 41.7292 24.6568 41.4077 24.9376C40.9157 25.3555 40.6008 25.8583 40.3909 26.348C40.181 26.8443 40.0629 27.3406 40.0038 27.8368C39.9382 28.3853 39.9382 28.9273 39.9907 29.4758C40.0366 30.0178 40.1416 30.5532 40.2794 31.0756C40.5155 31.931 40.8435 32.7146 41.3027 33.4068C41.4995 33.7072 41.7226 33.9879 41.9653 34.2491C40.0891 38.7547 37.0911 42.8098 32.1907 44.6447C26.0307 46.9562 18.4406 43.4497 16.0986 37.3508C14.3339 32.7473 15.9084 27.7062 19.5624 24.5131C23.3935 21.1568 27.9069 22.5085 31.9808 21.098C32.6171 20.876 33.2469 20.5887 33.857 20.2034C39.4528 16.6904 41.5783 7.93385 33.7914 6.37321C28.6285 5.34149 21.4058 6.64093 16.9842 9.54672C8.17394 15.3518 2.93894 25.9823 5.41212 36.4105C8.40355 49.0066 24.3644 54.2239 35.1624 48.4254C39.5053 46.0943 43.9334 40.792 45.6325 36.4171C46.2097 36.5738 46.8002 36.7044 47.4037 36.7762C47.6267 36.7958 47.8563 36.8284 48.086 36.8415C49.1553 36.9264 50.1786 36.8611 51.143 36.6717C51.7662 36.5476 52.3501 36.3583 52.9142 36.1428C52.0877 38.5131 51.6088 41.0206 51.471 43.4758C51.1495 49.2939 56.2665 53.5383 62.3609 52.2585C64.7028 51.7687 66.52 50.6782 68.2191 49.3723C68.6783 49.751 69.1506 50.0971 69.6558 50.3583C70.4561 50.7762 71.3089 51.0308 72.1552 51.1353C73.3426 51.279 74.4971 51.1223 75.5533 50.7958C77.1475 50.2995 78.5579 49.4376 79.8109 48.445C81.0639 47.446 82.1594 46.3098 83.0647 45.1997C83.2025 45.0299 83.3074 44.8471 83.4452 44.6773C83.642 45.1736 83.8716 45.6633 84.134 46.1335C84.9016 47.5309 85.9381 48.8107 87.2501 49.8359C87.9061 50.3452 88.6277 50.7827 89.415 51.1288C90.2022 51.4749 91.055 51.71 91.9537 51.821C92.6753 51.9124 93.4363 51.9124 94.1908 51.8144C95.0501 51.7034 95.8505 51.4945 96.5983 51.1941C97.9104 50.6782 99.0256 49.9012 99.9506 49.0001C101.341 47.6484 102.332 46.0094 103.086 44.3443C103.631 43.1363 104.051 41.9021 104.385 40.7267C105.297 40.5309 106.196 40.2892 107.062 39.9954C107.049 40.3415 107.042 40.6745 107.042 41.001C107.042 41.7062 107.068 42.3462 107.127 42.9404C107.186 43.5281 107.272 44.0635 107.416 44.5794C107.665 45.4478 108.026 46.2379 108.479 46.9366C109.161 47.9879 110.073 48.8172 111.096 49.3853C112.12 49.96 113.228 50.2734 114.337 50.404C116.154 50.626 117.991 50.3779 119.716 49.8947C121.448 49.3919 123.075 48.654 124.472 47.7659C124.558 47.7137 124.65 47.6549 124.735 47.5962C125.299 48.0206 125.903 48.4189 126.591 48.7585C128.133 49.5355 129.662 49.9861 131.144 50.1689C134.975 50.6325 138.675 48.8891 141.824 47.0411C143.379 46.1269 146.37 43.0644 143.543 41.6017L143.556 41.5822ZM68.9013 42.1764C68.7767 41.1642 68.7767 40.0476 68.9145 38.9245C69.1506 36.9394 69.8001 34.9348 70.7316 33.4003C71.1974 32.6297 71.7288 31.9702 72.2929 31.474C72.8571 30.9712 73.4344 30.6316 74.0379 30.4292C74.425 30.3051 74.6677 30.2986 74.8383 30.3182C74.9301 30.3312 75.0023 30.3508 75.0744 30.3769C75.1925 30.4226 75.3106 30.501 75.4484 30.6447C75.6517 30.8601 75.8682 31.2258 75.9929 31.6764C76.1241 32.1269 76.1634 32.6428 76.1044 33.1129C76.0913 33.1978 76.0781 33.2762 76.065 33.3611C75.842 34.5103 75.3434 35.7575 74.6743 36.946C74.0051 38.1344 73.172 39.2837 72.3061 40.2501C71.7616 40.8704 70.935 41.7062 69.9706 42.5878C69.7082 42.8294 69.4196 43.0775 69.1309 43.3256C69.0391 42.9534 68.9538 42.5812 68.9013 42.1698V42.1764ZM119.841 14.529C120.313 13.7062 120.864 12.8443 121.514 12.1521C121.507 13.0075 121.652 13.6605 121.461 14.529C121.232 15.5607 120.904 16.5663 120.628 17.585C120.103 19.4786 119.382 21.2482 118.64 23.0635C117.374 26.1652 115.583 29.2407 113.15 31.6176C112.953 31.807 112.743 31.9768 112.546 32.1596C113.077 27.8629 114.245 23.8863 116.423 20.1251C117.519 18.2314 118.745 16.4161 119.841 14.529ZM96.6967 36.6195C95.5093 36.1428 94.4531 35.4441 93.725 34.6279C92.8787 33.6876 91.8291 32.5253 92.2949 31.2715C92.6754 30.2463 94.1776 29.3844 95.2928 29.5281C97.1428 29.7697 98.7304 30.9712 99.7144 32.5383C100.718 34.1251 100.744 35.64 100.528 37.292C100.088 37.3116 99.6226 37.3051 99.1437 37.2398C98.3302 37.1419 97.4839 36.9264 96.6967 36.6129V36.6195ZM125.089 38.8788C125.286 37.2006 125.981 35.3462 126.906 33.6745C127.024 33.459 127.201 33.2174 127.431 32.9823C127.766 32.6363 128.205 32.3294 128.592 32.1531C128.789 32.0616 128.966 32.0029 129.124 31.9768C129.274 31.9506 129.393 31.9506 129.471 31.9572C129.576 31.9702 129.635 31.9898 129.727 32.0486C129.819 32.1139 129.963 32.2445 130.127 32.5448C130.37 32.9693 130.508 33.3676 130.58 33.7725C130.659 34.1773 130.665 34.5756 130.613 34.9935C130.547 35.5682 130.357 36.182 130.062 36.8088C128.96 39.14 127.425 40.8443 125.371 42.0262C125.332 41.9217 125.292 41.8172 125.26 41.7128C125.01 40.8704 124.958 39.917 125.083 38.8853L125.089 38.8788Z" fill="white"/>
<path d="M185.239 11.1725C185.239 11.1725 190.809 12.7724 189.392 19.7397C187.916 26.9944 180.477 25.0093 178.83 24.8722C177.183 24.735 172.224 23.638 170.689 26.6418C169.37 29.7238 173.588 31.9701 175.924 31.8265C178.554 31.6632 180.313 31.8722 182.34 33.1912C184.373 34.5102 185.305 37.2854 185.292 38.6632C185.653 40.2043 186.82 47.7071 173.956 50.7434C164.496 51.7882 160.632 49.555 160.173 43.0382C160.252 41.3209 160.954 38.6959 163.066 37.3638C163.479 36.9132 166.051 35.9011 167.586 36.8936C170.722 38.0494 173.93 40.0149 177.288 39.3684C180.647 38.722 179.368 35.5419 174.467 35.7378C169.954 35.2416 165.06 33.6679 163.728 30.083C161.905 25.1725 167.724 6.3731 185.233 11.1791L185.239 11.1725Z" fill="url(#paint2_linear_1403_2113)"/>
<path d="M191.885 27.569C191.885 27.569 193.065 24.1082 194.148 22.5671C195.67 20.3862 197.166 20.3862 198.688 20.7061C200.209 21.0261 200.321 21.7052 199.304 24.1147C198.287 26.5242 198.432 26.1782 198.432 26.1782C198.432 26.1782 199.186 25.9757 200.813 25.1334C202.551 24.2388 203.476 25.055 203.476 25.055C203.476 25.055 205.517 27.0727 203.562 28.653C201.325 29.9393 200.183 30.3246 200.183 30.3246C200.183 30.3246 196.792 31.402 195.086 32.6362C194.135 35.013 192.18 40.7005 192.383 43.0448C192.278 45.513 193.131 49.9795 198.688 44.7425C198.924 44.4552 198.858 45.1931 198.996 43.0448C199.842 34.7649 204.047 29.8545 204.047 29.8545C204.047 29.8545 206.35 27.3862 208.082 28.3787C209.807 29.3712 210.345 29.9524 209.833 32.3554C208.875 36.5867 206.953 39.0746 204.5 43.8414C203.962 52.513 210.155 47.152 211.709 44.9972C213.638 38.2257 216.525 31.0102 218.047 29.6977C219.706 27.0336 224.725 27.5168 222.809 33.0214C221.491 39.042 217.6 43.5149 217.627 44.3181C217.719 47.7724 217.66 49.6595 222.809 45.4869C223.314 44.9711 223.459 44.3442 223.459 44.3442C223.459 44.3442 223.17 38.2453 230.412 32.1007C236.468 26.9683 240.686 28.8423 242.149 30.3507C243.953 15.1492 254.967 3.69588 256.259 11.8451C256.371 12.5373 256.319 15.7435 255.964 18.8974C255.361 22.6716 252.474 28.3526 250.749 30.8339C249.883 32.1399 248.02 34.9739 247.069 36.5606C246.124 38.1343 245.514 40.0802 245.37 40.7789C245.258 41.3862 244.609 43.9328 247.692 43.9981C250.742 43.3255 250.874 41.8171 250.874 41.8171C250.874 41.8171 251.694 33.7854 253.754 30.0634C255.905 24.722 258.87 22.9851 261.062 23.416C263.259 23.7229 262.938 31.2388 261.908 34.2621C261.153 37.3507 260.491 40.2239 256.187 43.9393C255.781 47.0214 258.818 48.9086 264.578 44.9907C266.546 43.2929 267.818 41.2164 268.219 38.2323C267.864 35.8032 268.717 33.3414 269.609 32.2313C270.915 30.6054 272.903 30.8862 272.903 30.8862C272.903 30.8862 274.306 30.7425 274.661 32.0289C274.864 32.7668 274.129 34.0597 273.952 35.5093C273.769 36.9589 273.191 38.7089 273.139 39.9039C271.617 47.5438 280.998 48.4645 285.229 40.472C276.655 40.5373 273.952 35.5028 275.947 30.2005C277.842 25.1726 286.449 25.6754 289.329 29.0774C291.094 30.6511 291.324 33.8442 291.324 33.8442C291.324 33.8442 291.75 33.7724 292.465 33.4067C292.846 33.2108 293.482 32.9888 294.138 32.5056C294.413 32.3032 294.151 31.4739 294.558 30.3964C295.128 28.8815 295.266 28.9403 295.712 28.333C297.287 26.1716 299.996 24.1212 302.135 23.5923C306.268 22.2798 308.505 26.5112 305.12 29.9785C304.687 30.4683 303.932 31.3629 303.27 31.9505C302.371 32.7472 301.577 33.1847 301.407 33.2435C300.967 33.3936 302.522 33.8507 303.388 34.8302C308.977 33.374 312.106 33.6418 312.939 35.5158C313.248 36.208 313.228 36.2602 313.326 36.7826C313.746 39.0485 311.312 40.6614 309.856 40.5046C308.262 40.6679 307.212 40.4067 307.212 40.4067C307.212 40.4067 306.91 40.2761 306.838 40.9226C307.403 46.9692 301.4 51.5923 296.112 51.5923C292.078 51.527 290.746 46.277 292.065 43.5867C293.219 41.0205 296.401 37.6837 298.776 36.75C299.281 36.3974 299.419 36.0709 298.559 35.4636C298.212 35.3134 297.654 34.7388 296.946 34.8563C296.572 34.9151 295.397 35.5289 294.059 36.2668C293.521 36.5606 293.088 36.8936 292.288 37.4095C291.428 37.9645 291.356 37.9449 290.976 38.4216C287.492 47.6679 281.87 54.2369 272.719 50.8675C269.701 49.3591 268.809 45.9897 268.809 45.9897C268.809 45.9897 268.665 46.5121 267.162 47.8507C262.905 52.0102 254.252 54.6875 251.372 48.3339C251.169 47.8181 251.07 47.5373 250.323 48.2686C247.174 51.7033 241.958 51.1026 241.125 46.7602C241.06 45.833 240.673 45.2323 239.288 46.6101C236.29 50.861 228.786 54.4655 224.548 49.5224C224.449 48.8563 223.728 48.6539 222.954 49.555C222.173 50.4561 216.446 55.3927 212.825 49.5877C212.352 48.8498 212.044 49.0392 211.336 49.7183C207.741 52.7024 202.342 54.681 199.173 48.791C199.042 48.027 199.271 48.1185 198.464 48.7257C197.651 49.333 191.353 55.2882 187.66 47.8768C186 41.7453 189.457 34.902 189.425 34.8041C189.628 34.1642 188.454 34.9543 187.594 35.4048C185.541 36.4692 184.196 31.9701 186.276 30.6968C186.748 30.0961 191.898 27.5755 191.898 27.5755L191.885 27.569Z" fill="url(#paint3_linear_1403_2113)"/>
<path d="M231.606 37.1156C231.606 37.1156 235.556 31.3824 239 35.1893C239.603 38.6045 238.849 45.5522 232.853 47.1586C227.946 48.4776 227.428 43.4953 231.606 37.1156Z" fill="url(#paint4_linear_1403_2113)"/>
<path d="M248.125 22.1294C248.125 22.1294 249.398 19.4391 250.06 18.5118C250.618 17.7348 253.353 11.8514 251.74 19.3085C250.585 25.9167 246.524 31.2907 244.3 33.4652C244.149 33.3672 245.304 29.717 245.409 28.9922C246.203 26.5239 246.826 24.467 248.125 22.1294Z" fill="url(#paint5_linear_1403_2113)"/>
<path d="M257.112 30.5988C257.112 30.5988 260.084 25.3227 258.871 32.5055C258.457 35.1305 256.627 38.0559 255.918 38.5195C255.21 38.9831 254.79 39.4076 254.993 37.7882C255.085 35.8814 255.84 32.4533 257.112 30.5923V30.5988Z" fill="url(#paint6_linear_1403_2113)"/>
<path d="M283.792 29.4101C283.792 29.4101 280.165 27.8038 278.938 29.9195C278.892 29.9913 278.859 30.0305 278.761 30.3113C278.702 30.468 278.682 30.6443 278.649 30.7422C278.216 32.12 281.149 34.3075 284.344 34.3728C286.036 34.5361 287.086 34.5622 286.64 32.6032C286.508 32.0286 286.069 31.3169 285.262 30.481C284.77 29.9717 284.547 29.8346 283.792 29.4101Z" fill="url(#paint7_linear_1403_2113)"/>
<path d="M302.108 26.4197C302.108 26.4197 304.496 26.0344 302.771 28.1436C300.77 30.6706 299.635 31.0755 299.635 31.0755C299.635 31.0755 297.831 31.9178 298.697 30.1221C299.012 29.4691 299.563 28.901 300.18 28.1827C300.855 27.373 302.115 26.4262 302.115 26.4262L302.108 26.4197Z" fill="url(#paint8_linear_1403_2113)"/>
<path d="M302.679 38.1015C303.991 37.7815 303.617 39.9364 302.181 42.2741C301.092 44.0371 298.33 45.4933 297.136 44.8925C294.184 43.4103 300.757 38.6696 302.679 38.1015Z" fill="url(#paint9_linear_1403_2113)"/>
<path d="M262.118 15.0772C262.118 15.0772 266.356 15.0511 264.493 19.8113C263.423 21.7311 261.291 21.5287 260.222 21.0259C259.153 20.5231 258.647 18.2964 259.461 16.9251C260.274 15.5604 261.481 15.025 262.118 15.0772Z" fill="url(#paint10_linear_1403_2113)"/>
<path d="M166.877 14.5092C166.877 14.5092 177.465 2.67061 188.126 10.5587C187.26 7.82919 175.425 2.429 166.877 14.5092Z" fill="#FAFAFA"/>
<path d="M194.916 19.6678C196.47 17.7611 201.279 17.4803 201.43 20.2751C202.276 17.4607 197.677 16.2853 194.916 19.6678Z" fill="#FAFAFA"/>
<path d="M206.704 25.5836C206.704 25.5836 210.043 23.8989 211.467 27.5687C210.837 24.2777 208.876 23.7487 206.704 25.5836Z" fill="#FAFAFA"/>
<path d="M216.544 28.039C216.544 28.039 223.38 22.9391 225.092 29.6714C225.25 25.3813 221.569 22.8477 216.544 28.039Z" fill="#FAFAFA"/>
<path d="M226.988 32.6297C226.988 32.6297 234.158 25.1139 240.935 27.0728C238.475 25.5383 231.121 25.1726 226.988 32.6297Z" fill="#FAFAFA"/>
<path d="M244.799 17.4999C244.799 17.4999 251.254 1.80216 257.047 10.2257C255.315 4.51205 248.059 5.12585 244.799 17.4999Z" fill="#FAFAFA"/>
<path d="M260.983 13.8952C260.983 13.8952 265.05 12.2235 266.487 16.9838C266.861 16.3373 266.014 11.3355 260.983 13.8952Z" fill="#F7F5F5"/>
<path d="M275.487 27.8691C275.487 27.8691 279.705 22.5277 287.952 26.3542C282.107 22.4233 276.353 24.1602 275.487 27.8691Z" fill="#F7F5F5"/>
<path d="M294.63 27.4449C294.63 27.4449 300.711 18.8908 307.225 23.3964C305.166 20.262 299.99 18.3227 294.63 27.4449Z" fill="#F9F7F8"/>
<path d="M309.279 32.2506C309.279 32.2506 313.392 31.8523 313.838 34.0986C313.818 32.3159 311.883 31.3626 309.279 32.2506Z" fill="#F9F7F8"/>
<path d="M269.026 30.3245C268.947 30.4029 271.715 26.5241 273.329 28.6202C271.092 27.9672 269.026 30.3245 269.026 30.3245Z" fill="#FDFDFD"/>
</g>
<defs>
<linearGradient id="paint0_linear_1403_2113" x1="79.7781" y1="-4.1988" x2="73.2125" y2="47.9235" gradientUnits="userSpaceOnUse">
<stop stop-color="#41B4E8"/>
<stop offset="0.29" stop-color="#2CA6CE"/>
<stop offset="0.75" stop-color="#1193AC"/>
<stop offset="1" stop-color="#078C9F"/>
</linearGradient>
<linearGradient id="paint1_linear_1403_2113" x1="241.158" y1="1.56698" x2="234.872" y2="51.4101" gradientUnits="userSpaceOnUse">
<stop stop-color="#41B4E8"/>
<stop offset="0.29" stop-color="#2CA6CE"/>
<stop offset="0.75" stop-color="#1193AC"/>
<stop offset="1" stop-color="#078C9F"/>
</linearGradient>
<linearGradient id="paint2_linear_1403_2113" x1="178.037" y1="60.8459" x2="178.068" y2="61.1512" gradientUnits="userSpaceOnUse">
<stop stop-color="white"/>
<stop offset="1"/>
</linearGradient>
<linearGradient id="paint3_linear_1403_2113" x1="249.299" y1="62.347" x2="249.299" y2="62.6996" gradientUnits="userSpaceOnUse">
<stop stop-color="white"/>
<stop offset="1"/>
</linearGradient>
<linearGradient id="paint4_linear_1403_2113" x1="228.792" y1="40.6287" x2="239.17" y2="40.6287" gradientUnits="userSpaceOnUse">
<stop stop-color="#41B4E8"/>
<stop offset="0.29" stop-color="#2CA6CE"/>
<stop offset="0.75" stop-color="#1193AC"/>
<stop offset="1" stop-color="#078C9F"/>
</linearGradient>
<linearGradient id="paint5_linear_1403_2113" x1="244.281" y1="24.5258" x2="252.238" y2="24.5258" gradientUnits="userSpaceOnUse">
<stop stop-color="#41B4E8"/>
<stop offset="0.29" stop-color="#2CA6CE"/>
<stop offset="0.75" stop-color="#1193AC"/>
<stop offset="1" stop-color="#078C9F"/>
</linearGradient>
<linearGradient id="paint6_linear_1403_2113" x1="254.941" y1="33.8376" x2="259.166" y2="33.8376" gradientUnits="userSpaceOnUse">
<stop stop-color="#41B4E8"/>
<stop offset="0.29" stop-color="#2CA6CE"/>
<stop offset="0.75" stop-color="#1193AC"/>
<stop offset="1" stop-color="#078C9F"/>
</linearGradient>
<linearGradient id="paint7_linear_1403_2113" x1="278.61" y1="31.6368" x2="286.745" y2="31.6368" gradientUnits="userSpaceOnUse">
<stop stop-color="#41B4E8"/>
<stop offset="0.29" stop-color="#2CA6CE"/>
<stop offset="0.75" stop-color="#1193AC"/>
<stop offset="1" stop-color="#078C9F"/>
</linearGradient>
<linearGradient id="paint8_linear_1403_2113" x1="298.461" y1="28.8292" x2="303.401" y2="28.8292" gradientUnits="userSpaceOnUse">
<stop stop-color="#41B4E8"/>
<stop offset="0.29" stop-color="#2CA6CE"/>
<stop offset="0.75" stop-color="#1193AC"/>
<stop offset="1" stop-color="#078C9F"/>
</linearGradient>
<linearGradient id="paint9_linear_1403_2113" x1="296.381" y1="41.5493" x2="303.48" y2="41.5493" gradientUnits="userSpaceOnUse">
<stop stop-color="#41B4E8"/>
<stop offset="0.29" stop-color="#2CA6CE"/>
<stop offset="0.75" stop-color="#1193AC"/>
<stop offset="1" stop-color="#078C9F"/>
</linearGradient>
<linearGradient id="paint10_linear_1403_2113" x1="262.013" y1="57.371" x2="262.013" y2="57.6714" gradientUnits="userSpaceOnUse">
<stop stop-color="white"/>
<stop offset="1"/>
</linearGradient>
<clipPath id="clip0_1403_2113">
<rect width="317" height="56" fill="white"/>
</clipPath>
</defs>
</svg>
