<svg width="45" height="45" viewBox="0 0 45 45" fill="none" xmlns="http://www.w3.org/2000/svg">
<path d="M41.0028 23.6027C41.1185 22.7916 41.1782 21.9736 41.1817 21.1543C41.1817 16.2225 39.2225 11.4926 35.7351 8.00529C32.2477 4.51795 27.5179 2.55879 22.586 2.55879C21.7669 2.5622 20.9489 2.62193 20.1378 2.7375C15.554 0.267132 9.89239 1.09695 6.21057 4.77908C2.5286 8.4609 1.69878 14.1224 4.16915 18.7062C4.05357 19.5172 3.99385 20.3351 3.99028 21.1543C3.99028 31.4246 12.3159 39.7501 22.586 39.7501C23.4051 39.7467 24.2233 39.6869 25.0343 39.5714C29.6179 42.0417 35.2794 41.2119 38.9616 37.5298C42.6434 33.848 43.4734 28.1863 41.0028 23.6027Z" fill="white"/>
<path d="M14.5256 24.8676C21.028 24.8676 26.2993 19.5964 26.2993 13.094C26.2993 6.59156 21.028 1.32031 14.5256 1.32031C8.0232 1.32031 2.75195 6.59156 2.75195 13.094C2.75195 19.5964 8.0232 24.8676 14.5256 24.8676Z" fill="url(#paint0_linear_3592_355)"/>
<path d="M30.6467 40.9887C37.1491 40.9887 42.4204 35.7175 42.4204 29.2151C42.4204 22.7127 37.1491 17.4414 30.6467 17.4414C24.1443 17.4414 18.873 22.7127 18.873 29.2151C18.873 35.7175 24.1443 40.9887 30.6467 40.9887Z" fill="url(#paint1_linear_3592_355)"/>
<path d="M30.6453 17.4415C28.5403 17.4411 26.4739 18.0063 24.6622 19.0782C27.6928 13.968 26.4461 7.40069 21.7536 3.75641C17.0613 0.111827 10.39 0.529605 6.18862 4.73097C1.98741 8.93218 1.56963 15.6036 5.21406 20.296C8.85834 24.9885 15.4255 26.2352 20.536 23.2046C17.8227 27.8031 18.5436 33.652 22.2924 37.454C26.0414 41.2561 31.8794 42.0592 36.5158 39.4108C41.1522 36.7625 43.4258 31.3254 42.0549 26.165C40.6841 21.0045 36.0124 17.4126 30.6726 17.414L30.6453 17.4415Z" fill="#2CCCFB"/>
<path d="M22.2139 44.001C34.3641 44.001 44.2139 34.1512 44.2139 22.001C44.2139 9.85071 34.3641 0.000976562 22.2139 0.000976562C10.0636 0.000976562 0.213867 9.85071 0.213867 22.001C0.213867 34.1512 10.0636 44.001 22.2139 44.001Z" fill="url(#paint2_radial_3592_355)"/>
<path d="M22.585 39.751C32.8551 39.751 41.1807 31.4254 41.1807 21.1553C41.1807 10.8852 32.8551 2.55957 22.585 2.55957C12.3148 2.55957 3.98926 10.8852 3.98926 21.1553C3.98926 31.4254 12.3148 39.751 22.585 39.751Z" fill="url(#paint3_linear_3592_355)"/>
<path d="M22.585 39.751C32.8551 39.751 41.1807 31.4254 41.1807 21.1553C41.1807 10.8852 32.8551 2.55957 22.585 2.55957C12.3148 2.55957 3.98926 10.8852 3.98926 21.1553C3.98926 31.4254 12.3148 39.751 22.585 39.751Z" fill="url(#paint4_linear_3592_355)"/>
<path d="M15.8051 18.8705C15.3678 18.0505 15.1499 17.1313 15.1725 16.2022C15.1444 15.0279 15.5454 13.8836 16.3003 12.9838C17.0947 12.0875 18.1093 11.4143 19.2437 11.0306C20.4761 10.5958 21.7743 10.3771 23.0811 10.3842C23.9377 10.3782 24.7933 10.4426 25.6393 10.5767C26.2425 10.6778 26.8361 10.8296 27.4137 11.0306C27.9384 11.2118 28.4106 11.5188 28.7892 11.9247C29.0782 12.2503 29.2351 12.6722 29.2293 13.1076C29.2399 13.3358 29.2052 13.5639 29.1273 13.7787C29.0494 13.9935 28.9298 14.1908 28.7753 14.3592C28.6312 14.5126 28.4561 14.6336 28.2617 14.7142C28.0673 14.7948 27.8579 14.8332 27.6475 14.8268C27.353 14.8222 27.0626 14.7566 26.7947 14.6342C26.1468 14.3472 25.4806 14.1037 24.8003 13.9051C24.1675 13.7396 23.5151 13.661 22.8611 13.6715C22.0135 13.643 21.1748 13.8526 20.4403 14.2765C20.1311 14.4644 19.8785 14.7323 19.709 15.0519C19.5395 15.3715 19.4595 15.7309 19.4775 16.0922C19.4726 16.5622 19.6501 17.0157 19.9727 17.3575C20.3674 17.7646 20.8336 18.0957 21.3481 18.3341C21.912 18.6091 22.7235 18.9805 23.8788 19.4482L24.2364 19.5857C25.3275 20.0015 26.3736 20.5268 27.3587 21.1536C28.1436 21.6624 28.8059 22.3388 29.298 23.1342C29.7818 23.9686 30.0247 24.9209 29.9995 25.8851C30.0384 27.0662 29.696 28.2285 29.0229 29.1999C28.3324 30.1342 27.3725 30.835 26.2721 31.2081C24.9707 31.6721 23.5959 31.8958 22.2145 31.8682C20.3259 31.9309 18.4469 31.5739 16.7128 30.8229C16.2686 30.623 15.8776 30.3215 15.5713 29.9427C15.3303 29.5857 15.2054 29.163 15.2138 28.7323C15.1987 28.5054 15.234 28.278 15.3173 28.0663C15.4005 27.8547 15.5295 27.6641 15.6951 27.5083C16.039 27.2039 16.4881 27.0459 16.9468 27.068C17.4596 27.0753 17.9635 27.2025 18.4184 27.4394C18.9823 27.7145 19.4224 27.9346 19.7938 28.072C20.162 28.2276 20.5443 28.3473 20.9354 28.4296C21.4181 28.5394 21.9123 28.5903 22.4072 28.581C23.2832 28.6455 24.1553 28.4129 24.8829 27.9208C25.1576 27.7104 25.3775 27.4367 25.5236 27.1229C25.6696 26.8092 25.7377 26.4648 25.7218 26.119C25.735 25.6097 25.5473 25.1156 25.1992 24.7436C24.7506 24.2862 24.2303 23.9052 23.6587 23.6158C22.9848 23.258 22.022 22.8317 20.798 22.3091C19.6981 21.871 18.6432 21.3275 17.6481 20.6861C16.9041 20.1912 16.2555 19.6425 15.8051 18.8705Z" fill="white"/>
<defs>
<linearGradient id="paint0_linear_3592_355" x1="995.813" y1="15.072" x2="1364.42" y2="2342.3" gradientUnits="userSpaceOnUse">
<stop offset="0.01" stop-color="#00B7F0"/>
<stop offset="0.34" stop-color="#009DE5"/>
<stop offset="0.76" stop-color="#0082D9"/>
<stop offset="1" stop-color="#0078D4"/>
</linearGradient>
<linearGradient id="paint1_linear_3592_355" x1="175.675" y1="1783.49" x2="2216.8" y2="606.124" gradientUnits="userSpaceOnUse">
<stop stop-color="#0078D4"/>
<stop offset="0.37" stop-color="#007AD5"/>
<stop offset="0.57" stop-color="#0082D9"/>
<stop offset="0.74" stop-color="#0090DF"/>
<stop offset="0.88" stop-color="#00A3E7"/>
<stop offset="1" stop-color="#00BCF2"/>
</linearGradient>
<radialGradient id="paint2_radial_3592_355" cx="0" cy="0" r="1" gradientUnits="userSpaceOnUse" gradientTransform="translate(2135.93 2200) scale(2200.92)">
<stop/>
<stop offset="1" stop-opacity="0"/>
</radialGradient>
<linearGradient id="paint3_linear_3592_355" x1="1135.95" y1="602.234" x2="2995.52" y2="3823.5" gradientUnits="userSpaceOnUse">
<stop stop-color="#00B7F0"/>
<stop offset="1" stop-color="#007CC1"/>
</linearGradient>
<linearGradient id="paint4_linear_3592_355" x1="1701.26" y1="3714.82" x2="2025.86" y2="9.44007" gradientUnits="userSpaceOnUse">
<stop stop-color="#0078D4"/>
<stop offset="1" stop-color="#00BCF2"/>
</linearGradient>
</defs>
</svg>
