<svg width="27" height="26" viewBox="0 0 27 26" fill="none" xmlns="http://www.w3.org/2000/svg">
<path d="M12.819 0.4765C13.087 -0.104654 13.913 -0.104655 14.181 0.476498L17.5562 7.79386C17.6655 8.03071 17.8899 8.1938 18.149 8.22451L26.1512 9.1733C26.7867 9.24865 27.0419 10.0342 26.5721 10.4687L20.6558 15.9399C20.4643 16.117 20.3786 16.3809 20.4294 16.6367L21.9999 24.5404C22.1246 25.1682 21.4564 25.6537 20.8979 25.341L13.8663 21.4051C13.6387 21.2777 13.3613 21.2777 13.1337 21.4051L6.10206 25.341C5.5436 25.6536 4.87538 25.1682 5.00011 24.5404L6.57058 16.6367C6.62141 16.3809 6.53567 16.117 6.34417 15.9399L0.427933 10.4687C-0.0419419 10.0342 0.213294 9.24865 0.848839 9.1733L8.85105 8.22451C9.11007 8.1938 9.33453 8.03071 9.44379 7.79386L12.819 0.4765Z" fill="white"/>
</svg>
