<svg width="250" height="246" viewBox="0 0 250 246" fill="none" xmlns="http://www.w3.org/2000/svg">
<path d="M17.344 97.6372L26.1368 99.8899L25.834 101.072L17.0412 98.819L16.2014 102.097L15.1744 101.834L17.1568 94.0962L18.1838 94.3593L17.344 97.6372Z" fill="white"/>
<path d="M25.7394 86.3331L24.3449 90.029L28.6523 91.6542L28.2216 92.7955L18.7373 89.217L19.168 88.0756L23.353 89.6547L24.7475 85.9588L20.5625 84.3798L20.9931 83.2384L30.4774 86.8169L30.0468 87.9583L25.7394 86.3331Z" fill="white"/>
<path d="M32.4822 82.2828L23.4481 77.6847L26.2807 72.1193L27.2256 72.6002L24.9463 77.0784L27.9879 78.6264L30.1881 74.3035L31.1329 74.7844L28.9327 79.1073L32.0907 80.7147L34.37 76.2365L35.3148 76.7173L32.4822 82.2828Z" fill="white"/>
<path d="M51.5217 54.7682L44.4651 47.4908L48.9483 43.1436L49.6863 43.9047L46.0789 47.4027L48.4547 49.8528L51.937 46.4761L52.675 47.2372L49.1927 50.6139L51.6595 53.1579L55.2669 49.6599L56.005 50.421L51.5217 54.7682Z" fill="white"/>
<path d="M57.0754 37.7585L62.6405 44.929L61.6768 45.677L56.1117 38.5064L53.4385 40.5811L52.7885 39.7436L59.0986 34.8463L59.7486 35.6838L57.0754 37.7585Z" fill="white"/>
<path d="M70.6395 33.9747L67.2719 36.0394L69.6782 39.9642L68.6382 40.6019L63.3397 31.9599L64.3797 31.3222L66.7177 35.1356L70.0854 33.0709L67.7474 29.2575L68.7874 28.6199L74.0858 37.2619L73.0458 37.8995L70.6395 33.9747Z" fill="white"/>
<path d="M78.3705 34.947L77.956 34.0667L80.2423 32.9904L76.7535 25.5797L74.4672 26.656L74.0528 25.7756L79.7291 23.1034L80.1435 23.9837L77.8572 25.06L81.3461 32.4708L83.6323 31.3944L84.0468 32.2748L78.3705 34.947Z" fill="white"/>
<path d="M91.9524 29.459C90.78 29.8606 89.7594 29.7343 88.8906 29.0801C88.0309 28.4228 87.3266 27.2927 86.7775 25.6898C86.2285 24.0869 86.092 22.7622 86.3681 21.7159C86.6534 20.6664 87.3823 19.9409 88.5547 19.5393C88.9943 19.3887 89.3948 19.318 89.7562 19.3273C90.1176 19.3366 90.4473 19.4027 90.7453 19.5258C91.0433 19.6489 91.3141 19.812 91.5576 20.0151C91.798 20.2091 92.0217 20.4139 92.2286 20.6296L91.3947 21.4218C91.2401 21.2394 91.0765 21.0754 90.9038 20.9299C90.728 20.7752 90.5387 20.6558 90.336 20.5717C90.1392 20.4754 89.9214 20.4221 89.6825 20.4118C89.4527 20.3984 89.1913 20.4419 88.8982 20.5423C88.138 20.8027 87.6689 21.2857 87.491 21.9914C87.3223 22.6939 87.4026 23.5261 87.7321 24.4878L88.2686 26.0541C88.598 27.0158 89.0447 27.7225 89.6087 28.174C90.1819 28.6224 90.8486 28.7164 91.6089 28.456C91.902 28.3556 92.1352 28.2297 92.3084 28.0783C92.4909 27.9237 92.6318 27.7526 92.7313 27.565C92.8368 27.3651 92.9132 27.1547 92.9603 26.9339C93.0044 26.7039 93.0315 26.4694 93.0418 26.2305L94.1863 26.3451C94.1582 26.6515 94.1087 26.955 94.0377 27.2557C93.9667 27.5563 93.8512 27.8466 93.6912 28.1266C93.5313 28.4065 93.3114 28.6609 93.0316 28.8898C92.7518 29.1187 92.3921 29.3084 91.9524 29.459Z" fill="white"/>
<path d="M102.36 26.5328C101.472 26.7314 100.708 26.7335 100.069 26.539C99.4286 26.3351 98.8668 26.0192 98.3843 25.5914L99.0903 24.6894C99.5855 25.0846 100.072 25.3528 100.55 25.494C101.038 25.633 101.579 25.6359 102.174 25.5028C102.892 25.3423 103.403 25.0544 103.707 24.6391C104.011 24.2239 104.097 23.7187 103.964 23.1234C103.856 22.6416 103.635 22.299 103.302 22.0957C102.967 21.883 102.446 21.796 101.741 21.8347L100.594 21.8977C100.093 21.9204 99.6584 21.8837 99.2897 21.7876C98.9304 21.6893 98.6251 21.5443 98.3739 21.3525C98.1205 21.1512 97.9196 20.9183 97.7712 20.6539C97.6207 20.38 97.5106 20.0871 97.4408 19.7753C97.238 18.8683 97.3824 18.1167 97.8742 17.5206C98.3659 16.9245 99.1173 16.5134 100.128 16.2874C100.922 16.1099 101.618 16.0932 102.215 16.2373C102.823 16.3793 103.345 16.6543 103.784 17.0622L103.109 17.972C102.755 17.6743 102.359 17.4553 101.921 17.3152C101.483 17.175 100.956 17.1736 100.342 17.311C99.6714 17.461 99.1882 17.7179 98.8925 18.0816C98.5969 18.4453 98.5124 18.9107 98.6392 19.4776C98.7385 19.9217 98.9521 20.2559 99.2801 20.4802C99.6153 20.6929 100.146 20.7825 100.873 20.749L101.977 20.6955C102.478 20.6728 102.913 20.7095 103.282 20.8056C103.65 20.9017 103.96 21.0457 104.212 21.2376C104.472 21.4273 104.678 21.6591 104.828 21.933C104.979 22.2069 105.09 22.5045 105.162 22.8257C105.367 23.7422 105.225 24.5279 104.737 25.1828C104.258 25.8356 103.465 26.2856 102.36 26.5328Z" fill="white"/>
<path d="M132.711 24.1657L133.03 14.0024L134.113 14.122L133.893 19.9422L133.774 23.0119L133.889 23.0247L135.901 16.9787L137.258 17.1286L137.902 23.4679L138.018 23.4806L138.57 20.4588L139.627 14.731L140.681 14.8474L138.774 24.8353L137.027 24.6424L136.465 18.4875L136.35 18.4748L134.458 24.3587L132.711 24.1657Z" fill="white"/>
<path d="M143.808 25.6676L146.02 15.775L152.114 17.1378L151.883 18.1724L146.979 17.0758L146.234 20.4064L150.968 21.465L150.737 22.4996L146.003 21.441L145.23 24.8992L150.133 25.9958L149.902 27.0304L143.808 25.6676Z" fill="white"/>
<path d="M175.558 37.5129L180.856 28.8709L181.896 29.5085L177.152 37.2467L181.25 39.7593L180.696 40.6631L175.558 37.5129Z" fill="white"/>
<path d="M184.517 43.3167L185.114 42.548L187.11 44.0974L192.132 37.6266L190.136 36.0773L190.733 35.3086L195.689 39.1552L195.092 39.9239L193.096 38.3746L188.074 44.8453L190.07 46.3946L189.474 47.1633L184.517 43.3167Z" fill="white"/>
<path d="M194.857 51.9978L199.755 42.6277L200.683 43.5274L198.187 48.167L196.3 51.6777L196.352 51.7283L199.803 49.734L204.364 47.0962L205.26 47.9657L196.045 53.1503L194.857 51.9978Z" fill="white"/>
<path d="M201.107 58.4403L208.92 51.9815L212.898 56.7946L212.081 57.4701L208.88 53.5972L206.249 55.7718L209.34 59.5103L208.523 60.1858L205.432 56.4472L202.701 58.705L205.903 62.5779L205.086 63.2534L201.107 58.4403Z" fill="white"/>
<path d="M228.247 83.2496L229.462 86.4699C229.77 87.2852 229.789 88.0076 229.519 88.637C229.25 89.2665 228.743 89.7214 228.001 90.0016C227.43 90.217 226.929 90.2457 226.497 90.088C226.068 89.9393 225.704 89.6731 225.404 89.2896L225.363 89.305C225.438 89.8873 225.363 90.4172 225.14 90.8947C224.926 91.3688 224.488 91.7306 223.827 91.9801C223.446 92.1237 223.064 92.1953 222.681 92.1949C222.298 92.1946 221.94 92.1228 221.607 91.9795C221.277 91.8453 220.979 91.6471 220.715 91.3847C220.463 91.128 220.268 90.8185 220.132 90.4561L218.763 86.8282L228.247 83.2496ZM220.995 89.7422C221.194 90.2676 221.467 90.6353 221.815 90.8454C222.163 91.0554 222.582 91.0682 223.071 90.8836L223.628 90.6734C224.109 90.4923 224.41 90.2078 224.533 89.82C224.665 89.4288 224.631 88.9705 224.433 88.4451L223.623 86.2982L220.185 87.5953L220.995 89.7422ZM225.299 87.9011C225.48 88.3812 225.726 88.7178 226.037 88.911C226.357 89.1007 226.734 89.1135 227.169 88.9495L227.699 88.7495C228.134 88.5855 228.409 88.3265 228.523 87.9727C228.638 87.619 228.605 87.202 228.424 86.7219L227.686 84.7653L224.561 85.9444L225.299 87.9011Z" fill="white"/>
<path d="M223.074 99.7891L226.928 98.8015L232.025 93.8828L232.371 95.2334L230.171 97.2962L228.24 99.0651L228.255 99.1214L230.805 99.7723L233.726 100.523L234.065 101.846L227.231 99.9833L223.376 100.971L223.074 99.7891Z" fill="white"/>
<path d="M232.137 148.881L223.345 146.629L223.647 145.447L232.44 147.7L233.28 144.422L234.307 144.685L232.325 152.422L231.298 152.159L232.137 148.881Z" fill="white"/>
<path d="M223.742 160.185L225.136 156.49L220.829 154.864L221.26 153.723L230.744 157.302L230.313 158.443L226.128 156.864L224.734 160.56L228.919 162.139L228.488 163.28L219.004 159.702L219.435 158.56L223.742 160.185Z" fill="white"/>
<path d="M216.999 164.236L226.033 168.834L223.201 174.399L222.256 173.918L224.535 169.44L221.493 167.892L219.293 172.215L218.348 171.734L220.549 167.411L217.391 165.804L215.111 170.282L214.166 169.801L216.999 164.236Z" fill="white"/>
<path d="M197.96 191.75L205.016 199.028L200.533 203.375L199.795 202.614L203.402 199.116L201.027 196.666L197.544 200.042L196.806 199.281L200.289 195.905L197.822 193.361L194.214 196.859L193.476 196.098L197.96 191.75Z" fill="white"/>
<path d="M192.406 208.76L186.841 201.59L187.805 200.842L193.37 208.012L196.043 205.937L196.693 206.775L190.383 211.672L189.733 210.835L192.406 208.76Z" fill="white"/>
<path d="M178.842 212.544L182.209 210.479L179.803 206.554L180.843 205.917L186.142 214.559L185.102 215.196L182.764 211.383L179.396 213.448L181.734 217.261L180.694 217.899L175.395 209.257L176.435 208.619L178.842 212.544Z" fill="white"/>
<path d="M171.111 211.572L171.525 212.452L169.239 213.528L172.728 220.939L175.014 219.863L175.429 220.743L169.752 223.415L169.338 222.535L171.624 221.459L168.135 214.048L165.849 215.124L165.435 214.244L171.111 211.572Z" fill="white"/>
<path d="M157.529 217.06C158.701 216.658 159.722 216.784 160.591 217.438C161.45 218.096 162.155 219.226 162.704 220.829C163.253 222.432 163.389 223.756 163.113 224.803C162.828 225.852 162.099 226.578 160.927 226.979C160.487 227.13 160.086 227.201 159.725 227.191C159.364 227.182 159.034 227.116 158.736 226.993C158.438 226.87 158.167 226.707 157.924 226.503C157.683 226.309 157.46 226.105 157.253 225.889L158.087 225.097C158.241 225.279 158.405 225.443 158.578 225.589C158.753 225.743 158.943 225.863 159.145 225.947C159.342 226.043 159.56 226.096 159.799 226.107C160.029 226.12 160.29 226.077 160.583 225.976C161.343 225.716 161.812 225.233 161.99 224.527C162.159 223.825 162.079 222.993 161.749 222.031L161.213 220.464C160.883 219.503 160.437 218.796 159.873 218.345C159.299 217.896 158.633 217.802 157.872 218.063C157.579 218.163 157.346 218.289 157.173 218.44C156.99 218.595 156.849 218.766 156.75 218.954C156.644 219.153 156.568 219.364 156.521 219.585C156.477 219.815 156.45 220.049 156.44 220.288L155.295 220.173C155.323 219.867 155.373 219.564 155.444 219.263C155.515 218.962 155.63 218.672 155.79 218.392C155.95 218.112 156.17 217.858 156.45 217.629C156.73 217.4 157.089 217.21 157.529 217.06Z" fill="white"/>
<path d="M147.122 219.986C148.01 219.787 148.773 219.785 149.412 219.98C150.053 220.183 150.614 220.499 151.097 220.927L150.391 221.829C149.896 221.434 149.409 221.166 148.931 221.025C148.444 220.886 147.902 220.883 147.307 221.016C146.589 221.176 146.078 221.464 145.774 221.879C145.47 222.295 145.385 222.8 145.518 223.395C145.626 223.877 145.846 224.22 146.179 224.423C146.514 224.636 147.035 224.723 147.741 224.684L148.887 224.621C149.388 224.598 149.823 224.635 150.192 224.731C150.551 224.829 150.856 224.974 151.107 225.166C151.361 225.367 151.562 225.6 151.71 225.865C151.861 226.139 151.971 226.431 152.04 226.743C152.243 227.65 152.099 228.402 151.607 228.998C151.115 229.594 150.364 230.005 149.353 230.231C148.559 230.409 147.864 230.425 147.266 230.281C146.659 230.139 146.136 229.864 145.698 229.456L146.372 228.547C146.726 228.844 147.123 229.063 147.561 229.203C147.999 229.344 148.525 229.345 149.139 229.208C149.81 229.058 150.293 228.801 150.589 228.437C150.884 228.073 150.969 227.608 150.842 227.041C150.743 226.597 150.529 226.263 150.201 226.038C149.866 225.826 149.335 225.736 148.608 225.77L147.504 225.823C147.003 225.846 146.569 225.809 146.2 225.713C145.831 225.617 145.521 225.473 145.27 225.281C145.009 225.091 144.804 224.859 144.653 224.586C144.502 224.312 144.391 224.014 144.319 223.693C144.114 222.776 144.256 221.991 144.745 221.336C145.224 220.683 146.016 220.233 147.122 219.986Z" fill="white"/>
<path d="M116.77 222.353L116.451 232.516L115.369 232.397L115.588 226.576L115.708 223.507L115.592 223.494L113.58 229.54L112.223 229.39L111.579 223.051L111.464 223.038L110.911 226.06L109.855 231.788L108.801 231.671L110.708 221.683L112.454 221.876L113.016 228.031L113.132 228.044L115.024 222.16L116.77 222.353Z" fill="white"/>
<path d="M105.674 220.851L103.461 230.744L97.3672 229.381L97.5986 228.346L102.502 229.443L103.247 226.112L98.5134 225.054L98.7448 224.019L103.478 225.078L104.252 221.619L99.348 220.523L99.5794 219.488L105.674 220.851Z" fill="white"/>
<path d="M73.9238 209.006L68.6254 217.648L67.5853 217.01L72.3297 209.272L68.2315 206.759L68.7857 205.855L73.9238 209.006Z" fill="white"/>
<path d="M64.9639 203.202L64.3673 203.971L62.371 202.421L57.349 208.892L59.3453 210.441L58.7487 211.21L53.7924 207.363L54.389 206.595L56.3853 208.144L61.4073 201.673L59.411 200.124L60.0076 199.355L64.9639 203.202Z" fill="white"/>
<path d="M54.6244 194.521L49.726 203.891L48.798 202.991L51.2942 198.352L53.1812 194.841L53.1291 194.79L49.6781 196.785L45.1176 199.422L44.221 198.553L53.4359 193.368L54.6244 194.521Z" fill="white"/>
<path d="M48.3747 188.078L40.5617 194.537L36.5828 189.724L37.4 189.048L40.6016 192.921L43.232 190.747L40.1414 187.008L40.9585 186.333L44.0491 190.071L46.7803 187.814L43.5787 183.941L44.3958 183.265L48.3747 188.078Z" fill="white"/>
<path d="M21.2343 163.269L20.0192 160.049C19.7116 159.233 19.6926 158.511 19.9622 157.882C20.2317 157.252 20.7379 156.797 21.4807 156.517C22.0514 156.302 22.5528 156.273 22.9848 156.431C23.4135 156.579 23.7777 156.845 24.0777 157.229L24.1184 157.214C24.0436 156.631 24.1179 156.101 24.3413 155.624C24.5556 155.15 24.9934 154.788 25.6547 154.538C26.0352 154.395 26.4169 154.323 26.7999 154.324C27.1829 154.324 27.5412 154.396 27.8746 154.539C28.2047 154.673 28.5019 154.871 28.7665 155.134C29.0186 155.391 29.213 155.7 29.3497 156.062L30.7186 159.69L21.2343 163.269ZM28.486 156.776C28.2877 156.251 28.0145 155.883 27.6662 155.673C27.3178 155.463 26.8991 155.45 26.4099 155.635L25.8528 155.845C25.3727 156.026 25.0713 156.311 24.9486 156.699C24.8168 157.09 24.85 157.548 25.0483 158.073L25.8583 160.22L29.296 158.923L28.486 156.776ZM24.1825 158.617C24.0013 158.137 23.7553 157.801 23.4444 157.608C23.1245 157.418 22.7471 157.405 22.3123 157.569L21.7824 157.769C21.3476 157.933 21.0727 158.192 20.9579 158.546C20.843 158.9 20.8761 159.317 21.0573 159.797L21.7956 161.753L24.9207 160.574L24.1825 158.617Z" fill="white"/>
<path d="M26.4076 146.729L22.5528 147.717L17.4564 152.636L17.1104 151.285L19.3105 149.222L21.241 147.453L21.2266 147.397L18.6761 146.746L15.7552 145.995L15.4164 144.673L22.2501 146.535L26.1049 145.548L26.4076 146.729Z" fill="white"/>
<circle cx="231.328" cy="123.519" r="5.70539" fill="white"/>
<circle cx="16.0788" cy="123.519" r="5.70539" fill="white"/>
<circle cx="124.741" cy="123.259" r="89.471" fill="#34C4F2"/>
<path d="M249.741 123C249.741 190.455 193.898 245.147 125 245.147C56.1025 245.147 0.259336 190.455 0.259336 123C0.259336 55.5449 56.1025 0.852598 125 0.852598C193.898 0.852598 249.741 55.5449 249.741 123Z" stroke="white" stroke-width="0.518672"/>
</svg>
