<svg width="134" height="40" viewBox="0 0 134 40" fill="none" xmlns="http://www.w3.org/2000/svg">
<g clip-path="url(#clip0_1710_13420)">
<path d="M36.6354 25.2664C34.46 25.2664 32.4215 24.3453 30.5695 22.846L31.0205 20.7294L31.0401 20.651C31.4417 18.3974 32.7157 14.6146 36.6354 14.6146C39.575 14.6146 41.9661 17.0057 41.9661 19.9453C41.9562 22.8753 39.5653 25.2664 36.6354 25.2664ZM36.6354 9.2154C31.6278 9.2154 27.7476 12.4687 26.17 17.8191C23.7593 14.2031 21.9366 9.86219 20.8686 6.20703H15.4791V20.2295C15.4791 22.9929 13.2252 25.2465 10.4618 25.2465C7.69841 25.2465 5.44481 22.9929 5.44481 20.2295V6.20703H0.054749V20.2295C0.0351411 25.972 4.70939 30.6852 10.4516 30.6852C16.1941 30.6852 20.8683 25.972 20.8683 20.2295V17.8779C21.9167 20.063 23.2004 22.2677 24.7585 24.2277L21.4561 39.7492H26.9732L29.364 28.4902C31.461 29.8326 33.8717 30.6755 36.6351 30.6755C42.5439 30.6755 47.3554 25.8347 47.3554 19.9257C47.3554 14.0266 42.5442 9.2154 36.6354 9.2154Z" fill="white"/>
<path d="M63.8097 9.82258L67.2884 23.8451L71.1201 9.82258H75.6863L69.7972 30.0872H65.2306L61.615 15.9763L58.0087 30.0772H53.4424L47.5527 9.8129H52.1193L55.9506 23.8354L59.4293 9.8129H63.8095V9.82284L63.8097 9.82258ZM86.6123 9.21499C80.684 9.21499 75.8824 14.0262 75.8824 19.9449C75.8824 25.8736 80.6936 30.6751 86.6123 30.6751C92.541 30.6751 97.3522 25.8736 97.3522 19.9449C97.3522 14.0166 92.541 9.21499 86.6123 9.21499ZM86.6123 26.2654C83.124 26.2654 80.3018 23.4432 80.3018 19.9549C80.3018 16.4662 83.1336 13.6443 86.6123 13.6443C90.101 13.6443 92.9229 16.4662 92.9229 19.9549C92.9229 23.4336 90.101 26.2654 86.6123 26.2654ZM110.395 14.3596C107.328 14.3596 104.849 16.8485 104.849 19.9057V30.0772H100.253V9.82258H104.849V12.9387C104.849 12.9387 106.808 9.81264 110.836 9.81264H112.247V14.3596H110.395ZM125.819 19.1611C129.082 17.3188 131.297 13.8205 131.297 9.81264H126.7C126.7 13.1933 123.957 15.9371 120.576 15.9371H119.959V0.0429688H115.363V30.077H119.959V20.5329H120.508C120.958 20.5329 121.546 20.827 121.811 21.1894L128.337 30.0772H133.844L125.819 19.1611Z" fill="white"/>
</g>
<defs>
<clipPath id="clip0_1710_13420">
<rect width="133.869" height="40" fill="white"/>
</clipPath>
</defs>
</svg>
