<svg width="59" height="38" viewBox="0 0 59 38" fill="none" xmlns="http://www.w3.org/2000/svg">
<g clip-path="url(#clip0_1563_10294)">
<path d="M-0.00195312 0.0078125H58.4596V38.1035H-0.00195312V0.0078125Z" fill="#F0F0F0"/>
<path d="M-0.00195312 4.76953H58.4596V9.53103H-0.00195312V4.76953ZM-0.00195312 14.2937H58.4596V19.0552H-0.00195312V14.2937ZM-0.00195312 23.8167H58.4596V28.5782H-0.00195312V23.8167ZM-0.00195312 33.341H58.4596V38.1025H-0.00195312V33.341Z" fill="#D80027"/>
<path d="M-0.00195312 0.0078125H29.2288V20.5209H-0.00195312V0.0078125Z" fill="#2E52B2"/>
<path d="M11.3959 8.4173L10.9251 9.83292H9.40236L10.6345 10.7074L10.1637 12.1229L11.3959 11.2484L12.6272 12.1229L12.1566 10.7074L13.3887 9.83292H11.8659L11.3959 8.4173ZM11.8659 14.9414L11.3959 13.5259L10.9251 14.9414H9.40236L10.6345 15.816L10.1637 17.2315L11.3959 16.3569L12.6272 17.2315L12.1566 15.816L13.3887 14.9414H11.8659ZM5.4304 14.9414L4.96031 13.5259L4.48954 14.9414H2.9668L4.19894 15.816L3.72817 17.2315L4.96031 16.3569L6.19177 17.2315L5.72111 15.816L6.95303 14.9414H5.4304ZM4.96031 8.4173L4.48954 9.83292H2.9668L4.19894 10.7074L3.72817 12.1229L4.96031 11.2484L6.19177 12.1229L5.72111 10.7074L6.95303 9.83292H5.4304L4.96031 8.4173ZM11.3959 3.30859L10.9251 4.72433H9.40236L10.6345 5.59888L10.1637 7.0144L11.3959 6.13984L12.6272 7.0144L12.1566 5.59888L13.3887 4.72433H11.8659L11.3959 3.30859ZM4.96031 3.30859L4.48954 4.72433H2.9668L4.19894 5.59888L3.72817 7.0144L4.96031 6.13984L6.19177 7.0144L5.72111 5.59888L6.95303 4.72433H5.4304L4.96031 3.30859ZM17.8313 8.4173L17.3607 9.83292H15.8379L17.07 10.7074L16.5994 12.1229L17.8313 11.2484L19.0629 12.1229L18.5921 10.7074L19.8243 9.83292H18.3015L17.8313 8.4173ZM18.3015 14.9414L17.8313 13.5259L17.3607 14.9414H15.8379L17.07 15.816L16.5994 17.2315L17.8313 16.3569L19.0629 17.2315L18.5921 15.816L19.8243 14.9414H18.3015ZM24.7371 14.9414L24.267 13.5259L23.7962 14.9414H22.2736L23.5055 15.816L23.0349 17.2315L24.267 16.3569L25.4985 17.2315L25.0277 15.816L26.2598 14.9414H24.7371ZM24.267 8.4173L23.7962 9.83292H22.2736L23.5055 10.7074L23.0349 12.1229L24.267 11.2484L25.4985 12.1229L25.0277 10.7074L26.2598 9.83292H24.7371L24.267 8.4173ZM17.8313 3.30859L17.3607 4.72433H15.8379L17.07 5.59888L16.5994 7.0144L17.8313 6.13984L19.0629 7.0144L18.5921 5.59888L19.8243 4.72433H18.3015L17.8313 3.30859ZM24.267 3.30859L23.7962 4.72433H22.2736L23.5055 5.59888L23.0349 7.0144L24.267 6.13984L25.4985 7.0144L25.0277 5.59888L26.2598 4.72433H24.7371L24.267 3.30859Z" fill="#F0F0F0"/>
</g>
<defs>
<clipPath id="clip0_1563_10294">
<rect width="58.4615" height="38" fill="white"/>
</clipPath>
</defs>
</svg>
