<svg width="44" height="45" viewBox="0 0 44 45" fill="none" xmlns="http://www.w3.org/2000/svg">
<path d="M0.937773 22.2372C0.936742 25.934 1.91024 29.5437 3.76134 32.7254L0.760742 43.5961L11.9725 40.6792C15.0735 42.3543 18.548 43.232 22.0787 43.2322H22.088C33.7437 43.2322 43.2317 33.8211 43.2367 22.2537C43.239 16.6485 41.041 11.3777 37.0477 7.41226C33.055 3.44715 27.7449 1.26232 22.0872 1.25977C10.4301 1.25977 0.942758 10.6703 0.937945 22.2372" fill="url(#paint0_linear_3592_351)"/>
<path d="M0.183906 22.3019C0.182703 26.1445 1.19109 29.8957 3.10819 33.2022L0 44.5L11.6138 41.4685C14.8137 43.2054 18.4166 44.1212 22.0827 44.1225H22.0921C34.166 44.1225 43.9948 34.3406 44 22.3194C44.0021 16.4935 41.7251 11.0151 37.5891 6.89398C33.4525 2.77335 27.9525 0.502396 22.0921 0.5C10.0162 0.5 0.188719 10.2806 0.183906 22.3019ZM7.10033 32.6328L6.66669 31.9475C4.84378 29.0619 3.88162 25.7274 3.883 22.3033C3.88678 12.3114 12.055 4.18225 22.099 4.18225C26.9631 4.18431 31.5343 6.07197 34.9724 9.49688C38.4105 12.9221 40.3023 17.4753 40.3011 22.318C40.2966 32.3099 32.1283 40.4401 22.0921 40.4401H22.0849C18.817 40.4384 15.6121 39.5647 12.8171 37.9137L12.1519 37.521L5.26006 39.3199L7.10033 32.6328Z" fill="url(#paint1_linear_3592_351)"/>
<path d="M16.6164 13.1455C16.2063 12.2411 15.7747 12.2228 15.3847 12.207C15.0654 12.1933 14.7003 12.1944 14.3356 12.1944C13.9705 12.1944 13.3774 12.3306 12.876 12.8738C12.3741 13.4175 10.96 14.7313 10.96 17.4036C10.96 20.076 12.9216 22.6585 13.195 23.0213C13.4688 23.3833 16.9819 29.0426 22.5459 31.2197C27.17 33.029 28.111 32.6692 29.1146 32.5785C30.1184 32.4881 32.3534 31.2649 32.8094 29.9966C33.2657 28.7285 33.2657 27.6414 33.1289 27.4143C32.9921 27.188 32.627 27.052 32.0796 26.7805C31.532 26.5088 28.8408 25.1948 28.3391 25.0135C27.8372 24.8324 27.4723 24.742 27.1073 25.2859C26.7422 25.8289 25.6939 27.052 25.3744 27.4143C25.0553 27.7773 24.7357 27.8225 24.1885 27.5509C23.6407 27.2783 21.8778 26.7055 19.7863 24.8553C18.1589 23.4155 17.0603 21.6376 16.741 21.0938C16.4216 20.5508 16.7068 20.2564 16.9813 19.9858C17.2272 19.7424 17.5289 19.3515 17.8028 19.0345C18.0758 18.7173 18.1669 18.491 18.3494 18.1287C18.5321 17.7662 18.4406 17.4489 18.304 17.1773C18.1669 16.9056 17.1031 14.2194 16.6164 13.1455Z" fill="white"/>
<defs>
<linearGradient id="paint0_linear_3592_351" x1="2124.56" y1="4234.9" x2="2124.56" y2="1.25977" gradientUnits="userSpaceOnUse">
<stop stop-color="#1FAF38"/>
<stop offset="1" stop-color="#60D669"/>
</linearGradient>
<linearGradient id="paint1_linear_3592_351" x1="2200" y1="4400.5" x2="2200" y2="0.5" gradientUnits="userSpaceOnUse">
<stop stop-color="#F9F9F9"/>
<stop offset="1" stop-color="white"/>
</linearGradient>
</defs>
</svg>
